# Blender v2.93.1 OBJ File: 'theboneshaker.blend'
# www.blender.org
mtllib bolttheboneshaker.mtl
o Cube.004_Cube.019
v -1.100811 0.302774 -0.105669
v -1.100811 0.311029 -0.075103
v -1.116052 0.333340 -0.172005
v -1.116052 0.341594 -0.163899
v -1.039045 0.302774 -0.105669
v -1.039045 0.311029 -0.075103
v -1.082520 0.333340 -0.172005
v -1.082520 0.341594 -0.163899
v 0.250566 0.134571 0.067713
v 0.250566 0.298595 0.067713
v 0.250566 0.134571 -0.096310
v 0.250566 0.298595 -0.096310
v 0.612700 0.134571 0.067713
v 0.612700 0.298595 0.067713
v 0.612700 0.134571 -0.096310
v 0.612700 0.298595 -0.096310
v 0.250566 0.134571 0.019140
v 0.250566 0.298595 0.019140
v 0.612700 0.134571 0.019140
v 0.612700 0.298595 0.019140
v 0.013612 0.134571 0.019140
v 0.013612 0.134571 0.067713
v 0.013612 0.298595 0.067713
v 0.013612 0.298595 0.019140
v -1.168871 0.267540 -0.049891
v -1.168871 0.319338 -0.029343
v -1.155531 0.299075 -0.104343
v -1.155531 0.350873 -0.083795
v -0.510360 0.267540 -0.049891
v -0.510360 0.319338 -0.029343
v -0.497020 0.299075 -0.104343
v -0.497020 0.350873 -0.083795
v -1.168871 0.286299 -0.039905
v -1.155531 0.317834 -0.103943
v -0.497020 0.317834 -0.103943
v -0.510360 0.286299 -0.039905
vt 0.375000 0.000000
vt 0.625000 0.000000
vt 0.625000 0.250000
vt 0.375000 0.250000
vt 0.625000 0.500000
vt 0.375000 0.500000
vt 0.625000 0.750000
vt 0.375000 0.750000
vt 0.625000 1.000000
vt 0.375000 1.000000
vt 0.125000 0.500000
vt 0.125000 0.750000
vt 0.875000 0.500000
vt 0.875000 0.750000
vt 0.375000 0.074034
vt 0.625000 0.074034
vt 0.625000 0.250000
vt 0.375000 0.250000
vt 0.625000 0.500000
vt 0.375000 0.500000
vt 0.375000 0.675966
vt 0.625000 0.675966
vt 0.625000 0.750000
vt 0.375000 0.750000
vt 0.625000 1.000000
vt 0.375000 1.000000
vt 0.125000 0.675966
vt 0.125000 0.750000
vt 0.875000 0.675966
vt 0.875000 0.750000
vt 0.875000 0.500000
vt 0.125000 0.500000
vt 0.625000 1.000000
vt 0.375000 1.000000
vt 0.375000 0.000000
vt 0.625000 0.000000
vt 0.625000 0.074034
vt 0.375000 0.074034
vt 0.875000 0.675966
vt 0.875000 0.750000
vt 0.125000 0.750000
vt 0.125000 0.675966
vt 0.496500 0.000000
vt 0.625000 0.000000
vt 0.625000 0.250000
vt 0.496500 0.250000
vt 0.625000 0.500000
vt 0.496500 0.500000
vt 0.625000 0.750000
vt 0.496500 0.750000
vt 0.625000 1.000000
vt 0.496500 1.000000
vt 0.125000 0.500000
vt 0.375000 0.500000
vt 0.375000 0.750000
vt 0.125000 0.750000
vt 0.875000 0.500000
vt 0.875000 0.750000
vt 0.375000 1.000000
vt 0.375000 0.250000
vt 0.375000 0.000000
vn -0.9678 -0.2316 0.0989
vn 0.0000 0.7007 -0.7135
vn 0.8029 0.5482 -0.2340
vn 0.0000 -1.0000 -0.0094
vn 0.0000 -0.9654 0.2607
vn 0.0000 -0.9944 -0.1061
vn 0.0000 -0.9082 -0.4185
vn 0.0000 0.9455 0.3255
vn -1.0000 0.0000 0.0000
vn 0.0000 0.0000 -1.0000
vn 1.0000 0.0000 0.0000
vn 0.0000 0.0000 1.0000
vn 0.0000 -1.0000 0.0000
vn 0.0000 1.0000 0.0000
vn -0.9804 0.0672 -0.1850
vn -0.9808 0.0823 -0.1770
vn -0.9805 0.0696 -0.1837
vn 0.0000 0.2806 -0.9598
vn 0.0000 0.5206 -0.8538
vn 0.9805 -0.0696 0.1837
vn 0.9808 -0.0823 0.1770
vn 0.9804 -0.0672 0.1850
vn 0.0000 -0.3888 0.9213
vn 0.0000 -0.3045 0.9525
vn 0.0000 -0.8654 -0.5012
vn 0.0000 0.8654 0.5012
vn 0.0000 -0.4699 0.8827
vn 0.9799 -0.0532 0.1923
vn 0.0000 0.0213 -0.9998
vn -0.9799 0.0532 -0.1923
usemtl None
s 1
f 1/1/1 2/2/1 4/3/1 3/4/1
f 3/4/2 4/3/2 8/5/2 7/6/2
f 7/6/3 8/5/3 6/7/3 5/8/3
f 5/8/4 6/7/5 2/9/5 1/10/6
f 3/11/7 7/6/7 5/8/4 1/12/6
f 8/5/8 4/13/8 2/14/8 6/7/8
f 17/15/9 18/16/9 12/17/9 11/18/9
f 11/18/10 12/17/10 16/19/10 15/20/10
f 19/21/11 20/22/11 14/23/11 13/24/11
f 13/24/12 14/23/12 10/25/12 9/26/12
f 17/27/13 19/21/13 13/24/13 9/28/13
f 20/22/14 18/29/14 10/30/14 14/23/14
f 16/19/14 12/31/14 18/29/14 20/22/14
f 11/32/13 15/20/13 19/21/13 17/27/13
f 15/20/11 16/19/11 20/22/11 19/21/11
f 9/26/12 10/25/12 23/33/12 22/34/12
f 22/35/9 23/36/9 24/37/9 21/38/9
f 18/16/10 17/15/10 21/38/10 24/37/10
f 10/30/14 18/29/14 24/39/14 23/40/14
f 17/27/13 9/28/13 22/41/13 21/42/13
f 33/43/15 26/44/16 28/45/16 34/46/17
f 34/46/18 28/45/19 32/47/19 35/48/18
f 35/48/20 32/47/21 30/49/21 36/50/22
f 36/50/23 30/49/24 26/51/24 33/52/23
f 27/53/25 31/54/25 29/55/25 25/56/25
f 32/47/26 28/57/26 26/58/26 30/49/26
f 29/55/27 36/50/23 33/52/23 25/59/27
f 31/54/28 35/48/20 36/50/22 29/55/28
f 27/60/29 34/46/18 35/48/18 31/54/29
f 25/61/30 33/43/15 34/46/17 27/60/30
