# Blender v2.93.1 OBJ File: 'theboneshaker.blend'
# www.blender.org
mtllib deftheboneshaker.mtl
o Cylinder.001
v -0.570562 -0.099500 -0.080490
v -0.731541 -0.156415 -0.056915
v -0.731541 -0.099500 -0.080490
v -0.570562 -0.156415 -0.056915
v -0.731541 -0.179990 -0.000000
v -0.570562 -0.179990 -0.000000
v -0.731541 -0.156415 0.056915
v -0.570562 -0.156415 0.056915
v -0.731541 -0.099500 0.080490
v -0.570562 -0.099500 0.080490
v -0.731541 -0.042585 0.056915
v -0.570562 -0.042585 0.056915
v -0.731541 -0.019010 -0.000000
v -0.570562 -0.019010 -0.000000
v -0.731541 -0.042585 -0.056915
v -0.570562 -0.042585 -0.056915
v -0.781182 -0.184115 -0.000000
v -0.781182 -0.039668 0.059832
v -0.788205 -0.042412 -0.000000
v -0.788205 -0.059133 0.040367
v -0.781182 -0.014885 -0.000000
v -0.781182 -0.099500 0.084615
v -0.781182 -0.159332 0.059832
v -0.781182 -0.159332 -0.059832
v -0.781182 -0.099500 -0.084615
v -0.781182 -0.039668 -0.059832
v -0.788205 -0.139867 -0.040367
v -0.734425 -0.099500 -0.057088
v -0.788205 -0.099500 -0.057088
v -0.788205 -0.099500 0.057088
v -0.788205 -0.139867 0.040367
v -0.788205 -0.156588 -0.000000
v -0.788205 -0.059133 -0.040367
v -0.734425 -0.139867 0.040367
v -0.734425 -0.059133 0.040367
v -0.734425 -0.059133 -0.040367
v -0.734425 -0.139867 -0.040367
v -0.734425 -0.042412 -0.000000
v -0.734425 -0.099500 0.057088
v -0.734425 -0.156588 -0.000000
v -0.497293 0.313072 -0.038642
v -0.566503 0.319578 -0.039655
v -0.566503 0.313072 -0.038642
v -0.497293 0.281727 -0.025768
v -0.566503 0.285266 -0.034312
v -0.566503 0.281727 -0.025768
v -0.497293 0.281727 0.025768
v -0.566503 0.271053 0.000000
v -0.566503 0.281727 0.025768
v -0.497293 0.313072 0.038642
v -0.566503 0.285266 0.034312
v -0.566503 0.313072 0.038642
v -0.566503 0.335607 0.037865
v -0.566503 0.358142 0.035349
v -0.497293 0.358142 0.035349
v -0.566503 0.335607 -0.037865
v -0.497293 0.319578 -0.039655
v -0.497293 0.335607 -0.037865
v -0.602600 0.062850 0.000000
v -0.564962 -0.008180 -0.036745
v -0.602600 -0.008180 -0.000000
v -0.564962 0.062850 -0.036745
v 0.949884 -0.008180 -0.036745
v 0.987522 0.062850 0.000000
v 0.949884 -0.008180 0.036745
v 0.987522 -0.008180 -0.000000
v 0.949884 0.062850 0.036745
v -0.564962 -0.008180 0.036745
v 0.949884 0.062850 -0.036745
v -0.564962 0.062850 0.036745
v -0.606775 -0.082716 0.133689
v -0.572854 -0.045970 -0.134926
v -0.606775 -0.082716 -0.134926
v -0.572854 -0.045970 0.133689
v -0.379477 -0.045970 -0.134926
v -0.345557 -0.082716 0.133689
v -0.379477 -0.119461 -0.134926
v -0.345557 -0.082716 -0.134926
v -0.379477 -0.119461 0.133689
v -0.572854 -0.119461 -0.134926
v -0.572854 -0.119461 0.133689
v -0.379477 -0.045970 0.133689
v 0.853168 0.383145 0.043611
v 0.853168 0.383145 -0.043611
v 0.849833 0.365267 0.000000
v 0.832302 0.271288 -0.043611
v 0.832302 0.271288 0.043611
v 0.836639 0.294539 0.000000
v 0.890402 0.271288 -0.043611
v 0.890402 0.383145 -0.043611
v 0.890402 0.383145 0.043611
v 0.890402 0.365267 0.000000
v 0.890402 0.271288 0.043611
v 0.890402 0.294539 0.000000
v 0.843236 0.329903 -0.035364
v 0.890402 0.304897 -0.025006
v 0.890402 0.329903 -0.035364
v 0.838571 0.304897 -0.025006
v 0.838571 0.304897 0.025006
v 0.843236 0.329903 0.035364
v 0.890402 0.304897 0.025006
v 0.847901 0.354909 0.025006
v 0.890402 0.329903 0.035364
v 0.890402 0.354909 0.025006
v 0.890402 0.354909 -0.025006
v 0.847901 0.354909 -0.025006
v 0.088909 0.284485 0.000000
v 0.122829 0.258253 -0.036745
v 0.088909 0.258253 0.000000
v 0.122829 0.284485 -0.036745
v 0.704900 0.258253 -0.036745
v 0.738821 0.284485 0.000000
v 0.704900 0.258253 0.036745
v 0.738821 0.258253 0.000000
v 0.704900 0.284485 0.036745
v 0.122829 0.258253 0.036745
v 0.704900 0.284485 -0.036745
v 0.122829 0.284485 0.036745
v -0.544756 0.325035 0.002983
v -0.544756 0.314673 -0.004560
v -0.544756 0.314673 0.004560
v -0.544756 0.325035 -0.002983
v -0.519005 0.314673 -0.004560
v -0.519005 0.325035 -0.002983
v -0.519005 0.314673 0.004560
v -0.519005 0.325035 0.002983
v -0.519005 0.264576 -0.004560
v -0.544756 0.264576 0.004560
v -0.544756 0.264576 -0.004560
v -0.519005 0.264576 0.004560
v -0.586604 -0.074895 -0.000000
v -0.552685 -0.295856 -0.036745
v -0.586604 -0.295856 -0.000000
v -0.552685 -0.074895 -0.036745
v -0.067453 -0.295856 -0.036745
v -0.033532 -0.074895 -0.000000
v -0.067453 -0.295856 0.036745
v -0.033532 -0.295856 -0.000000
v -0.067453 -0.074895 0.036745
v -0.552685 -0.295856 0.036745
v -0.067453 -0.074895 -0.036745
v -0.552685 -0.074895 0.036745
v -0.514930 -0.002562 -0.102686
v -0.514930 0.010967 -0.094196
v -0.514930 -0.022129 -0.032027
v -0.514930 -0.056857 -0.050515
v 0.077557 -0.022129 -0.032027
v 0.077557 -0.056857 -0.050515
v 0.880191 -0.195140 -0.114357
v 0.880191 -0.030545 0.042977
v 0.880191 -0.195140 0.042977
v 1.211486 -0.030545 0.042977
v 1.211486 -0.195140 0.042977
v 1.211486 -0.030545 -0.114357
v 1.211486 -0.195140 -0.114357
v 0.880191 -0.030545 -0.114357
v -0.090104 0.015487 -0.102686
v -0.059068 0.016528 -0.104642
v 0.077557 0.016528 -0.104642
v 0.077557 -0.022870 -0.114357
v -0.147392 -0.022870 -0.114357
v -0.224068 -0.025591 -0.109246
v -0.497293 0.285266 -0.034312
v -0.497293 0.271053 0.000000
v -0.497293 0.285266 0.034312
v -0.566503 0.319578 0.039655
v -0.497293 0.319578 0.039655
v -0.497293 0.335607 0.037865
v -0.497293 0.358142 -0.035349
v -0.566503 0.358142 -0.035349
v -0.514930 -0.025591 -0.109246
v -0.224068 0.010967 -0.094196
v 0.077557 0.000929 -0.114357
v -0.059068 -0.022870 -0.114357
v -0.626409 -0.077331 0.122900
v -0.626409 -0.227005 -0.122900
v -0.626409 -0.227005 0.122900
v -0.626409 -0.077331 -0.122900
v -0.035922 -0.227005 -0.122900
v 0.082766 -0.248353 -0.116570
v -0.035922 -0.248353 -0.116570
v -0.035922 -0.077331 0.122900
v -0.035922 -0.227005 0.122900
v -0.035922 -0.269701 -0.083789
v -0.626409 -0.269701 0.083789
v -0.626409 -0.269701 -0.083789
v -0.035922 -0.077331 -0.122900
v -0.626409 -0.248353 0.116570
v -0.035922 -0.248353 0.116570
v 0.082766 -0.227005 -0.122900
v -0.626409 -0.248353 -0.116570
v -0.035922 -0.269701 0.083789
v 0.082766 -0.077331 -0.122900
v 0.082766 -0.227005 0.122900
v 0.082766 -0.248353 0.116570
v 0.082766 -0.077331 0.122900
v 1.791276 0.037073 0.054811
v 1.791276 0.002200 -0.112216
v 1.791276 0.002200 0.112216
v 1.791276 0.037073 -0.054811
v 1.957690 0.002200 -0.112216
v 1.957690 0.037073 -0.054811
v 1.957690 0.002200 0.112216
v 1.957690 0.037073 0.054811
v 1.962674 -0.484838 -0.120529
v 1.791276 -0.532782 -0.092765
v 1.791276 -0.484838 -0.120529
v 1.950061 -0.032673 0.120529
v 1.791276 -0.368894 0.120529
v 1.950061 -0.368894 0.120529
v 1.950061 -0.032673 -0.120529
v 1.950061 -0.368894 -0.120529
v 1.791276 -0.032673 -0.120529
v 1.791276 -0.368894 -0.120529
v 1.791276 -0.032673 0.120529
v 1.962674 -0.532782 -0.092765
v 1.791276 -0.532782 0.092765
v 1.791276 -0.484838 0.120529
v 1.962674 -0.484838 0.120529
v 1.962674 -0.532782 0.092765
v 0.416037 -0.237380 -0.086287
v 0.528709 -0.209792 0.097592
v 0.528709 -0.209792 -0.086287
v 0.532760 -0.327895 0.097592
v 0.416037 -0.237380 0.097592
v 0.414657 -0.355483 0.097592
v 0.414657 -0.355483 -0.086287
v 0.711608 -0.553770 -0.086287
v 0.608972 -0.630699 0.097592
v 0.608972 -0.630699 -0.086287
v 0.670350 -0.182204 -0.086287
v 0.650863 -0.300307 0.097592
v 0.650863 -0.300307 -0.086287
v 0.532760 -0.327895 -0.086287
v 0.671457 -0.388470 -0.086287
v 0.553354 -0.416058 -0.086287
v 0.671457 -0.388470 0.097592
v 0.435251 -0.443646 -0.086287
v 0.435251 -0.443646 0.097592
v 0.553354 -0.416058 0.097592
v 0.474148 -0.593760 0.097592
v 0.592251 -0.566172 0.097592
v 0.474148 -0.593760 -0.086287
v 0.699538 -0.504076 0.097592
v 0.699538 -0.504076 -0.086287
v 0.592251 -0.566172 -0.086287
v 0.472360 -0.658287 0.097592
v 0.472360 -0.658287 -0.086287
v 0.670350 -0.182204 0.097592
v 0.711608 -0.553770 0.097592
v 0.850244 -0.238438 0.074235
v 0.850244 -0.306666 -0.074235
v 0.850244 -0.306666 0.074235
v 1.223274 -0.238438 -0.074235
v 1.223274 -0.341087 -0.074235
v 1.305689 -0.238438 0.074235
v 1.388105 -0.238438 -0.074235
v 1.305689 -0.238438 -0.074235
v 1.223274 -0.238438 0.074235
v 1.223274 -0.341087 0.074235
v 1.223274 -0.386909 0.074235
v 0.847872 -0.356451 0.080900
v 1.220903 -0.406237 0.080900
v 0.850244 -0.238438 -0.074235
v 1.485498 -0.238438 -0.074235
v 1.582892 -0.309641 -0.074235
v 1.485498 -0.309641 -0.074235
v 1.388105 -0.309641 -0.074235
v 1.305689 -0.341087 -0.074235
v 1.305689 -0.341087 0.074235
v 1.388105 -0.341425 0.074235
v 1.388105 -0.309641 0.074235
v 1.305689 -0.386909 -0.074235
v 1.305689 -0.386909 0.074235
v 1.223274 -0.386909 -0.074235
v 1.388105 -0.238438 0.074235
v 1.388105 -0.341425 -0.074235
v 1.485498 -0.341425 -0.074235
v 1.582892 -0.406805 -0.074235
v 0.850244 -0.337123 0.074235
v 0.850244 -0.337123 -0.074235
v 1.220903 -0.406237 -0.080900
v 0.847872 -0.356451 -0.080900
v 1.582892 -0.238438 0.074235
v 1.643631 -0.238438 -0.074235
v 1.582892 -0.238438 -0.074235
v 1.643631 -0.309641 -0.074235
v 1.485498 -0.341425 0.074235
v 1.582892 -0.309641 0.074235
v 1.485498 -0.309641 0.074235
v 1.582892 -0.406805 0.074235
v 1.485498 -0.238438 0.074235
v 1.772346 -0.518948 -0.074235
v 1.643631 -0.518948 -0.074235
v 1.643631 -0.238438 0.074235
v 1.772346 -0.238438 -0.074235
v 1.643631 -0.309641 0.074235
v 1.643631 -0.518948 0.074235
v 1.772346 -0.309641 0.074235
v 1.772346 -0.309641 -0.074235
v 1.772346 -0.518948 0.074235
v 1.772346 -0.238438 0.074235
v 1.714255 0.046798 0.088055
v 1.622875 0.016516 0.117938
v 1.714255 0.016516 0.117938
v 1.714255 0.046798 -0.088055
v 1.835209 0.016516 -0.117938
v 1.714255 0.016516 -0.117938
v 1.835209 0.046798 -0.088055
v 1.835209 0.016516 0.117938
v 1.835209 0.046798 0.088055
v 1.835209 -0.545162 -0.096936
v 1.714255 -0.545162 0.096936
v 1.714255 -0.545162 -0.096936
v 1.835209 -0.013766 0.126974
v 1.714255 -0.258604 0.126974
v 1.835209 -0.258604 0.126974
v 1.835209 -0.013766 -0.126974
v 1.835209 -0.258604 -0.126974
v 1.714255 -0.013766 -0.126974
v 1.714255 -0.258604 -0.126974
v 1.622875 -0.258604 -0.126974
v 1.714255 -0.013766 0.126974
v 1.622875 -0.013766 0.126974
v 1.714255 -0.503442 0.126974
v 1.714255 -0.503442 -0.126974
v 1.835209 -0.503442 -0.126974
v 1.835209 -0.545162 0.096936
v 1.835209 -0.503442 0.126974
v 1.622875 0.046798 0.088055
v 1.622875 0.016516 -0.117938
v 1.622875 -0.258604 0.126974
v 1.622875 -0.013766 -0.126974
v 1.622875 0.046798 -0.088055
v 0.658447 0.273261 -0.047675
v 0.116978 0.273261 0.047675
v 0.658447 0.273261 0.047675
v 0.663452 0.239226 -0.058757
v 0.904066 0.273261 -0.047675
v 0.913399 0.239226 -0.058757
v 0.913399 0.239226 0.058757
v 0.904066 0.273261 0.047675
v 0.663452 0.239226 0.058757
v 0.922731 0.022934 -0.080368
v 0.702510 0.022934 0.080368
v 0.702510 0.022934 -0.080368
v 0.922731 0.205192 0.058757
v 0.702510 0.158326 0.058757
v 0.922731 0.158326 0.058757
v 0.922731 0.205192 -0.058757
v 0.922731 0.158326 -0.058757
v 0.702510 0.158326 -0.058757
v 0.668456 0.205192 0.058757
v 0.053718 0.239226 0.058757
v 0.116978 0.239226 0.058757
v 0.116978 0.205192 -0.058757
v 0.116978 0.239226 -0.058757
v 0.668456 0.205192 -0.058757
v 0.702510 0.090740 -0.058757
v 0.702510 0.090740 0.058757
v 0.922731 0.090740 -0.058757
v 0.922731 0.090740 0.058757
v 0.116978 0.205192 0.058757
v 0.116978 0.273261 -0.047675
v 0.053718 0.239226 -0.058757
v 0.053718 0.273261 0.047675
v 0.053718 0.205192 -0.058757
v 0.053718 0.205192 0.058757
v 0.116978 0.070119 -0.058757
v 0.053718 0.045244 -0.073947
v 0.053718 0.070119 -0.058757
v 0.053718 0.273261 -0.047675
v 0.116978 0.045244 0.073947
v 0.116978 0.045244 -0.073947
v 0.053718 0.070119 0.058757
v 0.053718 0.045244 0.073947
v 0.116978 0.070119 0.058757
v 0.922731 0.022934 0.080368
v -0.566503 0.358142 -0.041317
v -0.566503 0.358142 0.041317
v -0.566503 0.335607 0.048291
v -0.497293 0.335607 -0.048291
v -0.566503 0.335607 -0.048291
v -0.497293 0.358142 0.041317
v -0.497293 0.358142 -0.041317
v -0.497293 0.335607 0.048291
v -0.497293 -0.112532 -0.026772
v -0.566503 -0.112532 0.026772
v -0.566503 -0.112532 -0.026772
v -0.497293 0.233496 0.026772
v -0.497293 -0.112532 0.026772
v -0.497293 0.233496 -0.026772
v -0.566503 0.233496 -0.026772
v -0.566503 0.233496 0.026772
v -0.497293 0.281727 0.052345
v -0.566503 0.281727 -0.052345
v -0.497293 0.313072 0.052036
v -0.566503 0.281727 0.052345
v -0.497293 0.281727 -0.052345
v -0.566503 0.313072 -0.052036
v -0.566503 0.313072 0.052036
v -0.497293 0.313072 -0.052036
v -0.617733 0.038408 0.076977
v -0.617733 -0.002562 -0.102686
v -0.617733 -0.002562 0.102686
v 0.856610 0.038408 -0.076977
v 1.785931 0.019668 -0.102686
v 0.856610 0.019668 -0.102686
v 1.785931 0.038408 -0.076977
v 1.785931 0.019668 0.102686
v -0.224068 0.038408 0.076977
v -0.224068 -0.002562 0.102686
v 1.785931 -0.273027 -0.099225
v 0.856610 -0.273027 0.099225
v 0.856610 -0.273027 -0.099225
v -0.617733 0.038408 -0.076977
v -0.224068 0.038408 -0.076977
v -0.224068 -0.043531 0.114357
v -0.617733 -0.183690 0.114357
v -0.224068 -0.183690 0.114357
v 1.785931 0.000929 -0.114357
v 1.785931 -0.198356 0.114357
v 1.785931 -0.198356 -0.114357
v 0.856610 -0.198356 -0.114357
v -0.617733 -0.043531 0.114357
v -0.617733 -0.183690 -0.114357
v -0.617733 -0.043531 -0.114357
v -0.224068 -0.183690 -0.114357
v -0.059068 -0.171571 0.114357
v -0.059068 0.038408 0.076977
v -0.059068 0.038408 -0.076977
v -0.224068 -0.236206 -0.099225
v -0.617733 -0.236206 0.099225
v -0.617733 -0.236206 -0.099225
v -0.059068 0.019668 0.102686
v 0.748726 0.038408 0.076977
v 0.748726 0.019668 0.102686
v 0.748726 0.038408 -0.076977
v 0.748726 0.000929 0.114357
v 0.748726 -0.171571 0.114357
v -0.059068 -0.171571 -0.114357
v -0.059068 -0.236206 -0.099225
v -0.224068 -0.236206 0.099225
v 0.856610 0.000929 0.114357
v 0.856610 -0.198356 0.114357
v 0.856610 0.038408 0.076977
v 0.856610 0.019668 0.102686
v 0.748726 0.000929 -0.114357
v 0.748726 -0.171571 -0.114357
v 0.748726 -0.236206 -0.099225
v -0.059068 -0.236206 0.099225
v 0.748726 0.019668 -0.102686
v -0.059068 0.019668 -0.102686
v 1.785931 0.038408 0.076977
v 1.785931 0.000929 0.114357
v 0.856610 0.000929 -0.114357
v 0.748726 -0.236206 0.099225
v 1.785931 -0.273027 0.099225
v -0.224068 -0.043531 -0.114357
v -0.059068 0.000929 0.114357
vt 1.000000 1.000000
vt 0.875000 0.500000
vt 1.000000 0.500000
vt 0.875000 1.000000
vt 0.750000 0.500000
vt 0.750000 1.000000
vt 0.625000 0.500000
vt 0.625000 1.000000
vt 0.500000 0.500000
vt 0.500000 1.000000
vt 0.375000 0.500000
vt 0.375000 1.000000
vt 0.250000 0.500000
vt 0.419706 0.080294
vt 0.490000 0.250000
vt 0.010000 0.250000
vt 0.250000 1.000000
vt 0.125000 0.500000
vt 0.125000 1.000000
vt 0.000000 0.500000
vt 0.750000 0.500000
vt 0.375000 0.500000
vt 0.250000 0.500000
vt 0.375000 0.500000
vt 0.250000 0.500000
vt 0.500000 0.500000
vt 0.625000 0.500000
vt 0.875000 0.500000
vt 0.000000 0.500000
vt 0.125000 0.500000
vt 1.000000 0.500000
vt 0.875000 0.500000
vt 1.000000 0.500000
vt 1.000000 0.500000
vt 0.500000 0.500000
vt 0.625000 0.500000
vt 0.750000 0.500000
vt 0.000000 0.500000
vt 0.125000 0.500000
vt 0.919706 0.080294
vt 0.580294 0.080294
vt 0.580294 0.419706
vt 0.125000 0.500000
vt 0.375000 0.500000
vt 0.625000 0.500000
vt 0.875000 0.500000
vt 0.250000 0.500000
vt 0.500000 0.500000
vt 0.750000 0.500000
vt 0.419706 0.419706
vt 0.250000 0.490000
vt 0.080294 0.419706
vt 0.080294 0.080294
vt 0.250000 0.010000
vt 0.000000 1.000000
vt 0.750000 0.490000
vt 0.919706 0.419706
vt 0.990000 0.250000
vt 0.750000 0.010000
vt 0.510000 0.250000
vt 0.000000 0.500000
vt 0.976299 0.859862
vt 1.000000 0.655304
vt 0.976299 0.655304
vt 0.843872 0.859862
vt 0.875000 0.655304
vt 0.843872 0.655305
vt 0.656128 0.859861
vt 0.750000 0.655304
vt 0.656128 0.655303
vt 0.523701 0.859862
vt 0.625000 0.655304
vt 0.523701 0.655304
vt 0.458128 0.655304
vt 0.399261 0.655304
vt 0.399261 0.859862
vt 0.041872 0.655304
vt 0.000000 0.859862
vt 0.041872 0.859862
vt 0.625000 0.125000
vt 0.375000 0.250000
vt 0.375000 0.125000
vt 0.625000 0.250000
vt 0.375000 0.500000
vt 0.625000 0.625000
vt 0.375000 0.750000
vt 0.375000 0.625000
vt 0.625000 0.750000
vt 0.375000 1.000000
vt 0.125000 0.750000
vt 0.125000 0.625000
vt 0.875000 0.625000
vt 0.875000 0.500000
vt 0.625000 0.500000
vt 0.125000 0.500000
vt 0.625000 0.000000
vt 0.375000 0.000000
vt 0.625000 0.125000
vt 0.375000 0.250000
vt 0.375000 0.125000
vt 0.625000 0.250000
vt 0.375000 0.500000
vt 0.625000 0.625000
vt 0.375000 0.750000
vt 0.375000 0.625000
vt 0.625000 0.750000
vt 0.375000 1.000000
vt 0.125000 0.750000
vt 0.125000 0.625000
vt 0.875000 0.750000
vt 0.875000 0.500000
vt 0.625000 0.500000
vt 0.125000 0.500000
vt 0.625000 0.000000
vt 0.375000 0.000000
vt 0.625000 0.000000
vt 0.625000 0.250000
vt 0.585041 0.125000
vt 0.375000 0.250000
vt 0.375000 0.000000
vt 0.426966 0.125000
vt 0.375000 0.500000
vt 0.625000 0.500000
vt 0.625000 0.750000
vt 0.585041 0.625000
vt 0.375000 0.750000
vt 0.426966 0.625000
vt 0.625000 1.000000
vt 0.375000 1.000000
vt 0.125000 0.750000
vt 0.125000 0.500000
vt 0.875000 0.500000
vt 1.000000 0.585670
vt 0.875000 0.919107
vt 1.000000 0.919107
vt 0.875000 0.552694
vt 0.750000 0.919107
vt 0.625000 0.552694
vt 0.750000 0.539035
vt 0.500000 0.585670
vt 0.625000 0.919107
vt 0.375000 0.618646
vt 0.500000 0.919107
vt 0.250000 0.632305
vt 0.375000 0.919107
vt 0.125000 0.919107
vt 0.125000 0.618646
vt 0.000000 0.919107
vt 0.625000 0.125000
vt 0.375000 0.250000
vt 0.375000 0.125000
vt 0.625000 0.250000
vt 0.375000 0.500000
vt 0.625000 0.625000
vt 0.375000 0.750000
vt 0.375000 0.625000
vt 0.625000 0.750000
vt 0.375000 1.000000
vt 0.125000 0.625000
vt 0.125000 0.750000
vt 0.875000 0.625000
vt 0.625000 0.500000
vt 0.125000 0.500000
vt 0.625000 0.000000
vt 0.375000 0.000000
vt 0.625000 0.000000
vt 0.500000 0.250000
vt 0.500000 0.000000
vt 0.625000 0.250000
vt 0.500000 0.500000
vt 0.625000 0.500000
vt 0.500000 0.750000
vt 0.625000 0.750000
vt 0.500000 1.000000
vt 0.375000 0.500000
vt 0.125000 0.750000
vt 0.125000 0.500000
vt 0.875000 0.500000
vt 0.375000 1.000000
vt 0.375000 0.750000
vt 0.375000 0.250000
vt 0.375000 0.000000
vt 0.625000 0.125000
vt 0.375000 0.250000
vt 0.375000 0.125000
vt 0.625000 0.250000
vt 0.375000 0.500000
vt 0.625000 0.625000
vt 0.375000 0.750000
vt 0.375000 0.625000
vt 0.625000 0.750000
vt 0.375000 1.000000
vt 0.125000 0.625000
vt 0.125000 0.750000
vt 0.875000 0.625000
vt 0.625000 0.500000
vt 0.125000 0.500000
vt 0.625000 0.000000
vt 0.375000 0.000000
vt 0.523763 0.117273
vt 0.625000 0.115411
vt 0.625000 0.000000
vt 0.375000 1.000000
vt 0.625000 0.750000
vt 0.375000 0.750000
vt 0.375000 0.238971
vt 0.625000 0.000000
vt 0.375000 0.000000
vt 0.375000 1.000000
vt 0.625000 0.750000
vt 0.375000 0.750000
vt 0.625000 0.511029
vt 0.375000 0.511029
vt 0.125000 0.750000
vt 0.125000 0.511029
vt 0.875000 0.511029
vt 0.695744 0.618829
vt 0.682649 0.615198
vt 0.625000 0.615198
vt 0.375000 0.631484
vt 0.280083 0.631484
vt 0.247729 0.640971
vt 0.875000 0.859862
vt 1.000000 0.859862
vt 0.750000 0.859862
vt 0.625000 0.859862
vt 0.500000 0.655304
vt 0.500000 0.859862
vt 0.458128 0.859862
vt 0.100739 0.859862
vt 0.100739 0.655304
vt 0.000000 0.655304
vt 0.625000 1.000000
vt 0.875000 0.750000
vt 0.625000 1.000000
vt 0.875000 0.625000
vt 0.561892 0.196673
vt 0.561892 0.053327
vt 0.506004 0.226360
vt 0.506004 0.023639
vt 0.450116 0.196673
vt 0.450115 0.053327
vt 0.561892 0.553327
vt 0.561892 0.696673
vt 0.506004 0.726361
vt 0.506004 0.523640
vt 0.450116 0.696673
vt 0.450116 0.553327
vt 0.875000 0.750000
vt 0.250000 0.919107
vt 0.000000 0.585670
vt 0.625000 1.000000
vt 0.875000 0.750000
vt 0.875000 0.500000
vt 0.625000 1.000000
vt 0.875000 0.750000
vt 0.625000 1.000000
vt 0.875000 0.750000
vt 0.875000 0.500000
vt 0.375000 0.000000
vt 0.375000 0.109029
vt 0.625000 1.000000
vt 0.625000 0.238971
vt 0.625000 1.000000
vt 0.875000 0.750000
vt 0.875000 0.750000
vt 0.752271 0.634589
vt 0.875000 0.634589
vt 0.508492 0.613158
vt 0.125000 0.640971
vt 0.125000 0.750000
vt 0.317351 0.631484
vt 0.625000 0.000000
vt 0.430486 0.250000
vt 0.430486 0.000000
vt 0.625000 0.250000
vt 0.430486 0.500000
vt 0.402743 0.500000
vt 0.402743 0.500000
vt 0.625000 0.750000
vt 0.430486 1.000000
vt 0.430486 0.750000
vt 0.375000 0.500000
vt 0.125000 0.750000
vt 0.125000 0.500000
vt 0.875000 0.500000
vt 0.625000 0.500000
vt 0.402743 1.000000
vt 0.402743 0.750000
vt 0.430486 0.500000
vt 0.402743 0.250000
vt 0.402743 0.000000
vt 0.375000 0.250000
vt 0.375000 0.000000
vt 0.375000 0.750000
vt 0.375000 1.000000
vt 0.625000 0.500000
vt 0.430486 0.750000
vt 0.402743 0.750000
vt 0.625000 0.750000
vt 0.625000 0.000000
vt 0.608296 0.250000
vt 0.608296 0.000000
vt 0.625000 0.250000
vt 0.608296 0.500000
vt 0.625000 0.500000
vt 0.608296 0.750000
vt 0.625000 0.750000
vt 0.608296 1.000000
vt 0.375000 0.500000
vt 0.375000 0.250000
vt 0.375000 0.250000
vt 0.875000 0.500000
vt 0.591591 0.750000
vt 0.483296 1.000000
vt 0.483296 0.750000
vt 0.591591 0.500000
vt 0.483296 0.500000
vt 0.591591 0.250000
vt 0.483296 0.250000
vt 0.591591 0.000000
vt 0.483296 0.000000
vt 0.591591 1.000000
vt 0.375000 0.500000
vt 0.125000 0.750000
vt 0.125000 0.500000
vt 0.375000 0.000000
vt 0.375000 0.000000
vt 0.375000 0.750000
vt 0.375000 1.000000
vt 0.375000 0.750000
vt 0.875000 0.500000
vt 0.750000 0.750000
vt 0.750000 0.500000
vt 0.500000 0.875000
vt 0.625000 1.000000
vt 0.500000 1.000000
vt 0.625000 0.000000
vt 0.500000 0.250000
vt 0.500000 0.000000
vt 0.375000 0.500000
vt 0.250000 0.750000
vt 0.250000 0.500000
vt 0.625000 0.500000
vt 0.500000 0.750000
vt 0.500000 0.500000
vt 0.625000 0.375000
vt 0.500000 0.375000
vt 0.406689 0.500000
vt 0.406689 0.375000
vt 0.406689 0.750000
vt 0.406689 0.250000
vt 0.406689 0.000000
vt 0.406689 0.875000
vt 0.406689 1.000000
vt 0.384527 1.000000
vt 0.384527 0.875000
vt 0.384527 0.250000
vt 0.384527 0.000000
vt 0.384527 0.750000
vt 0.384527 0.500000
vt 0.384527 0.375000
vt 0.625000 0.250000
vt 0.125000 0.750000
vt 0.125000 0.500000
vt 0.625000 0.875000
vt 0.625000 0.750000
vt 0.375000 0.750000
vt 0.375000 0.875000
vt 0.375000 0.375000
vt 0.375000 0.250000
vt 0.375000 0.000000
vt 0.375000 1.000000
vt 0.625000 0.000000
vt 0.452155 0.250000
vt 0.452155 0.000000
vt 0.625000 0.500000
vt 0.452155 0.500000
vt 0.625000 0.750000
vt 0.625000 0.500000
vt 0.625000 0.500000
vt 0.625000 0.750000
vt 0.452155 1.000000
vt 0.452155 0.750000
vt 0.375000 0.750000
vt 0.375000 1.000000
vt 0.375000 0.750000
vt 0.875000 0.500000
vt 0.625000 0.500000
vt 0.452155 0.500000
vt 0.452155 0.500000
vt 0.452155 0.500000
vt 0.452155 0.500000
vt 0.452155 0.750000
vt 0.375000 0.750000
vt 0.452155 0.750000
vt 0.375000 0.500000
vt 0.375000 0.750000
vt 0.375000 0.500000
vt 0.625000 0.750000
vt 0.375000 0.500000
vt 0.375000 0.500000
vt 0.375000 0.500000
vt 0.375000 1.000000
vt 0.375000 0.250000
vt 0.375000 0.000000
vt 0.375000 0.500000
vt 0.125000 0.750000
vt 0.125000 0.500000
vt 0.375000 0.250000
vt 0.375000 0.000000
vt 0.625000 0.750000
vt 0.625000 0.500000
vt 0.625000 0.500000
vt 0.452155 0.500000
vt 0.375000 0.750000
vt 0.452155 0.750000
vt 0.452155 0.750000
vt 0.375000 0.750000
vt 0.625000 0.750000
vt 0.375000 0.500000
vt 0.375000 0.500000
vt 0.625000 0.750000
vt 0.625000 0.500000
vt 0.452155 0.750000
vt 0.375000 0.750000
vt 0.452155 0.750000
vt 0.452155 0.500000
vt 0.375000 0.750000
vt 0.625000 0.750000
vt 0.625000 1.000000
vt 0.608984 1.000000
vt 0.608984 1.000000
vt 0.625000 0.250000
vt 0.608984 0.500000
vt 0.608984 0.250000
vt 0.625000 0.500000
vt 0.608984 0.750000
vt 0.625000 0.750000
vt 0.375000 0.500000
vt 0.125000 0.750000
vt 0.125000 0.500000
vt 0.875000 0.500000
vt 0.599422 0.750000
vt 0.496021 1.000000
vt 0.496021 0.750000
vt 0.599422 0.500000
vt 0.496021 0.500000
vt 0.599422 0.250000
vt 0.496021 0.250000
vt 0.496021 0.000000
vt 0.496021 0.250000
vt 0.599422 1.000000
vt 0.599422 1.000000
vt 0.392620 0.000000
vt 0.375000 0.250000
vt 0.375000 0.000000
vt 0.392620 0.250000
vt 0.392620 0.500000
vt 0.375000 0.750000
vt 0.392620 0.750000
vt 0.375000 1.000000
vt 0.392620 1.000000
vt 0.625000 0.000000
vt 0.608984 0.250000
vt 0.612211 -0.011366
vt 0.599422 0.000000
vt 0.496021 0.000000
vt 0.599422 0.250000
vt 0.496021 1.000000
vt 0.625000 0.250000
vt 0.875000 0.750000
vt 0.875000 0.750000
vt 0.875000 0.500000
vt 0.875000 0.750000
vt 0.875000 0.750000
vt 0.591010 0.250000
vt 0.625000 0.500000
vt 0.591010 0.500000
vt 0.591010 0.750000
vt 0.625000 0.750000
vt 0.591010 1.000000
vt 0.375000 0.500000
vt 0.125000 0.750000
vt 0.125000 0.500000
vt 0.557021 0.750000
vt 0.510215 1.000000
vt 0.510215 0.750000
vt 0.557021 0.500000
vt 0.510215 0.500000
vt 0.510215 0.250000
vt 0.557021 0.000000
vt 0.510215 0.000000
vt 0.625000 1.000000
vt 0.591010 1.000000
vt 0.591010 1.000000
vt 0.557021 0.250000
vt 0.591010 0.250000
vt 0.625000 1.000000
vt 0.557021 0.250000
vt 0.442718 0.250000
vt 0.442718 0.000000
vt 0.442718 0.500000
vt 0.442718 0.750000
vt 0.442718 1.000000
vt 0.557021 1.000000
vt 0.557021 1.000000
vt 0.625000 0.250000
vt 0.625000 0.250000
vt 0.591010 0.250000
vt 0.625000 0.000000
vt 0.591010 0.000000
vt 0.557021 0.250000
vt 0.557021 0.000000
vt 0.557021 1.000000
vt 0.557021 0.250000
vt 0.557021 0.250000
vt 0.557021 0.250000
vt 0.875000 0.500000
vt 0.875000 0.750000
vt 0.625000 0.250000
vt 0.557021 0.000000
vt 0.557021 0.250000
vt 0.557021 0.000000
vt 0.557021 0.000000
vt 0.557021 1.000000
vt 0.557021 1.000000
vt 0.557021 1.000000
vt 0.375000 1.000000
vt 0.375000 0.750000
vt 0.375000 0.250000
vt 0.375000 0.000000
vt 0.557021 0.000000
vt 0.625000 0.250000
vt 0.622456 0.222086
vt 0.625000 0.231945
vt 0.625000 0.000000
vt 0.610958 0.019329
vt 0.609375 -0.008585
vt 0.624039 0.500000
vt 0.624039 0.250000
vt 0.625000 0.750000
vt 0.624039 0.723013
vt 0.625000 0.731945
vt 0.624039 0.526987
vt 0.625000 0.500000
vt 0.625000 0.518055
vt 0.624039 1.000000
vt 0.624039 0.750000
vt 0.375000 0.500000
vt 0.125000 0.750000
vt 0.125000 0.500000
vt 0.875000 0.750000
vt 0.875000 0.731945
vt 0.875000 0.518055
vt 0.500000 0.750000
vt 0.375000 1.000000
vt 0.375000 0.750000
vt 0.500000 0.500000
vt 0.500000 0.250000
vt 0.375000 0.250000
vt 0.500000 0.000000
vt 0.375000 0.000000
vt 0.621154 0.750000
vt 0.500000 1.000000
vt 0.621154 0.563467
vt 0.594343 0.625000
vt 0.621154 0.250000
vt 0.571506 0.111630
vt 0.606264 0.177815
vt 0.623077 0.750000
vt 0.621154 1.000000
vt 0.621371 0.706992
vt 0.621371 0.543008
vt 0.621154 0.500000
vt 0.623077 0.250000
vt 0.611847 0.201416
vt 0.593750 -0.017170
vt 0.597524 0.017216
vt 0.575553 0.016183
vt 0.623077 1.000000
vt 0.623077 0.717824
vt 0.623355 0.722389
vt 0.623355 0.527611
vt 0.623077 0.500000
vt 0.619303 0.215615
vt 0.620496 0.220715
vt 0.601120 0.014594
vt 0.625000 0.000000
vt 0.607940 0.250000
vt 0.607940 0.000000
vt 0.625000 0.434898
vt 0.607940 0.500000
vt 0.607940 0.434898
vt 0.625000 0.500000
vt 0.607940 0.750000
vt 0.625000 0.963973
vt 0.607940 1.000000
vt 0.607940 0.963973
vt 0.375000 0.500000
vt 0.309898 0.750000
vt 0.309898 0.500000
vt 0.875000 0.500000
vt 0.838973 0.750000
vt 0.838973 0.500000
vt 0.590881 0.963973
vt 0.433842 1.000000
vt 0.433842 0.963973
vt 0.590881 0.500000
vt 0.433842 0.750000
vt 0.433842 0.500000
vt 0.433842 0.434898
vt 0.566079 0.436550
vt 0.436376 0.436550
vt 0.590881 0.000000
vt 0.433842 0.250000
vt 0.433842 0.000000
vt 0.590881 0.250000
vt 0.433842 0.286027
vt 0.433842 0.944663
vt 0.819663 0.750000
vt 0.819663 0.500000
vt 0.161027 0.500000
vt 0.125000 0.750000
vt 0.125000 0.500000
vt 0.607940 0.944663
vt 0.625000 0.286027
vt 0.613574 0.286027
vt 0.613574 0.259408
vt 0.625000 0.830367
vt 0.607940 0.830367
vt 0.705367 0.750000
vt 0.705367 0.500000
vt 0.590880 0.830367
vt 0.433842 0.830367
vt 0.590881 0.295001
vt 0.569215 0.305337
vt 0.433842 0.305337
vt 0.180337 0.500000
vt 0.161027 0.750000
vt 0.590881 0.815102
vt 0.433842 0.815102
vt 0.690102 0.750000
vt 0.690102 0.500000
vt 0.625000 0.815102
vt 0.607940 0.815102
vt 0.569215 0.324668
vt 0.590881 0.419633
vt 0.433842 0.419633
vt 0.294633 0.500000
vt 0.180337 0.750000
vt 0.625000 0.305337
vt 0.607940 0.419633
vt 0.607940 0.305337
vt 0.625000 0.750000
vt 0.590881 0.750000
vt 0.590881 0.434898
vt 0.294633 0.750000
vt 0.625000 0.419633
vt 0.375000 0.419633
vt 0.375000 0.434898
vt 0.375000 0.815102
vt 0.375000 0.750000
vt 0.375000 0.305337
vt 0.375000 0.830367
vt 0.375000 0.286027
vt 0.375000 0.944663
vt 0.375000 0.963973
vt 0.375000 0.250000
vt 0.375000 0.000000
vt 0.375000 1.000000
vt 0.590881 0.286027
vt 0.598351 0.286027
vt 0.590881 0.944663
vt 0.598351 0.259408
vt 0.590881 1.000000
vt 0.566079 0.459758
vt 0.605082 0.305337
vt 0.607940 0.301705
vt 0.605082 0.324668
vt 0.625000 1.000000
vt 0.875000 0.750000
vt 0.625000 1.000000
vt 0.875000 0.750000
vt 0.375000 1.000000
vt 0.875000 0.750000
vt 0.625000 0.250000
vt 0.625000 1.000000
vt 0.875000 0.750000
vt 0.625000 1.000000
vt 0.875000 0.500000
vt 0.625000 1.000000
vt 0.875000 0.500000
vt 0.557021 1.000000
vt 0.557021 0.000000
vt 0.625000 0.018055
vt 0.625000 1.000000
vt 0.875000 0.500000
vt 0.621154 0.686533
vt 0.562500 -0.034340
vt 0.577390 0.037845
vt 0.623077 0.532176
vt 0.625000 0.250000
vt 0.625000 1.000000
vt 0.875000 0.750000
vt 0.436376 0.459758
vt 0.625000 0.944663
vt 0.607940 0.259408
vt 0.590881 0.324668
vn 0.0000 0.0000 -1.0000
vn 0.0419 -0.7065 -0.7065
vn 0.0419 0.0000 -0.9991
vn 0.0000 -0.7071 -0.7071
vn 0.0419 -0.9991 -0.0000
vn 0.0000 -1.0000 -0.0000
vn 0.0419 -0.7065 0.7065
vn 0.0000 -0.7071 0.7071
vn 0.0419 -0.0000 0.9991
vn 0.0000 -0.0000 1.0000
vn 0.0419 0.7065 0.7065
vn 0.0000 0.7071 0.7071
vn 0.0419 0.9991 0.0000
vn 1.0000 0.0000 0.0000
vn 0.0000 1.0000 0.0000
vn 0.0419 0.7065 -0.7065
vn 0.0000 0.7071 -0.7071
vn 0.0828 -0.9966 -0.0000
vn -0.9690 0.1748 0.1748
vn -0.9690 0.2472 0.0000
vn 0.0828 0.9966 -0.0000
vn 0.0828 0.7047 0.7047
vn 0.0828 -0.0000 0.9966
vn 0.0828 -0.7047 0.7047
vn 0.0828 -0.7047 -0.7047
vn 0.0828 0.0000 -0.9966
vn 0.0828 0.7047 -0.7047
vn -0.9690 -0.1748 0.1748
vn -0.9690 -0.0000 0.2472
vn -0.9690 -0.1748 -0.1748
vn -0.9690 -0.2472 -0.0000
vn -0.9690 0.1748 -0.1748
vn -0.9690 -0.0000 -0.2472
vn -1.0000 -0.0000 0.0000
vn 0.0000 0.1538 0.9881
vn 0.0000 0.9239 0.3827
vn 0.0000 0.9239 -0.3827
vn 0.0000 0.1539 -0.9881
vn 0.0000 -0.1110 -0.9938
vn 0.0000 -0.1110 0.9938
vn -0.6986 0.0000 -0.7155
vn 0.6986 0.0000 0.7155
vn 0.6986 0.0000 -0.7155
vn -0.6986 0.0000 0.7155
vn -0.7348 0.6783 0.0000
vn 0.7348 -0.6783 -0.0000
vn 0.7348 0.6783 0.0000
vn -0.7348 -0.6783 -0.0000
vn -0.9830 0.1834 0.0000
vn 0.0000 0.3827 0.9239
vn 0.0000 0.3827 -0.9239
vn 0.0000 -0.3827 -0.9239
vn 0.0000 -0.9239 -0.3827
vn 0.0000 -0.9239 0.3827
vn 0.0000 -0.3827 0.9239
vn -0.7348 0.0000 -0.6783
vn 0.7348 -0.0000 0.6783
vn 0.7348 0.0000 -0.6783
vn -0.7348 0.0000 0.6783
vn 0.0000 0.1505 -0.9886
vn 0.0000 0.1505 0.9886
vn 0.0000 0.4699 -0.8827
vn -0.0000 -0.8827 -0.4699
vn -0.0000 0.8827 0.4699
vn 0.0000 0.1539 0.9881
vn 0.0000 0.1538 -0.9881
vn 0.0000 -0.1436 -0.9896
vn 0.0000 -0.2843 -0.9587
vn 0.0000 -0.4959 -0.8684
vn 0.0000 -0.1436 0.9896
vn 0.0000 -0.9586 -0.2846
vn 0.0000 -0.9586 0.2846
vn 0.0000 -0.5979 0.8016
vn 0.0000 -0.4959 0.8684
vn 0.0000 -0.5979 -0.8016
vn 0.0000 0.9630 -0.2696
vn 0.0000 0.8547 -0.5192
vn 0.9864 -0.1647 -0.0000
vn 0.0000 0.9630 0.2696
vn 0.0000 0.8547 0.5192
vn 0.0000 -0.2687 -0.9632
vn 0.0000 -0.5011 -0.8654
vn 0.0000 -0.2594 -0.9658
vn 0.0000 0.1240 0.9923
vn 0.9951 -0.0990 -0.0000
vn 0.9985 0.0542 0.0000
vn 0.0000 0.1167 -0.9932
vn 0.0000 0.2319 0.9727
vn 0.0000 0.1167 0.9932
vn 0.0000 0.2319 -0.9727
vn 0.0000 0.1240 -0.9923
vn 0.9979 0.0650 0.0000
vn 0.0000 -0.2594 0.9658
vn 0.0000 -0.5011 0.8654
vn 0.0000 -0.2687 0.9632
vn -0.2378 0.9713 0.0000
vn -0.2146 0.9767 0.0000
vn -0.9999 0.0117 0.0000
vn -0.9941 -0.1087 0.0000
vn 0.5998 -0.8002 0.0000
vn 0.4089 -0.9126 0.0000
vn 0.9867 -0.1628 -0.0000
vn 0.9995 0.0330 0.0000
vn 0.9728 0.2318 0.0000
vn -0.9710 -0.2392 -0.0000
vn -0.9936 -0.1127 -0.0000
vn 0.9717 0.2360 0.0000
vn 0.1979 -0.9802 0.0000
vn -0.1912 0.9816 0.0000
vn -0.9996 0.0277 0.0000
vn 0.0149 0.1119 0.9936
vn 0.0428 0.3210 0.9461
vn 0.2495 -0.9684 0.0000
vn 0.0149 0.1119 -0.9936
vn 0.0208 0.1556 0.9876
vn 0.0208 0.1556 -0.9876
vn -0.9978 0.0668 0.0000
vn -0.1323 -0.9912 0.0000
vn 0.0428 0.3210 -0.9461
vn -0.9926 0.1218 0.0000
vn 0.9926 -0.1218 0.0000
vn 0.9926 -0.1217 0.0000
vn -0.2913 -0.9566 0.0000
vn -0.7398 -0.6728 0.0000
vn -0.8793 -0.4763 0.0000
vn 0.0000 0.7024 0.7118
vn 0.0000 0.5093 0.8606
vn 0.0000 0.7024 -0.7118
vn 0.0000 0.5093 -0.8606
vn 0.0000 0.1445 0.9895
vn 0.0000 0.1445 -0.9895
vn 0.0000 -0.3070 -0.9517
vn 0.0000 -0.5843 -0.8115
vn 0.0000 -0.3070 0.9517
vn 0.0000 -0.5843 0.8115
vn 0.0000 0.1567 -0.9876
vn 0.0000 0.3096 -0.9509
vn 0.0000 0.1307 -0.9914
vn 0.9644 0.2645 0.0000
vn 0.9644 0.2644 0.0000
vn 0.0000 0.3096 0.9509
vn 0.0000 0.1567 0.9876
vn 0.0000 0.1307 0.9914
vn 0.9911 0.1334 0.0000
vn -0.8090 -0.5878 -0.0000
vn -0.9510 -0.3090 -0.0000
vn 0.0000 0.1537 -0.9881
vn 0.0000 0.1537 0.9881
vn 0.0000 0.2707 -0.9627
vn 0.0000 0.5212 -0.8535
vn 0.0000 0.2707 0.9627
vn 0.0000 0.5212 0.8535
vn 0.0000 0.3037 0.9528
vn 0.0000 0.3037 -0.9528
vn 0.0000 0.2956 -0.9553
vn 0.0000 0.2303 -0.9731
vn 0.0000 0.2956 0.9553
vn 0.0000 0.2303 0.9731
vn 0.0000 -0.2414 0.9704
vn 0.0000 -0.2414 -0.9704
vn 0.0000 -0.2366 0.9716
vn 0.0000 -0.2366 -0.9716
vn 0.0000 0.0872 0.9962
vn 0.0000 0.0872 -0.9962
vn 0.0000 0.9508 -0.3098
vn 0.0000 0.6809 -0.7324
vn -0.0220 0.5935 0.8045
vn 0.0000 0.4068 0.9135
vn -0.0304 0.4561 0.8894
vn -0.1637 -0.9865 -0.0000
vn -0.0156 0.1464 0.9891
vn 0.0000 -0.1398 0.9902
vn 0.0024 -0.1358 0.9907
vn -0.0181 -0.1114 -0.9936
vn 0.0000 0.1383 -0.9904
vn 0.0024 -0.1358 -0.9907
vn 0.0000 -0.1398 -0.9902
vn 0.0022 -0.1175 0.9931
vn -0.0118 0.9319 0.3626
vn -0.0103 0.9344 -0.3560
vn -0.0293 0.6059 0.7950
vn -0.0193 0.6054 -0.7957
vn -0.0193 0.6055 -0.7956
vn 0.0000 0.5315 -0.8470
vn 0.0000 0.9508 0.3098
vn 0.0000 0.6809 0.7324
vn 0.0000 0.2749 0.9615
vn -0.0133 -0.1026 0.9946
vn -0.0056 0.0209 -0.9998
vn 0.0022 -0.1174 -0.9931
vn -0.0181 -0.1112 0.9936
vn 0.0000 0.2749 -0.9615
vn -0.0133 -0.1026 -0.9946
vn -0.0271 0.6453 -0.7635
vn 0.0000 -0.0998 0.9950
vn -0.0341 -0.2193 -0.9751
vn -0.0277 -0.2046 -0.9785
vn -0.0277 -0.2046 0.9785
vn 0.0000 -0.1986 0.9801
vn 0.0046 -0.2391 -0.9710
vn -0.0341 -0.2194 0.9750
vn 0.0046 -0.2635 -0.9646
vn 0.0046 -0.2391 0.9710
vn 0.0046 -0.2635 0.9646
vn 0.0000 -0.2769 -0.9609
vn 0.0000 -0.1986 -0.9801
vn 0.0000 -0.2769 0.9609
vn -0.0156 0.1269 -0.9918
vn -0.0370 0.2738 -0.9611
vn -0.0217 0.2444 0.9694
vn 0.0000 0.2740 -0.9617
vn 0.0000 0.1383 0.9904
vn -0.0355 0.5284 -0.8483
vn -0.0396 0.6690 -0.7422
vn 0.0000 0.5287 -0.8488
vn 0.0000 -0.2843 0.9587
vn 0.0000 0.5315 0.8470
vn 0.0000 -0.0998 -0.9950
vn 0.0000 0.4068 -0.9135
usemtl None
s 1
f 1/1/1 2/2/2 3/3/3
f 4/4/4 5/5/5 2/2/2
f 6/6/6 7/7/7 5/5/5
f 8/8/8 9/9/9 7/7/7
f 10/10/10 11/11/11 9/9/9
f 12/12/12 13/13/13 11/11/11
f 8/14/14 6/15/14 14/16/14
f 14/17/15 15/18/16 13/13/13
f 16/19/17 3/20/3 15/18/16
f 7/7/7 17/21/18 5/5/5
f 18/22/19 19/23/20 20/24/19
f 11/11/11 21/25/21 18/22/22
f 7/7/7 22/26/23 23/27/24
f 15/18/16 21/25/21 13/13/13
f 2/2/2 17/21/18 24/28/25
f 11/11/11 22/26/23 9/9/9
f 15/18/16 25/29/26 26/30/27
f 2/2/2 25/31/26 3/3/3
f 27/32/12 28/33/10 29/34/10
f 23/27/28 30/35/29 31/36/28
f 24/28/30 32/37/31 27/32/30
f 26/30/32 19/23/20 21/25/20
f 18/22/19 30/35/29 22/26/29
f 23/27/28 32/37/31 17/21/31
f 24/28/30 29/34/33 25/31/33
f 26/30/32 29/38/33 33/39/32
f 34/40/34 35/41/34 36/42/34
f 29/38/10 36/43/8 33/39/8
f 19/23/6 35/44/4 20/24/4
f 30/35/1 34/45/17 31/36/17
f 32/37/15 37/46/12 27/32/12
f 33/39/8 38/47/6 19/23/6
f 20/24/4 39/48/1 30/35/1
f 31/36/17 40/49/15 32/37/15
f 1/1/1 4/4/4 2/2/2
f 4/4/4 6/6/6 5/5/5
f 6/6/6 8/8/8 7/7/7
f 8/8/8 10/10/10 9/9/9
f 10/10/10 12/12/12 11/11/11
f 12/12/12 14/17/15 13/13/13
f 6/15/14 4/50/14 1/51/14
f 1/51/14 16/52/14 6/15/14
f 16/52/14 14/16/14 6/15/14
f 14/16/14 12/53/14 10/54/14
f 10/54/14 8/14/14 14/16/14
f 14/17/15 16/19/17 15/18/16
f 16/19/17 1/55/1 3/20/3
f 7/7/7 23/27/24 17/21/18
f 18/22/19 21/25/20 19/23/20
f 11/11/11 13/13/13 21/25/21
f 7/7/7 9/9/9 22/26/23
f 15/18/16 26/30/27 21/25/21
f 2/2/2 5/5/5 17/21/18
f 11/11/11 18/22/22 22/26/23
f 15/18/16 3/20/3 25/29/26
f 2/2/2 24/28/25 25/31/26
f 27/32/12 37/46/12 28/33/10
f 23/27/28 22/26/29 30/35/29
f 24/28/30 17/21/31 32/37/31
f 26/30/32 33/39/32 19/23/20
f 18/22/19 20/24/19 30/35/29
f 23/27/28 31/36/28 32/37/31
f 24/28/30 27/32/30 29/34/33
f 26/30/32 25/29/33 29/38/33
f 36/42/34 28/56/34 37/57/34
f 37/57/34 40/58/34 34/40/34
f 34/40/34 39/59/34 35/41/34
f 35/41/34 38/60/34 36/42/34
f 36/42/34 37/57/34 34/40/34
f 29/38/10 28/61/10 36/43/8
f 19/23/6 38/47/6 35/44/4
f 30/35/1 39/48/1 34/45/17
f 32/37/15 40/49/15 37/46/12
f 33/39/8 36/43/8 38/47/6
f 20/24/4 35/44/4 39/48/1
f 31/36/17 34/45/17 40/49/15
usemtl Material.001
s off
f 41/62/35 42/63/35 43/64/35
f 44/65/36 45/66/36 46/67/36
f 47/68/37 48/69/37 49/70/37
f 50/71/38 51/72/38 52/73/38
f 53/74/39 54/75/39 55/76/39
f 56/77/40 57/78/40 58/79/40
f 59/80/41 60/81/41 61/82/41
f 62/83/1 63/84/1 60/81/1
f 64/85/42 65/86/42 66/87/42
f 67/88/10 68/89/10 65/86/10
f 66/87/6 68/90/6 61/91/6
f 59/92/15 67/88/15 64/85/15
f 62/93/15 64/85/15 69/94/15
f 63/84/6 61/91/6 60/95/6
f 69/94/43 66/87/43 63/84/43
f 70/96/44 61/82/44 68/97/44
f 71/98/45 72/99/45 73/100/45
f 74/101/15 75/102/15 72/99/15
f 76/103/46 77/104/46 78/105/46
f 79/106/6 80/107/6 77/104/6
f 78/105/1 80/108/1 73/109/1
f 76/103/10 81/110/10 79/106/10
f 74/111/10 76/103/10 82/112/10
f 72/113/1 78/105/1 73/109/1
f 82/112/47 78/105/47 75/102/47
f 81/114/48 73/100/48 80/115/48
f 83/116/49 84/117/49 85/118/49
f 86/119/49 87/120/49 88/121/49
f 84/117/1 89/122/1 86/119/1
f 90/123/14 91/124/14 92/125/14
f 93/126/14 89/122/14 94/127/14
f 93/126/10 83/128/10 87/129/10
f 89/122/6 87/130/6 86/131/6
f 84/132/15 91/124/15 90/123/15
f 95/133/50 96/134/50 97/135/50
f 98/136/36 94/137/36 96/134/36
f 99/138/37 94/137/37 88/139/37
f 100/140/51 101/141/51 99/138/51
f 102/142/52 103/143/52 100/140/52
f 85/144/53 104/145/53 102/142/53
f 105/146/54 85/144/54 106/147/54
f 106/147/55 97/148/55 105/146/55
f 107/149/56 108/150/56 109/151/56
f 110/152/1 111/153/1 108/150/1
f 112/154/57 113/155/57 114/156/57
f 115/157/10 116/158/10 113/155/10
f 109/159/6 113/155/6 116/160/6
f 107/161/15 115/157/15 112/154/15
f 117/162/15 107/161/15 112/154/15
f 111/153/6 109/159/6 108/163/6
f 117/162/58 114/156/58 111/153/58
f 118/164/59 109/151/59 116/165/59
f 119/166/34 120/167/34 121/168/34
f 122/169/60 123/170/60 120/167/60
f 124/171/14 125/172/14 123/170/14
f 126/173/61 121/174/61 125/172/61
f 127/175/6 128/176/6 129/177/6
f 122/178/15 126/173/15 124/171/15
f 125/172/10 128/179/10 130/180/10
f 123/170/14 130/180/14 127/175/14
f 120/167/1 127/175/1 129/181/1
f 121/168/34 129/181/34 128/182/34
f 131/183/56 132/184/56 133/185/56
f 134/186/1 135/187/1 132/184/1
f 136/188/57 137/189/57 138/190/57
f 139/191/10 140/192/10 137/189/10
f 133/193/6 137/189/6 140/194/6
f 131/195/15 139/191/15 136/188/15
f 141/196/15 131/195/15 136/188/15
f 135/187/6 133/193/6 132/197/6
f 141/196/58 138/190/58 135/187/58
f 142/198/59 133/185/59 140/199/59
f 143/200/14 144/201/14 145/202/14
f 146/203/62 147/204/62 148/205/62
f 149/206/14 150/207/14 151/208/14
f 151/209/1 152/210/1 153/211/1
f 153/211/34 154/212/34 155/213/34
f 151/214/15 155/213/15 149/215/15
f 152/210/6 156/216/6 154/212/6
f 157/217/63 158/218/63 147/204/63
f 147/204/34 159/219/34 160/220/34
f 161/221/64 162/222/64 148/205/64
f 45/66/65 163/223/65 41/62/65
f 41/62/35 57/224/35 42/63/35
f 43/64/65 45/66/65 41/62/65
f 48/69/36 164/225/36 44/65/36
f 44/65/36 163/223/36 45/66/36
f 46/67/36 48/69/36 44/65/36
f 51/72/37 165/226/37 47/68/37
f 47/68/37 164/225/37 48/69/37
f 49/70/37 51/72/37 47/68/37
f 52/73/66 166/227/66 167/228/66
f 50/71/38 165/226/38 51/72/38
f 52/73/66 167/228/66 50/71/66
f 55/76/39 168/229/39 53/74/39
f 168/229/39 167/228/39 53/74/39
f 167/228/39 166/227/39 53/74/39
f 169/230/40 170/231/40 56/77/40
f 56/77/40 42/232/40 57/78/40
f 58/79/40 169/230/40 56/77/40
f 59/80/41 62/83/41 60/81/41
f 62/83/1 69/94/1 63/84/1
f 64/85/42 67/88/42 65/86/42
f 67/88/10 70/233/10 68/89/10
f 66/87/6 65/86/6 68/90/6
f 59/92/15 70/234/15 67/88/15
f 62/93/15 59/92/15 64/85/15
f 63/84/6 66/87/6 61/91/6
f 69/94/43 64/85/43 66/87/43
f 70/96/44 59/80/44 61/82/44
f 71/98/45 74/101/45 72/99/45
f 74/101/15 82/112/15 75/102/15
f 76/103/46 79/106/46 77/104/46
f 79/106/6 81/235/6 80/107/6
f 78/105/1 77/104/1 80/108/1
f 76/103/10 71/236/10 81/110/10
f 74/111/10 71/236/10 76/103/10
f 72/113/1 75/102/1 78/105/1
f 82/112/47 76/103/47 78/105/47
f 81/114/48 71/98/48 73/100/48
f 84/117/49 106/237/49 85/118/49
f 85/118/49 102/238/49 83/116/49
f 95/239/49 106/237/49 84/117/49
f 83/116/49 102/238/49 100/240/49
f 87/120/49 83/116/49 100/240/49
f 95/239/49 84/117/49 86/119/49
f 98/241/49 95/239/49 86/119/49
f 87/120/49 100/240/49 99/242/49
f 88/121/49 98/241/49 86/119/49
f 87/120/49 99/242/49 88/121/49
f 84/117/1 90/123/1 89/122/1
f 92/125/14 105/243/14 90/123/14
f 91/124/14 104/244/14 92/125/14
f 103/245/14 104/244/14 91/124/14
f 90/123/14 105/243/14 97/246/14
f 89/122/14 90/123/14 97/246/14
f 103/245/14 91/124/14 93/126/14
f 101/247/14 103/245/14 93/126/14
f 89/122/14 97/246/14 96/248/14
f 94/127/14 101/247/14 93/126/14
f 89/122/14 96/248/14 94/127/14
f 93/126/10 91/124/10 83/128/10
f 89/122/6 93/126/6 87/130/6
f 84/132/15 83/249/15 91/124/15
f 95/133/50 98/136/50 96/134/50
f 98/136/36 88/139/36 94/137/36
f 99/138/37 101/141/37 94/137/37
f 100/140/51 103/143/51 101/141/51
f 102/142/52 104/145/52 103/143/52
f 85/144/53 92/250/53 104/145/53
f 105/146/54 92/250/54 85/144/54
f 106/147/55 95/251/55 97/148/55
f 107/149/56 110/152/56 108/150/56
f 110/152/1 117/162/1 111/153/1
f 112/154/57 115/157/57 113/155/57
f 115/157/10 118/252/10 116/158/10
f 109/159/6 114/156/6 113/155/6
f 107/161/15 118/253/15 115/157/15
f 117/162/15 110/254/15 107/161/15
f 111/153/6 114/156/6 109/159/6
f 117/162/58 112/154/58 114/156/58
f 118/164/59 107/149/59 109/151/59
f 119/166/34 122/169/34 120/167/34
f 122/169/60 124/171/60 123/170/60
f 124/171/14 126/173/14 125/172/14
f 126/173/61 119/255/61 121/174/61
f 127/175/6 130/180/6 128/176/6
f 122/178/15 119/256/15 126/173/15
f 125/172/10 121/174/10 128/179/10
f 123/170/14 125/172/14 130/180/14
f 120/167/1 123/170/1 127/175/1
f 121/168/34 120/167/34 129/181/34
f 131/183/56 134/186/56 132/184/56
f 134/186/1 141/196/1 135/187/1
f 136/188/57 139/191/57 137/189/57
f 139/191/10 142/257/10 140/192/10
f 133/193/6 138/190/6 137/189/6
f 131/195/15 142/258/15 139/191/15
f 141/196/15 134/259/15 131/195/15
f 135/187/6 138/190/6 133/193/6
f 141/196/58 136/188/58 138/190/58
f 142/198/59 131/183/59 133/185/59
f 145/202/14 146/260/14 143/200/14
f 146/260/14 171/261/14 143/200/14
f 146/203/62 145/262/62 147/204/62
f 149/206/14 156/263/14 150/207/14
f 151/209/1 150/264/1 152/210/1
f 153/211/34 152/210/34 154/212/34
f 151/214/15 153/211/15 155/213/15
f 152/210/6 150/265/6 156/216/6
f 158/218/63 159/219/63 147/204/63
f 147/204/63 145/266/63 172/267/63
f 145/266/63 144/268/63 172/267/63
f 172/267/63 157/217/63 147/204/63
f 173/269/34 160/220/34 159/219/34
f 160/220/34 148/205/34 147/204/34
f 162/222/64 171/270/64 146/271/64
f 146/271/64 148/205/64 162/222/64
f 148/205/64 160/220/64 174/272/64
f 174/272/64 161/221/64 148/205/64
s 1
f 175/273/34 176/274/34 177/275/34
f 178/276/1 179/277/67 176/274/67
f 179/277/67 180/278/68 181/279/69
f 182/280/10 177/281/70 183/282/70
f 184/283/71 185/284/72 186/285/71
f 178/286/15 182/280/15 187/287/15
f 183/282/70 188/288/73 189/289/74
f 187/287/1 190/290/67 179/277/67
f 176/274/67 181/279/69 191/291/75
f 177/275/34 191/291/34 188/292/34
f 188/292/34 186/293/34 185/294/34
f 191/291/75 184/283/71 186/293/71
f 181/279/14 192/295/14 184/283/14
f 189/289/74 185/296/72 192/295/72
f 193/297/14 194/298/14 190/290/14
f 190/290/14 195/299/14 180/278/14
f 182/280/15 193/297/15 187/287/15
f 181/279/6 195/299/6 189/289/6
f 183/282/70 196/300/10 182/280/10
f 189/289/74 194/298/70 183/282/70
f 197/301/34 198/302/34 199/303/34
f 200/304/76 201/305/77 198/302/77
f 202/306/14 203/307/78 201/305/78
f 204/308/79 199/309/80 203/307/80
f 205/310/81 206/311/82 207/312/83
f 200/313/76 204/308/79 202/306/76
f 208/314/84 209/315/10 210/316/10
f 211/317/85 210/316/86 212/318/86
f 213/319/87 212/318/1 214/320/1
f 215/321/34 214/320/34 209/322/34
f 208/314/84 199/309/88 215/323/89
f 201/305/78 208/314/85 211/317/85
f 198/302/90 211/317/91 213/319/87
f 199/303/34 213/319/34 215/321/34
f 216/324/6 217/325/6 206/326/6
f 207/312/34 217/327/34 218/328/34
f 219/329/92 216/324/14 205/310/92
f 218/330/93 220/331/94 219/329/95
f 209/322/34 207/312/34 218/328/34
f 207/312/83 212/318/1 205/310/81
f 212/318/86 219/329/92 205/310/92
f 210/316/10 218/330/93 219/329/95
f 221/332/96 222/333/97 223/334/97
f 224/335/10 225/336/10 226/337/10
f 225/338/98 227/339/99 226/340/99
f 228/341/100 229/342/101 230/343/101
f 231/344/102 232/345/103 233/346/103
f 223/347/1 233/346/1 234/348/1
f 234/348/1 235/349/1 236/350/1
f 233/346/103 237/351/104 235/349/104
f 226/340/99 238/352/105 239/353/105
f 240/354/10 226/337/10 239/355/10
f 240/354/10 241/356/10 242/357/10
f 239/353/105 243/358/106 241/359/106
f 235/349/104 244/360/107 245/361/107
f 236/350/1 245/361/1 246/362/1
f 243/358/1 236/350/1 246/362/1
f 244/360/10 240/354/10 242/357/10
f 237/351/10 224/335/10 240/354/10
f 227/339/1 236/350/1 238/352/1
f 221/363/1 234/348/1 227/339/1
f 230/343/101 247/364/108 248/365/108
f 232/345/10 222/366/10 224/335/10
f 223/334/97 249/367/109 231/344/109
f 250/368/10 242/357/10 229/369/10
f 243/358/1 230/370/1 248/371/1
f 246/362/1 228/341/1 230/370/1
f 245/361/107 250/368/107 228/341/107
f 241/359/106 248/371/110 247/372/110
f 229/369/10 241/356/10 247/373/10
f 251/374/34 252/375/34 253/376/34
f 252/375/1 254/377/1 255/378/1
f 256/379/15 257/380/15 258/381/15
f 259/382/10 253/383/10 260/384/10
f 261/385/111 262/386/112 263/387/112
f 264/388/15 259/382/15 254/377/15
f 265/389/1 266/390/1 267/391/1
f 258/381/1 268/392/1 269/393/1
f 270/394/10 271/395/10 272/396/10
f 273/397/113 271/395/113 274/398/113
f 275/399/6 274/398/113 261/385/6
f 261/385/111 270/394/10 260/384/10
f 254/377/1 269/393/1 255/378/1
f 259/382/15 258/381/15 254/377/15
f 255/378/1 273/397/1 275/399/114
f 260/384/10 256/379/10 259/382/10
f 256/379/10 272/396/10 276/400/10
f 269/393/1 277/401/1 273/397/1
f 278/402/1 266/390/1 279/403/1
f 260/384/10 280/404/115 261/385/111
f 281/405/116 255/378/1 275/399/114
f 253/376/34 281/405/117 280/406/117
f 282/407/118 262/408/118 283/409/118
f 275/399/114 283/410/119 281/405/116
f 281/405/117 262/411/120 280/406/117
f 261/385/121 282/407/121 275/399/122
f 284/412/15 285/413/15 286/414/15
f 286/414/1 287/415/1 266/390/1
f 288/416/10 289/417/10 290/418/10
f 278/402/123 291/419/124 288/416/123
f 290/418/10 284/412/10 292/420/10
f 292/420/15 286/414/15 265/389/15
f 276/400/15 265/389/15 257/380/15
f 272/396/10 292/420/10 276/400/10
f 277/401/113 288/416/123 271/395/113
f 271/395/10 290/418/10 272/396/10
f 268/392/1 278/402/1 277/401/1
f 257/380/1 267/391/1 268/392/1
f 287/415/1 293/421/1 294/422/1
f 295/423/15 296/424/15 285/413/15
f 279/403/1 287/415/1 294/422/1
f 289/417/10 295/423/10 284/412/10
f 291/419/10 297/425/10 289/417/10
f 279/403/124 298/426/125 291/419/124
f 296/424/14 299/427/14 300/428/14
f 300/428/14 301/429/14 293/421/14
f 297/425/10 302/430/10 295/423/10
f 298/426/10 299/427/10 297/425/10
f 294/422/6 301/429/6 298/426/6
f 285/413/1 300/428/1 287/415/1
f 303/431/126 304/432/127 305/433/127
f 306/434/128 307/435/129 308/436/129
f 309/437/14 310/438/14 307/435/14
f 311/439/126 305/433/127 310/438/127
f 312/440/6 313/441/6 314/442/6
f 306/443/15 311/439/15 309/437/15
f 315/444/130 316/445/10 317/446/10
f 318/447/14 317/446/14 319/448/14
f 320/449/131 319/448/1 321/450/1
f 316/451/6 322/452/6 321/450/6
f 310/438/127 323/453/130 315/444/130
f 307/435/14 315/444/14 318/447/14
f 308/436/129 318/447/131 320/449/131
f 305/433/127 324/454/130 323/453/130
f 325/455/34 314/456/34 313/457/34
f 326/458/132 312/440/133 314/456/133
f 327/459/14 328/460/14 312/440/14
f 329/461/134 313/462/135 328/460/135
f 316/451/34 326/458/34 325/455/34
f 321/450/1 327/459/132 326/458/132
f 319/448/14 329/461/14 327/459/14
f 317/446/10 325/463/134 329/461/134
f 330/464/34 331/465/34 304/466/34
f 324/467/34 322/452/34 332/468/34
f 304/466/34 333/469/34 324/467/34
f 323/453/130 332/470/10 316/445/10
f 308/436/129 334/471/128 306/434/128
f 321/450/1 333/469/131 320/449/131
f 306/443/15 330/472/15 303/473/15
f 320/449/131 331/465/129 308/436/129
f 335/474/15 336/475/15 337/476/15
f 338/477/136 339/478/137 340/479/138
f 339/478/139 341/480/140 340/479/140
f 342/481/141 343/482/142 341/480/143
f 344/483/6 345/484/6 346/485/6
f 335/474/15 342/481/15 339/478/15
f 347/486/10 348/487/10 349/488/10
f 350/489/144 349/488/14 351/490/14
f 352/491/1 350/489/1 351/490/1
f 353/492/145 352/491/146 348/493/146
f 336/494/141 354/495/142 355/496/142
f 338/477/136 356/497/1 357/498/136
f 337/499/141 355/496/142 343/482/142
f 353/492/6 356/497/6 358/500/6
f 348/493/146 359/501/34 360/502/34
f 352/491/1 361/503/147 359/501/147
f 351/490/14 362/504/14 361/503/14
f 349/488/10 360/505/148 362/504/148
f 343/482/142 363/506/10 353/507/10
f 335/508/137 357/498/136 364/509/137
f 356/497/1 365/510/136 357/498/136
f 341/480/143 353/507/10 347/486/10
f 340/479/140 347/486/144 350/489/144
f 358/500/1 340/479/138 350/489/1
f 366/511/34 365/510/34 354/512/34
f 354/512/34 367/513/34 368/514/34
f 355/496/142 368/515/10 363/506/10
f 369/516/149 370/517/150 371/518/149
f 364/519/15 366/520/15 336/475/15
f 357/498/136 372/521/137 364/509/137
f 373/522/6 370/517/6 374/523/6
f 375/524/34 370/517/34 376/525/34
f 375/526/151 373/527/152 377/528/151
f 369/516/14 373/522/14 374/523/14
f 362/504/148 345/529/153 378/530/153
f 361/503/14 378/530/14 344/483/14
f 359/501/147 344/483/154 346/531/154
f 360/502/34 346/531/34 345/532/34
f 363/533/14 369/516/14 356/497/14
f 368/515/10 377/528/151 363/506/10
f 367/513/34 375/524/34 368/514/34
f 356/497/1 371/518/149 367/513/1
f 379/534/34 56/535/34 170/536/34
f 380/537/34 53/538/34 381/539/34
f 379/534/155 382/540/156 383/541/156
f 384/542/14 168/543/14 55/544/14
f 58/545/14 385/546/14 169/547/14
f 384/542/157 381/548/158 386/549/158
f 387/550/6 388/551/6 389/552/6
f 380/553/15 55/544/15 54/554/15
f 385/546/15 170/555/15 169/547/15
f 390/556/159 388/557/10 391/558/10
f 392/559/14 391/558/14 387/550/14
f 393/560/160 387/550/1 389/561/1
f 394/562/34 389/561/34 388/563/34
f 395/564/161 394/565/159 390/556/159
f 392/559/14 44/566/14 164/567/14
f 396/568/162 392/559/160 393/560/160
f 48/569/34 46/570/34 393/560/34
f 397/571/163 398/572/161 395/564/161
f 397/571/14 395/564/14 165/573/14
f 163/574/14 44/566/14 399/575/14
f 400/576/164 399/575/162 396/568/162
f 400/576/34 396/568/34 45/577/34
f 401/578/34 52/579/34 51/580/34
f 386/549/158 401/581/163 397/571/163
f 397/571/14 50/582/14 167/583/14
f 382/540/14 58/545/14 57/584/14
f 383/541/156 402/585/164 400/576/164
f 400/576/34 43/586/34 42/587/34
f 381/539/34 53/538/34 166/588/34
f 403/589/34 404/590/34 405/591/34
f 406/592/165 407/593/166 408/594/166
f 409/595/14 410/596/14 407/593/14
f 411/597/167 405/598/168 412/599/169
f 413/600/6 414/601/170 415/602/170
f 416/603/15 411/604/15 417/605/15
f 418/606/171 419/607/172 420/608/173
f 421/609/14 422/610/14 423/611/14
f 424/612/174 156/613/1 149/614/1
f 425/615/34 426/616/34 419/617/34
f 427/618/175 428/619/176 426/616/177
f 429/620/178 418/606/171 420/608/173
f 417/605/15 430/621/179 431/622/180
f 432/623/6 433/624/6 434/625/6
f 435/626/181 411/597/167 412/599/169
f 417/627/182 172/628/183 144/629/184
f 436/630/185 435/626/181 437/631/186
f 431/622/180 436/632/185 438/633/165
f 439/634/187 429/620/178 440/635/188
f 161/636/189 174/637/1 441/638/190
f 442/639/6 443/640/6 432/623/6
f 444/641/187 440/635/188 445/642/191
f 438/633/165 446/643/185 406/644/165
f 446/645/185 437/631/186 447/646/186
f 160/647/1 448/648/192 449/649/193
f 450/650/170 451/651/6 442/639/6
f 431/652/180 452/653/166 453/654/194
f 454/655/185 447/646/186 410/596/186
f 406/644/165 454/655/185 409/595/165
f 455/656/187 445/642/191 422/610/195
f 449/649/193 456/657/192 424/612/174
f 415/602/170 457/658/170 450/650/170
f 438/659/165 408/594/166 452/653/166
f 450/660/196 424/612/174 415/661/197
f 422/610/195 414/662/198 458/663/199
f 441/638/190 450/660/196 442/664/200
f 445/642/191 457/665/201 414/662/198
f 428/619/176 442/664/200 432/666/202
f 440/635/188 451/667/203 457/665/201
f 451/667/203 420/608/173 443/668/204
f 434/669/205 428/619/176 432/666/202
f 419/617/34 434/669/34 433/670/34
f 424/612/174 413/600/206 415/661/197
f 413/600/14 422/610/14 458/663/14
f 420/608/173 433/671/207 443/668/204
f 452/653/166 456/657/192 448/648/192
f 410/596/186 444/641/187 455/656/187
f 447/646/186 439/634/187 444/641/187
f 459/672/208 162/673/209 161/636/189
f 437/631/186 460/674/210 439/634/187
f 427/618/175 171/675/211 459/672/208
f 460/674/210 412/599/169 418/606/171
f 412/599/169 425/676/212 418/606/171
f 407/593/14 455/656/14 421/609/14
f 408/594/166 421/609/192 456/657/192
f 405/591/34 427/618/34 425/615/34
f 154/677/1 456/657/192 421/609/192
f 158/678/213 157/679/214 453/654/194
f 159/680/215 453/654/194 452/653/166
f 431/652/180 157/679/214 417/627/182
f 175/273/34 178/276/34 176/274/34
f 178/276/1 187/287/1 179/277/67
f 179/277/67 190/290/67 180/278/68
f 182/280/10 175/681/10 177/281/70
f 184/283/71 192/295/72 185/284/72
f 178/286/15 175/682/15 182/280/15
f 183/282/70 177/281/70 188/288/73
f 187/287/1 193/297/1 190/290/67
f 176/274/67 179/277/67 181/279/69
f 177/275/34 176/274/34 191/291/34
f 188/292/34 191/291/34 186/293/34
f 191/291/75 181/279/69 184/283/71
f 181/279/14 189/289/14 192/295/14
f 189/289/74 188/288/73 185/296/72
f 193/297/14 196/300/14 194/298/14
f 190/290/14 194/298/14 195/299/14
f 182/280/15 196/300/15 193/297/15
f 181/279/6 180/278/6 195/299/6
f 183/282/70 194/298/70 196/300/10
f 189/289/74 195/299/216 194/298/70
f 197/301/34 200/304/34 198/302/34
f 200/304/76 202/306/76 201/305/77
f 202/306/14 204/308/14 203/307/78
f 204/308/79 197/683/79 199/309/80
f 205/310/81 216/324/82 206/311/82
f 200/313/76 197/684/79 204/308/79
f 208/314/84 215/323/89 209/315/10
f 211/317/85 208/314/85 210/316/86
f 213/319/87 211/317/91 212/318/1
f 215/321/34 213/319/34 214/320/34
f 208/314/84 203/307/88 199/309/88
f 201/305/78 203/307/78 208/314/85
f 198/302/90 201/305/90 211/317/91
f 199/303/34 198/302/34 213/319/34
f 216/324/6 220/331/6 217/325/6
f 207/312/34 206/311/34 217/327/34
f 219/329/92 220/331/14 216/324/14
f 218/330/93 217/685/94 220/331/94
f 209/322/34 214/320/34 207/312/34
f 207/312/83 214/320/1 212/318/1
f 212/318/86 210/316/86 219/329/92
f 210/316/10 209/315/10 218/330/93
f 221/332/96 225/686/96 222/333/97
f 224/335/10 222/366/10 225/336/10
f 225/338/98 221/363/98 227/339/99
f 228/341/100 250/368/100 229/342/101
f 231/344/102 249/367/102 232/345/103
f 223/347/1 231/344/1 233/346/1
f 234/348/1 233/346/1 235/349/1
f 233/346/103 232/345/103 237/351/104
f 226/340/99 227/339/99 238/352/105
f 240/354/10 224/335/10 226/337/10
f 240/354/10 239/355/10 241/356/10
f 239/353/105 238/352/105 243/358/106
f 235/349/104 237/351/104 244/360/107
f 236/350/1 235/349/1 245/361/1
f 243/358/1 238/352/1 236/350/1
f 244/360/10 237/351/10 240/354/10
f 237/351/10 232/345/10 224/335/10
f 227/339/1 234/348/1 236/350/1
f 221/363/1 223/347/1 234/348/1
f 230/343/101 229/342/101 247/364/108
f 232/345/10 249/367/10 222/366/10
f 223/334/97 222/333/97 249/367/109
f 250/368/10 244/360/10 242/357/10
f 243/358/1 246/362/1 230/370/1
f 246/362/1 245/361/1 228/341/1
f 245/361/107 244/360/107 250/368/107
f 241/359/106 243/358/106 248/371/110
f 229/369/10 242/357/10 241/356/10
f 251/374/34 264/687/34 252/375/34
f 252/375/1 264/687/1 254/377/1
f 256/379/15 276/400/15 257/380/15
f 259/382/10 251/688/10 253/383/10
f 261/385/111 280/404/115 262/386/112
f 264/388/15 251/689/15 259/382/15
f 265/389/1 286/414/1 266/390/1
f 258/381/1 257/380/1 268/392/1
f 270/394/10 274/398/10 271/395/10
f 273/397/113 277/401/113 271/395/113
f 275/399/6 273/397/113 274/398/113
f 261/385/111 274/398/10 270/394/10
f 254/377/1 258/381/1 269/393/1
f 259/382/15 256/379/15 258/381/15
f 255/378/1 269/393/1 273/397/1
f 260/384/10 270/394/10 256/379/10
f 256/379/10 270/394/10 272/396/10
f 269/393/1 268/392/1 277/401/1
f 278/402/1 267/391/1 266/390/1
f 260/384/10 253/383/10 280/404/115
f 281/405/116 252/375/1 255/378/1
f 253/376/34 252/375/34 281/405/117
f 282/407/118 263/387/118 262/408/118
f 275/399/114 282/407/119 283/410/119
f 281/405/117 283/410/120 262/411/120
f 261/385/121 263/387/121 282/407/121
f 284/412/15 295/423/15 285/413/15
f 286/414/1 285/413/1 287/415/1
f 288/416/10 291/419/10 289/417/10
f 278/402/123 279/403/124 291/419/124
f 290/418/10 289/417/10 284/412/10
f 292/420/15 284/412/15 286/414/15
f 276/400/15 292/420/15 265/389/15
f 272/396/10 290/418/10 292/420/10
f 277/401/113 278/402/123 288/416/123
f 271/395/10 288/416/10 290/418/10
f 268/392/1 267/391/1 278/402/1
f 257/380/1 265/389/1 267/391/1
f 287/415/1 300/428/1 293/421/1
f 295/423/15 302/430/15 296/424/15
f 279/403/1 266/390/1 287/415/1
f 289/417/10 297/425/10 295/423/10
f 291/419/10 298/426/10 297/425/10
f 279/403/124 294/422/125 298/426/125
f 296/424/14 302/430/14 299/427/14
f 300/428/14 299/427/14 301/429/14
f 297/425/10 299/427/10 302/430/10
f 298/426/10 301/429/10 299/427/10
f 294/422/6 293/421/6 301/429/6
f 285/413/1 296/424/1 300/428/1
f 303/431/126 330/690/126 304/432/127
f 306/434/128 309/437/128 307/435/129
f 309/437/14 311/439/14 310/438/14
f 311/439/126 303/431/126 305/433/127
f 312/440/6 328/460/6 313/441/6
f 306/443/15 303/473/15 311/439/15
f 315/444/130 323/453/130 316/445/10
f 318/447/14 315/444/14 317/446/14
f 320/449/131 318/447/131 319/448/1
f 316/451/6 332/468/6 322/452/6
f 310/438/127 305/433/127 323/453/130
f 307/435/14 310/438/14 315/444/14
f 308/436/129 307/435/129 318/447/131
f 305/433/127 304/432/127 324/454/130
f 325/455/34 326/458/34 314/456/34
f 326/458/132 327/459/132 312/440/133
f 327/459/14 329/461/14 328/460/14
f 329/461/134 325/463/134 313/462/135
f 316/451/34 321/450/34 326/458/34
f 321/450/1 319/448/1 327/459/132
f 319/448/14 317/446/14 329/461/14
f 317/446/10 316/445/10 325/463/134
f 330/464/34 334/471/34 331/465/34
f 324/467/34 333/469/34 322/452/34
f 304/466/34 331/465/34 333/469/34
f 323/453/130 324/454/130 332/470/10
f 308/436/129 331/465/129 334/471/128
f 321/450/1 322/452/1 333/469/131
f 306/443/15 334/691/15 330/472/15
f 320/449/131 333/469/131 331/465/129
f 335/474/15 364/519/15 336/475/15
f 338/477/136 335/508/137 339/478/137
f 339/478/139 342/481/139 341/480/140
f 342/481/141 337/499/141 343/482/142
f 344/483/6 378/530/6 345/484/6
f 335/474/15 337/476/15 342/481/15
f 347/486/10 353/507/10 348/487/10
f 350/489/144 347/486/144 349/488/14
f 352/491/1 358/500/1 350/489/1
f 353/492/145 358/500/145 352/491/146
f 336/494/141 366/692/141 354/495/142
f 338/477/136 358/500/1 356/497/1
f 337/499/141 336/494/141 355/496/142
f 353/492/6 363/533/6 356/497/6
f 348/493/146 352/491/146 359/501/34
f 352/491/1 351/490/1 361/503/147
f 351/490/14 349/488/14 362/504/14
f 349/488/10 348/487/10 360/505/148
f 343/482/142 355/496/142 363/506/10
f 335/508/137 338/477/136 357/498/136
f 356/497/1 367/513/1 365/510/136
f 341/480/143 343/482/142 353/507/10
f 340/479/140 341/480/140 347/486/144
f 358/500/1 338/477/136 340/479/138
f 366/511/34 372/521/34 365/510/34
f 354/512/34 365/510/34 367/513/34
f 355/496/142 354/495/142 368/515/10
f 369/516/149 374/523/150 370/517/150
f 364/519/15 372/693/15 366/520/15
f 357/498/136 365/510/136 372/521/137
f 373/522/6 376/525/6 370/517/6
f 375/524/34 371/518/34 370/517/34
f 375/526/151 376/694/152 373/527/152
f 369/516/14 377/695/14 373/522/14
f 362/504/148 360/505/148 345/529/153
f 361/503/14 362/504/14 378/530/14
f 359/501/147 361/503/147 344/483/154
f 360/502/34 359/501/34 346/531/34
f 363/533/14 377/695/14 369/516/14
f 368/515/10 375/526/151 377/528/151
f 367/513/34 371/518/34 375/524/34
f 356/497/1 369/516/149 371/518/149
f 379/534/34 383/541/34 56/535/34
f 380/537/34 54/696/34 53/538/34
f 379/534/155 385/546/155 382/540/156
f 384/542/14 386/549/14 168/543/14
f 58/545/14 382/540/14 385/546/14
f 384/542/157 380/697/157 381/548/158
f 387/550/6 391/558/6 388/551/6
f 380/553/15 384/542/15 55/544/15
f 385/546/15 379/698/15 170/555/15
f 390/556/159 394/565/159 388/557/10
f 392/559/14 390/556/14 391/558/14
f 393/560/160 392/559/160 387/550/1
f 394/562/34 393/560/34 389/561/34
f 395/564/161 398/572/161 394/565/159
f 164/567/14 47/699/14 390/556/14
f 47/699/14 395/564/14 390/556/14
f 390/556/14 392/559/14 164/567/14
f 392/559/14 399/575/14 44/566/14
f 396/568/162 399/575/162 392/559/160
f 46/570/34 396/568/34 393/560/34
f 393/560/34 394/562/34 48/569/34
f 394/562/34 398/700/34 49/701/34
f 48/569/34 394/562/34 49/701/34
f 397/571/163 401/581/163 398/572/161
f 165/573/14 50/582/14 397/571/14
f 395/564/14 47/699/14 165/573/14
f 399/575/14 402/585/14 163/574/14
f 402/585/14 41/702/14 163/574/14
f 400/576/164 402/585/164 399/575/162
f 45/577/34 43/586/34 400/576/34
f 396/568/34 46/570/34 45/577/34
f 51/580/34 49/701/34 398/700/34
f 398/700/34 401/578/34 51/580/34
f 386/549/158 381/548/158 401/581/163
f 168/543/14 386/549/14 167/583/14
f 386/549/14 397/571/14 167/583/14
f 41/702/14 402/585/14 57/584/14
f 402/585/14 382/540/14 57/584/14
f 383/541/156 382/540/156 402/585/164
f 42/587/34 56/535/34 383/541/34
f 383/541/34 400/576/34 42/587/34
f 166/588/34 52/579/34 401/578/34
f 401/578/34 381/539/34 166/588/34
f 403/589/34 416/703/34 404/590/34
f 406/592/165 409/595/165 407/593/166
f 409/595/14 454/655/14 410/596/14
f 411/597/167 403/704/217 405/598/168
f 413/600/6 458/663/6 414/601/170
f 416/603/15 403/705/15 411/604/15
f 418/606/171 425/676/212 419/607/172
f 421/609/14 455/656/14 422/610/14
f 424/612/174 456/657/192 156/613/1
f 149/614/1 155/706/1 424/612/174
f 155/706/1 423/611/218 424/612/174
f 425/615/34 427/618/34 426/616/34
f 427/618/175 459/672/208 428/619/176
f 429/620/178 460/674/210 418/606/171
f 417/605/15 411/604/15 430/621/179
f 432/623/6 443/640/6 433/624/6
f 435/626/181 430/707/179 411/597/167
f 143/708/219 404/590/219 144/629/184
f 404/590/219 416/703/184 144/629/184
f 416/703/184 417/627/182 144/629/184
f 436/630/185 430/707/179 435/626/181
f 431/622/180 430/621/179 436/632/185
f 439/634/187 460/674/210 429/620/178
f 441/638/190 428/619/176 161/636/189
f 428/619/176 459/672/208 161/636/189
f 442/639/6 451/651/6 443/640/6
f 444/641/187 439/634/187 440/635/188
f 438/633/165 436/632/185 446/643/185
f 446/645/185 436/630/185 437/631/186
f 449/649/193 441/638/190 160/647/1
f 441/638/190 174/637/1 160/647/1
f 160/647/1 173/709/192 448/648/192
f 450/650/170 457/658/170 451/651/6
f 431/652/180 438/659/165 452/653/166
f 454/655/185 446/645/185 447/646/186
f 406/644/165 446/643/185 454/655/185
f 455/656/187 444/641/187 445/642/191
f 449/649/193 448/648/192 456/657/192
f 415/602/170 414/601/170 457/658/170
f 438/659/165 406/592/165 408/594/166
f 450/660/196 449/649/193 424/612/174
f 422/610/195 445/642/191 414/662/198
f 441/638/190 449/649/193 450/660/196
f 445/642/191 440/635/188 457/665/201
f 428/619/176 441/638/190 442/664/200
f 440/635/188 429/620/178 451/667/203
f 451/667/203 429/620/178 420/608/173
f 434/669/205 426/616/177 428/619/176
f 419/617/34 426/616/34 434/669/34
f 424/612/174 423/611/218 413/600/206
f 413/600/14 423/611/14 422/610/14
f 420/608/173 419/607/172 433/671/207
f 452/653/166 408/594/166 456/657/192
f 410/596/186 447/646/186 444/641/187
f 447/646/186 437/631/186 439/634/187
f 437/631/186 435/626/181 460/674/210
f 427/618/175 404/590/219 171/675/211
f 404/590/219 143/708/219 171/675/211
f 171/675/211 162/673/209 459/672/208
f 460/674/210 435/626/181 412/599/169
f 412/599/169 405/598/168 425/676/212
f 407/593/14 410/596/14 455/656/14
f 408/594/166 407/593/166 421/609/192
f 405/591/34 404/590/34 427/618/34
f 421/609/192 423/611/218 154/677/1
f 423/611/218 155/706/1 154/677/1
f 154/677/1 156/613/1 456/657/192
f 448/648/192 173/709/192 159/680/215
f 159/680/215 158/678/213 453/654/194
f 452/653/166 448/648/192 159/680/215
f 453/654/194 157/679/214 431/652/180
f 157/679/214 172/628/183 417/627/182
o Circle
v -0.103923 -0.000000 0.060000
v 0.000000 0.000000 -0.120000
v 0.103923 -0.000000 0.060000
l 461 462
l 462 463
l 463 461
