# Blender v2.93.1 OBJ File: 'theboneshaker.blend'
# www.blender.org
mtllib nagtheboneshaker.mtl
o Cube.005
v 0.744810 -0.158959 0.049396
v 0.756022 -0.065224 0.049396
v 0.744810 -0.158959 -0.072300
v 0.756022 -0.065224 -0.072300
v 1.063879 -0.251327 0.049396
v 1.088192 -0.065224 0.049396
v 1.063879 -0.251327 -0.072300
v 1.088192 -0.065224 -0.072300
v 0.725645 -0.237287 -0.072300
v 0.725645 -0.237287 0.049396
v 1.019718 -0.391747 -0.072300
v 1.019718 -0.391747 0.049396
v 0.602887 -0.392545 -0.072300
v 0.602887 -0.392545 0.049396
v 0.930700 -0.561227 -0.072300
v 0.930700 -0.561227 0.049396
v 0.756022 0.098499 0.049396
v 0.756022 0.098499 -0.072300
v 1.088192 0.098499 -0.072300
v 1.088192 0.098499 0.049396
v 0.957040 -0.511078 0.049396
v 0.957040 -0.511078 -0.072300
v 0.662967 -0.356618 -0.072300
v 0.662967 -0.356618 0.049396
v 0.943870 -0.536152 0.049396
v 0.614427 -0.374581 -0.072300
v 0.943870 -0.536152 -0.072300
v 0.614427 -0.374581 0.049396
vt 0.375000 0.000000
vt 0.625000 0.000000
vt 0.625000 0.250000
vt 0.375000 0.250000
vt 0.625000 0.500000
vt 0.375000 0.500000
vt 0.625000 0.750000
vt 0.375000 0.750000
vt 0.625000 1.000000
vt 0.375000 1.000000
vt 0.375000 0.750000
vt 0.375000 0.500000
vt 0.625000 0.250000
vt 0.625000 0.500000
vt 0.375000 0.500000
vt 0.375000 0.750000
vt 0.375000 0.750000
vt 0.375000 0.500000
vt 0.375000 1.000000
vt 0.375000 0.250000
vt 0.375000 0.000000
vt 0.125000 0.500000
vt 0.125000 0.750000
vt 0.375000 0.000000
vt 0.375000 0.250000
vt 0.375000 0.250000
vt 0.375000 0.000000
vt 0.375000 1.000000
vt 0.375000 1.000000
vt 0.875000 0.500000
vt 0.875000 0.750000
vt 0.625000 0.750000
vt 0.625000 0.000000
vt 0.625000 1.000000
vt 0.375000 0.500000
vt 0.375000 0.250000
vt 0.375000 1.000000
vt 0.375000 0.750000
vt 0.375000 0.000000
vn -0.9839 0.1785 0.0000
vn -0.9982 0.0595 0.0000
vn 0.0000 0.0000 -1.0000
vn 0.9765 -0.2156 0.0000
vn 0.9979 -0.0649 0.0000
vn -0.0000 0.0000 1.0000
vn 0.9233 -0.3840 0.0000
vn 0.8853 -0.4650 0.0000
vn -0.9353 0.3540 0.0000
vn -0.4575 -0.8892 0.0000
vn -0.6266 0.7794 0.0000
vn -0.8414 0.5405 0.0000
vn 0.0000 1.0000 0.0000
vn 1.0000 0.0000 0.0000
vn -1.0000 0.0000 0.0000
vn -0.6600 0.7513 0.0000
usemtl None
s 1
f 1/1/1 2/2/2 4/3/2 3/4/1
f 3/4/3 4/3/3 8/5/3 7/6/3
f 7/6/4 8/5/5 6/7/5 5/8/4
f 5/8/6 6/7/6 2/9/6 1/10/6
f 7/6/4 5/8/4 12/11/7 11/12/7
f 8/5/3 4/3/3 18/13/3 19/14/3
f 27/15/8 25/16/8 16/17/8 15/18/8
f 5/8/6 1/10/6 10/19/6 12/11/6
f 3/4/3 7/6/3 11/12/3 9/20/3
f 1/1/1 3/4/1 9/20/9 10/21/9
f 13/22/10 15/18/10 16/17/10 14/23/10
f 28/24/11 26/25/11 13/26/12 14/27/12
f 25/16/6 28/28/6 14/29/6 16/17/6
f 26/25/3 27/15/3 15/18/3 13/26/3
f 19/14/13 18/30/13 17/31/13 20/32/13
f 6/7/5 8/5/5 19/14/14 20/32/14
f 4/3/2 2/2/2 17/33/15 18/13/15
f 2/9/6 6/7/6 20/32/6 17/34/6
f 9/20/3 11/12/3 22/35/3 23/36/3
f 12/11/6 10/19/6 24/37/6 21/38/6
f 10/21/9 9/20/9 23/36/16 24/39/16
f 11/12/7 12/11/7 21/38/8 22/35/8
f 23/36/3 22/35/3 27/15/3 26/25/3
f 21/38/6 24/37/6 28/28/6 25/16/6
f 24/39/16 23/36/16 26/25/11 28/24/11
f 22/35/8 21/38/8 25/16/8 27/15/8
o Circle
v 0.000000 0.000000 -0.120000
v -0.103923 0.000000 0.060000
v 0.103923 0.000000 0.060000
l 30 29
l 31 30
l 29 31
