# Blender v2.93.1 OBJ File: 'theboneshaker.blend'
# www.blender.org
mtllib sightstheboneshaker.mtl
o Circle
v 0.000000 0.000000 -0.120000
v -0.103923 0.000000 0.060000
v 0.103923 0.000000 0.060000
l 2 1
l 3 2
l 1 3
o Cylinder.001_Cylinder.002
v -0.910778 0.389473 -0.004009
v -0.895402 0.389473 -0.004009
v -0.895402 0.374670 -0.002835
v -0.910778 0.374670 -0.002835
v -0.895402 0.373118 0.000000
v -0.910778 0.373118 0.000000
v -0.895402 0.374670 0.002835
v -0.910778 0.374670 0.002835
v -0.895402 0.389473 0.004009
v -0.910778 0.389473 0.004009
v -0.895402 0.393218 0.002835
v -0.910778 0.393218 0.002835
v -0.895402 0.394769 0.000000
v -0.910778 0.394769 0.000000
v -0.895402 0.393218 -0.002835
v -0.910778 0.393218 -0.002835
v 0.506338 0.431955 0.030813
v 0.506338 0.444718 0.000000
v 0.506338 0.437830 0.000000
v 0.506338 0.427084 0.025942
v 0.506338 0.431955 -0.030813
v 0.506338 0.401142 -0.043576
v 0.506338 0.401142 -0.036688
v 0.506338 0.427084 -0.025942
v 0.514130 0.431955 0.030813
v 0.514130 0.427084 0.025942
v 0.514130 0.437830 0.000000
v 0.514130 0.444718 0.000000
v 0.514130 0.431955 -0.030813
v 0.514130 0.427084 -0.025942
v 0.514130 0.401142 -0.036688
v 0.514130 0.401142 -0.043576
v 0.514130 0.375200 -0.025942
v 0.514130 0.370329 -0.030813
v 0.514130 0.357566 0.000000
v 0.514130 0.364454 0.000000
v 0.514130 0.375200 0.025942
v 0.514130 0.370329 0.030813
v 0.514130 0.401142 0.043576
v 0.514130 0.401142 0.036688
v 0.506338 0.370329 -0.030813
v 0.506338 0.375200 -0.025942
v 0.506338 0.357566 0.000000
v 0.506338 0.370329 0.030813
v 0.506338 0.375200 0.025942
v 0.506338 0.364454 0.000000
v 0.506338 0.401142 0.043576
v 0.506338 0.401142 0.036688
vt 1.000000 0.500000
vt 1.000000 1.000000
vt 0.875000 1.000000
vt 0.875000 0.500000
vt 0.750000 1.000000
vt 0.750000 0.500000
vt 0.625000 1.000000
vt 0.625000 0.500000
vt 0.500000 1.000000
vt 0.500000 0.500000
vt 0.375000 1.000000
vt 0.375000 0.500000
vt 0.250000 1.000000
vt 0.250000 0.500000
vt 0.419706 0.419706
vt 0.250000 0.490000
vt 0.080294 0.419706
vt 0.010000 0.250000
vt 0.080294 0.080294
vt 0.250000 0.010000
vt 0.419706 0.080294
vt 0.490000 0.250000
vt 0.125000 1.000000
vt 0.125000 0.500000
vt 0.000000 1.000000
vt 0.000000 0.500000
vt 0.750000 0.490000
vt 0.919706 0.419706
vt 0.990000 0.250000
vt 0.919706 0.080294
vt 0.750000 0.010000
vt 0.580294 0.080294
vt 0.510000 0.250000
vt 0.580294 0.419706
vt 0.000000 0.000000
vt 0.000000 0.000000
vt 0.000000 0.000000
vt 0.000000 0.000000
vt 0.000000 0.000000
vt 0.000000 0.000000
vt 0.000000 0.000000
vt 0.000000 0.000000
vt 0.000000 0.000000
vt 0.000000 0.000000
vt 0.000000 0.000000
vt 0.000000 0.000000
vt 0.000000 0.000000
vt 0.000000 0.000000
vt 0.000000 0.000000
vt 0.000000 0.000000
vt 0.000000 0.000000
vt 0.000000 0.000000
vt 0.000000 0.000000
vt 0.000000 0.000000
vt 0.000000 0.000000
vt 0.000000 0.000000
vt 0.000000 0.000000
vt 0.000000 0.000000
vt 0.000000 0.000000
vt 0.000000 0.000000
vt 0.000000 0.000000
vt 0.000000 0.000000
vt 0.000000 0.000000
vt 0.000000 0.000000
vt 0.000000 0.000000
vt 0.000000 0.000000
vn 0.0000 -0.0791 -0.9969
vn 0.0000 -0.8771 -0.4802
vn 0.0000 -0.8771 0.4802
vn 0.0000 -0.0791 0.9969
vn 0.0000 0.2991 0.9542
vn 0.0000 0.8771 0.4803
vn 1.0000 0.0000 0.0000
vn -0.0000 0.8771 -0.4803
vn 0.0000 0.2991 -0.9542
vn -1.0000 0.0000 0.0000
vn 0.0000 0.7071 -0.7071
vn 0.0000 1.0000 0.0000
vn 0.0000 -0.7071 -0.7071
vn 0.0000 -1.0000 0.0000
vn 0.0000 0.7071 0.7071
vn 0.0000 -0.0000 -1.0000
vn 0.0000 0.0000 1.0000
vn 0.0000 -0.7071 0.7071
usemtl None
s off
f 4/1/1 5/2/1 6/3/1 7/4/1
f 7/4/2 6/3/2 8/5/2 9/6/2
f 9/6/3 8/5/3 10/7/3 11/8/3
f 11/8/4 10/7/4 12/9/4 13/10/4
f 13/10/5 12/9/5 14/11/5 15/12/5
f 15/12/6 14/11/6 16/13/6 17/14/6
f 6/15/7 5/16/7 18/17/7 16/18/7 14/19/7 12/20/7 10/21/7 8/22/7
f 17/14/8 16/13/8 18/23/8 19/24/8
f 19/24/9 18/23/9 5/25/9 4/26/9
f 4/27/10 7/28/10 9/29/10 11/30/10 13/31/10 15/32/10 17/33/10 19/34/10
s 1
f 20/35/10 21/36/10 22/37/10 23/38/10
f 24/39/10 25/40/10 26/41/10 27/42/10
f 28/43/7 29/44/7 30/45/7 31/46/7
f 32/47/7 33/48/7 34/49/7 35/50/7
f 35/50/7 34/49/7 36/51/7 37/52/7
f 38/53/7 39/54/7 40/55/7 41/56/7
f 42/57/7 43/58/7 29/44/7 28/43/7
f 31/46/7 30/45/7 33/48/7 32/47/7
f 37/52/7 36/51/7 39/54/7 38/53/7
f 41/56/7 40/55/7 43/58/7 42/57/7
f 25/40/10 44/59/10 45/60/10 26/41/10
f 46/61/10 47/62/10 48/63/10 49/64/10
f 50/65/10 20/35/10 23/38/10 51/66/10
f 21/36/10 24/39/10 27/42/10 22/37/10
f 44/59/10 46/61/10 49/64/10 45/60/10
f 47/62/10 50/65/10 51/66/10 48/63/10
f 40/55/11 39/54/12 49/64/12 48/63/11
f 37/52/13 38/53/14 46/61/14 44/59/13
f 39/54/12 36/51/15 45/60/15 49/64/12
f 35/50/16 37/52/13 44/59/13 25/40/16
f 32/47/11 35/50/16 25/40/16 24/39/11
f 36/51/15 34/49/17 26/41/17 45/60/15
f 34/49/17 33/48/18 27/42/18 26/41/17
f 31/46/12 32/47/11 24/39/11 21/36/12
f 33/48/18 30/45/14 22/37/14 27/42/18
f 28/43/15 31/46/12 21/36/12 20/35/15
f 30/45/14 29/44/13 23/38/13 22/37/14
f 42/57/17 28/43/15 20/35/15 50/65/17
f 29/44/13 43/58/16 51/66/16 23/38/13
f 41/56/18 42/57/17 50/65/17 47/62/18
f 43/58/16 40/55/11 48/63/11 51/66/16
f 38/53/14 41/56/18 47/62/18 46/61/14
