# Blender v2.93.1 OBJ File: 'spasaasa12222.blend'
# www.blender.org
mtllib pupgripspas.mtl
o Cube_Cube.004
v -0.792959 -0.006980 0.112828
v -0.792959 0.186067 0.102850
v -0.792959 -0.006980 0.076542
v -0.792959 0.186067 0.066273
v -0.338996 -0.006980 0.112828
v -0.338996 0.186067 0.102850
v -0.338996 -0.006980 0.076542
v -0.338996 0.186067 0.066273
v -0.792959 0.059521 0.112828
v -0.792959 0.059521 0.076542
v -0.338996 0.059521 0.076542
v -0.338996 0.059521 0.112828
v 0.073513 -0.279299 0.093660
v 0.073513 0.012444 0.145871
v 0.073513 -0.279299 -0.093660
v 0.073513 0.012444 -0.145871
v 0.158169 -0.279299 0.093660
v 0.158169 0.012444 0.145871
v 0.158169 -0.279299 -0.093660
v 0.158169 0.012444 -0.145871
v 0.073513 -0.209092 0.145871
v 0.073513 -0.209092 -0.145871
v 0.158169 -0.209092 -0.145871
v 0.158169 -0.209092 0.145871
v 0.073513 -0.098324 0.153359
v 0.073513 -0.098324 -0.153359
v 0.158169 -0.098324 -0.153359
v 0.158169 -0.098324 0.153359
v 0.116114 -0.231378 0.104121
v 0.146772 0.069822 0.143973
v 0.116114 -0.231378 -0.104121
v 0.146772 0.069822 -0.147278
v 1.150943 -0.294074 0.104121
v 1.022902 0.069822 0.143973
v 1.150943 -0.294074 -0.104121
v 1.022902 0.069822 -0.147278
v 0.116114 -0.017210 0.144800
v 0.116114 -0.017210 -0.146452
v 1.150943 -0.017210 -0.146452
v 1.150943 -0.017210 0.144800
v 0.116114 -0.124294 -0.146039
v 1.150943 -0.124294 -0.146039
v 1.150943 -0.124294 0.145213
v 0.116114 -0.124294 0.145213
v 1.172738 -0.124294 -0.146039
v 1.172738 -0.231378 -0.113287
v 1.172738 -0.231378 0.113287
v 1.172738 -0.124294 0.145213
v 0.633529 -0.294074 -0.104121
v 0.584837 0.069822 -0.147278
v 0.633529 -0.294074 0.104121
v 0.584837 0.069822 0.143973
v 0.633529 -0.017210 0.144800
v 0.633529 -0.017210 -0.146452
v 0.633529 -0.124294 -0.146039
v 0.633529 -0.124294 0.145213
v 0.563726 -0.250197 -0.104121
v 0.525739 0.069822 0.143973
v 0.563726 -0.017210 0.144800
v 0.563726 -0.124294 0.145213
v 0.525739 0.069822 -0.147278
v 0.563726 -0.250197 0.104121
v 0.563726 -0.017210 -0.146452
v 0.563726 -0.124294 -0.146039
vt 0.448675 0.000000
vt 0.625000 0.000000
vt 0.625000 0.250000
vt 0.448675 0.250000
vt 0.625000 0.500000
vt 0.448675 0.500000
vt 0.625000 0.750000
vt 0.448675 0.750000
vt 0.625000 1.000000
vt 0.448675 1.000000
vt 0.125000 0.500000
vt 0.375000 0.500000
vt 0.375000 0.750000
vt 0.125000 0.750000
vt 0.875000 0.500000
vt 0.875000 0.750000
vt 0.375000 1.000000
vt 0.375000 0.250000
vt 0.375000 0.000000
vt 0.560618 0.000000
vt 0.625000 0.000000
vt 0.625000 0.250000
vt 0.560618 0.250000
vt 0.625000 0.500000
vt 0.560618 0.500000
vt 0.625000 0.750000
vt 0.560618 0.750000
vt 0.625000 1.000000
vt 0.560618 1.000000
vt 0.125000 0.500000
vt 0.375000 0.500000
vt 0.375000 0.750000
vt 0.125000 0.750000
vt 0.875000 0.500000
vt 0.875000 0.750000
vt 0.496237 0.750000
vt 0.496237 1.000000
vt 0.375000 1.000000
vt 0.496237 0.500000
vt 0.375000 0.250000
vt 0.496237 0.250000
vt 0.375000 0.000000
vt 0.496237 0.000000
vt 0.500000 0.000000
vt 0.625000 0.000000
vt 0.625000 0.250000
vt 0.500000 0.250000
vt 0.500000 0.375000
vt 0.625000 0.375000
vt 0.625000 0.500000
vt 0.500000 0.500000
vt 0.625000 0.750000
vt 0.500000 0.750000
vt 0.500000 0.891863
vt 0.625000 0.891863
vt 0.625000 1.000000
vt 0.500000 1.000000
vt 0.250000 0.500000
vt 0.375000 0.500000
vt 0.375000 0.750000
vt 0.250000 0.750000
vt 0.766863 0.500000
vt 0.875000 0.500000
vt 0.875000 0.750000
vt 0.766863 0.750000
vt 0.437500 0.891863
vt 0.437500 1.000000
vt 0.437500 0.500000
vt 0.437500 0.750000
vt 0.437500 0.375000
vt 0.437500 0.000000
vt 0.437500 0.250000
vt 0.375000 0.000000
vt 0.375000 0.250000
vt 0.375000 0.375000
vt 0.375000 0.750000
vt 0.437500 0.750000
vt 0.375000 0.891863
vt 0.375000 1.000000
vt 0.375000 0.500000
vt 0.437500 0.500000
vt 0.437500 0.875000
vt 0.375000 0.875000
vt 0.375000 0.358137
vt 0.437500 0.358137
vt 0.500000 0.358137
vt 0.500000 0.875000
vt 0.750000 0.500000
vt 0.750000 0.750000
vt 0.233137 0.500000
vt 0.233137 0.750000
vt 0.625000 0.875000
vt 0.625000 0.358137
vt 0.125000 0.500000
vt 0.125000 0.750000
vn -1.0000 -0.0000 0.0000
vn 0.0000 -0.0809 -0.9967
vn 1.0000 0.0000 0.0000
vn 0.0000 0.0786 0.9969
vn 0.0000 -1.0000 0.0000
vn 0.0000 1.0000 0.0000
vn 0.0000 0.0000 1.0000
vn 0.0000 0.0000 -1.0000
vn 0.0000 0.0674 -0.9977
vn -0.0000 0.0674 0.9977
vn 0.0000 -0.5967 0.8024
vn 0.0000 -0.5967 -0.8024
vn 0.0000 -0.0674 0.9977
vn 0.0000 -0.0674 -0.9977
vn -0.9858 0.1678 0.0000
vn -0.9432 0.3322 0.0000
vn -0.9856 0.1692 0.0000
vn 0.0000 -0.0067 -1.0000
vn 0.0000 -0.0095 -1.0000
vn 0.0000 -0.0054 -1.0000
vn 0.5622 0.8270 0.0000
vn 0.2936 0.9559 0.0000
vn 0.2946 0.9556 0.0000
vn 0.0000 0.0067 1.0000
vn 0.0000 0.0095 1.0000
vn 0.0000 0.0063 1.0000
vn -0.2769 -0.9609 0.0000
vn -0.0230 -0.1499 0.9884
vn -0.0035 -0.1668 0.9860
vn -0.0215 -0.1310 -0.9912
vn 0.0569 -0.1684 -0.9841
vn -0.0338 -0.2526 -0.9670
vn 0.0305 -0.2433 -0.9695
vn 0.0543 -0.1626 0.9852
vn 0.0290 -0.2387 0.9707
vn 0.1613 -0.2517 0.9543
vn -0.0515 -0.2950 0.9541
vn -0.0070 -0.3326 0.9430
vn 0.9895 -0.1446 0.0000
vn 0.9894 -0.1449 0.0000
vn 0.9446 -0.3284 0.0000
vn 0.1690 -0.2566 -0.9516
vn -0.0212 -0.1247 0.9920
vn -0.0332 -0.2480 0.9682
vn -0.0525 -0.3003 -0.9524
vn -0.0234 -0.1565 -0.9874
vn 0.0000 0.0054 1.0000
vn -0.2970 -0.9549 0.0000
vn 0.0000 -0.0063 -1.0000
vn -0.0420 -0.9991 0.0000
vn -0.0036 -0.1737 -0.9848
vn -0.0071 -0.3386 -0.9409
usemtl None
s off
f 9/1/1 2/2/1 4/3/1 10/4/1
f 10/4/2 4/3/2 8/5/2 11/6/2
f 11/6/3 8/5/3 6/7/3 12/8/3
f 12/8/4 6/7/4 2/9/4 9/10/4
f 3/11/5 7/12/5 5/13/5 1/14/5
f 8/5/6 4/15/6 2/16/6 6/7/6
f 5/13/7 12/8/7 9/10/7 1/17/7
f 7/12/3 11/6/3 12/8/3 5/13/3
f 3/18/8 10/4/8 11/6/8 7/12/8
f 1/19/1 9/1/1 10/4/1 3/18/1
f 25/20/1 14/21/1 16/22/1 26/23/1
f 26/23/9 16/22/9 20/24/9 27/25/9
f 27/25/3 20/24/3 18/26/3 28/27/3
f 28/27/10 18/26/10 14/28/10 25/29/10
f 15/30/5 19/31/5 17/32/5 13/33/5
f 20/24/6 16/34/6 14/35/6 18/26/6
f 17/32/11 24/36/11 21/37/11 13/38/11
f 19/31/3 23/39/3 24/36/3 17/32/3
f 15/40/12 22/41/12 23/39/12 19/31/12
f 13/42/1 21/43/1 22/41/1 15/40/1
f 24/36/13 28/27/13 25/29/13 21/37/13
f 23/39/3 27/25/3 28/27/3 24/36/3
f 22/41/14 26/23/14 27/25/14 23/39/14
f 21/43/1 25/20/1 26/23/1 22/41/1
s 1
f 37/44/15 30/45/16 32/46/16 38/47/17
f 54/48/18 50/49/19 36/50/19 39/51/20
f 39/51/21 36/50/22 34/52/23 40/53/21
f 59/54/24 58/55/25 30/56/25 37/57/26
f 49/58/27 35/59/5 33/60/5 51/61/27
f 61/62/6 32/63/6 30/64/6 58/65/6
f 60/66/28 59/54/24 37/57/26 44/67/29
f 42/68/3 39/51/3 40/53/3 43/69/3
f 55/70/30 54/48/18 39/51/20 42/68/31
f 44/71/1 37/44/15 38/47/17 41/72/1
f 29/73/1 44/71/1 41/72/1 31/74/1
f 49/75/32 55/70/30 42/68/31 35/59/33
f 43/69/34 33/60/35 47/76/36 48/77/36
f 62/78/37 60/66/28 44/67/29 29/79/38
f 46/80/39 45/81/3 48/77/3 47/76/40
f 33/60/41 35/59/41 46/80/39 47/76/40
f 35/59/33 42/68/31 45/81/42 46/80/42
f 42/68/6 43/69/6 48/77/6 45/81/6
f 33/60/35 43/69/34 56/82/43 51/83/44
f 57/84/45 64/85/46 55/70/30 49/75/32
f 64/85/46 63/86/18 54/48/18 55/70/30
f 43/69/34 40/53/47 53/87/24 56/82/43
f 36/50/22 50/88/6 52/89/6 34/52/23
f 57/90/48 49/58/27 51/61/27 62/91/48
f 40/53/47 34/52/25 52/92/25 53/87/24
f 63/86/18 61/93/19 50/49/19 54/48/18
f 38/47/49 32/46/19 61/93/19 63/86/18
f 31/94/50 57/90/48 62/91/48 29/95/50
f 41/72/51 38/47/49 63/86/18 64/85/46
f 31/74/52 41/72/51 64/85/46 57/84/45
f 51/83/44 56/82/43 60/66/28 62/78/37
f 56/82/43 53/87/24 59/54/24 60/66/28
f 50/88/6 61/62/6 58/65/6 52/89/6
f 53/87/24 52/92/25 58/55/25 59/54/24
