# Blender v2.93.1 OBJ File: 'spasaasa12222.blend'
# www.blender.org
mtllib spasaasa12222st.mtl
o Cube.006
v 1.495415 0.096567 0.098942
v 1.495415 0.113980 0.095356
v 1.495415 0.113980 0.063135
v 1.197146 0.051887 0.098942
v 1.495415 0.051887 0.063135
v 1.197146 0.051887 0.063135
v 1.197146 0.113980 0.063135
v 1.145412 0.096567 0.098942
v 1.145412 0.113980 0.095356
v 1.145412 0.113980 0.063135
v 1.116512 0.051887 0.098942
v 1.145412 0.051887 0.098942
v 1.145412 0.051887 0.063135
v 1.016017 0.113980 0.097008
v 0.847144 0.113980 0.097832
v 0.847144 0.113980 0.063135
v 1.835915 0.096567 0.098942
v 1.835915 0.113980 0.095356
v 1.835915 0.113980 0.063135
v 1.537647 0.051887 0.098942
v 1.835915 0.051887 0.063135
v 1.537647 0.051887 0.063135
v 1.537647 0.113980 0.063135
v 1.846918 -0.083829 0.098942
v 1.846918 -0.021737 0.063135
v 1.846918 -0.083829 0.063135
v 1.373887 -0.083829 0.098942
v 1.373887 -0.083829 0.063135
v 1.846918 -0.021737 0.098942
v 1.373887 -0.021737 0.063135
v 1.291839 -0.083829 0.098942
v 1.291839 -0.021737 0.063135
v 1.291839 -0.083829 0.063135
v 1.116512 -0.083829 0.098942
v 1.016017 -0.021737 0.098942
v 0.818807 -0.021737 0.098942
v 0.818807 -0.021737 0.063135
v 1.835915 0.113980 -0.063135
v 1.835915 0.113980 -0.095356
v 1.835915 0.096567 -0.098942
v 1.537647 0.113980 -0.063135
v 1.846918 -0.021737 -0.063135
v 1.846918 -0.083829 -0.098942
v 1.846918 -0.083829 -0.063135
v 1.373887 -0.083829 -0.098942
v 1.373887 -0.083829 -0.063135
v 1.373887 -0.021737 -0.063135
v 1.846918 -0.021737 -0.098942
v 1.291839 -0.021737 -0.063135
v 1.291839 -0.083829 -0.098942
v 1.291839 -0.083829 -0.063135
v 1.537647 0.113980 0.095356
v 1.537647 0.096567 0.098942
v 1.197146 0.113980 0.095356
v 1.197147 0.096567 0.098942
v 0.818807 -0.083829 0.063135
v 0.818807 -0.083829 0.098942
v 1.373887 -0.021737 0.098942
v 1.373887 -0.057901 0.098942
v 0.847144 0.108120 0.098942
v 1.116512 -0.083829 -0.098942
v 1.197146 0.113980 -0.063135
v 1.495415 0.113980 -0.095356
v 1.495415 0.113980 -0.063135
v 0.847144 0.113980 -0.063135
v 0.847144 0.113980 -0.097832
v 1.016017 0.113980 -0.097008
v 1.835915 0.051887 -0.063135
v 1.537647 0.051887 -0.098942
v 1.537647 0.051887 -0.063135
v 1.495415 0.051887 -0.063135
v 1.197146 0.051887 -0.098942
v 1.197146 0.051887 -0.063135
v 1.495415 0.096567 -0.098942
v 1.016017 -0.021737 -0.098942
v 1.116512 -0.021737 -0.098942
v 1.145412 0.051887 -0.063135
v 1.116512 0.051887 -0.098942
v 1.016017 0.051887 -0.098942
v 1.145412 0.113980 -0.063135
v 1.145412 0.113980 -0.095356
v 1.145412 0.096567 -0.098942
v 1.537647 0.096567 -0.098942
v 1.197147 0.096567 -0.098942
v 0.818807 -0.021737 -0.098942
v 0.818807 -0.083829 -0.063135
v 0.818807 -0.083829 -0.098942
v 1.373887 -0.057901 -0.098942
v 0.847144 0.108120 -0.098942
v 0.847144 0.051887 -0.063135
v 0.424752 0.264777 0.120896
v 0.419360 0.267011 0.120896
v 0.424752 0.264777 0.093761
v 0.469402 0.220373 0.120896
v 0.456447 0.251649 0.093761
v 0.469402 0.220373 0.093761
v 0.471809 0.214562 0.093761
v 0.456447 0.177475 0.120896
v 0.471809 0.214562 0.120896
v 0.452808 0.175968 0.093761
v 0.419360 0.162114 0.120896
v 0.452808 0.175968 0.120896
v 0.385912 0.175968 0.120896
v 0.419360 0.162114 0.093761
v 0.366912 0.214562 0.120896
v 0.382273 0.177475 0.093761
v 0.366912 0.214562 0.093761
v 0.369318 0.220373 0.120896
v 0.369318 0.220373 0.093761
v 0.413968 0.264777 0.093761
v 0.419360 0.267011 0.093761
v 0.555824 0.264777 0.120896
v 0.550432 0.267011 0.120896
v 0.555824 0.264777 0.093761
v 0.600473 0.220373 0.120896
v 0.587519 0.251649 0.093761
v 0.600473 0.220373 0.093761
v 0.602880 0.214562 0.093761
v 0.587519 0.177475 0.120896
v 0.602880 0.214562 0.120896
v 0.583880 0.175968 0.093761
v 0.550432 0.162114 0.093761
v 0.550432 0.162114 0.120896
v 0.516984 0.175968 0.120896
v 0.497983 0.214562 0.120896
v 0.513345 0.177475 0.093761
v 0.497983 0.214562 0.093761
v 0.500390 0.220373 0.120896
v 0.500390 0.220373 0.093761
v 0.550432 0.267011 0.093761
v 0.545040 0.264777 0.120896
v 0.686894 0.264777 0.120896
v 0.681501 0.267011 0.120896
v 0.686894 0.264777 0.093761
v 0.733950 0.214562 0.093761
v 0.733950 0.214562 0.120896
v 0.731543 0.220373 0.120896
v 0.718588 0.177475 0.120896
v 0.714949 0.175968 0.093761
v 0.681501 0.162114 0.093761
v 0.681501 0.162114 0.120896
v 0.648053 0.175968 0.120896
v 0.629053 0.214562 0.120896
v 0.644415 0.177475 0.093761
v 0.629053 0.214562 0.093761
v 0.631460 0.220373 0.120896
v 0.631460 0.220373 0.093761
v 0.676109 0.264777 0.093761
v 0.681501 0.267011 0.093761
v 0.829148 0.264777 0.093761
v 0.860842 0.251649 0.093761
v 0.860842 0.251649 0.120896
v 0.873797 0.220373 0.120896
v 0.873797 0.220373 0.093761
v 0.876204 0.214562 0.093761
v 0.860842 0.177475 0.120896
v 0.876204 0.214562 0.120896
v 0.857203 0.175968 0.120896
v 0.860842 0.177475 0.093761
v 0.857203 0.175968 0.093761
v 0.790307 0.175968 0.120896
v 0.823755 0.162114 0.093761
v 0.790307 0.175968 0.093761
v 0.786668 0.177475 0.120896
v 0.771307 0.214562 0.093761
v 0.771307 0.214562 0.120896
v 0.773714 0.220373 0.093761
v 0.786668 0.251649 0.093761
v 0.786668 0.251649 0.120896
v 0.818363 0.264777 0.093761
v 0.823755 0.267011 0.093761
v 0.823755 0.267011 0.120896
v 0.424752 0.264777 -0.115867
v 0.456447 0.251649 -0.088732
v 0.424752 0.264777 -0.088732
v 0.469402 0.220373 -0.115867
v 0.471809 0.214562 -0.115867
v 0.469402 0.220373 -0.088732
v 0.456447 0.177475 -0.115867
v 0.471809 0.214562 -0.088732
v 0.452808 0.175968 -0.088732
v 0.456447 0.177475 -0.088732
v 0.452808 0.175968 -0.115867
v 0.382273 0.177475 -0.115867
v 0.382273 0.177475 -0.088732
v 0.385912 0.175968 -0.088732
v 0.366912 0.214562 -0.115867
v 0.366912 0.214562 -0.088732
v 0.369318 0.220373 -0.088732
v 0.369318 0.220373 -0.115867
v 0.413968 0.264777 -0.088732
v 0.382273 0.251649 -0.088732
v 0.382273 0.251649 -0.115867
v 0.555824 0.264777 -0.115867
v 0.587519 0.251649 -0.088732
v 0.555824 0.264777 -0.088732
v 0.600473 0.220373 -0.115867
v 0.602880 0.214562 -0.115867
v 0.600473 0.220373 -0.088732
v 0.587519 0.177475 -0.115867
v 0.602880 0.214562 -0.088732
v 0.583880 0.175968 -0.088732
v 0.587519 0.177475 -0.088732
v 0.513345 0.177475 -0.115867
v 0.513345 0.177475 -0.088732
v 0.516984 0.175968 -0.088732
v 0.497983 0.214562 -0.115867
v 0.497983 0.214562 -0.088732
v 0.500390 0.220373 -0.088732
v 0.500390 0.220373 -0.115867
v 0.545040 0.264777 -0.088732
v 0.513345 0.251649 -0.088732
v 0.513345 0.251649 -0.115867
v 0.686894 0.264777 -0.115867
v 0.718588 0.251649 -0.088732
v 0.686894 0.264777 -0.088732
v 0.731543 0.220373 -0.088732
v 0.718588 0.251649 -0.115867
v 0.718588 0.177475 -0.115867
v 0.733950 0.214562 -0.088732
v 0.733950 0.214562 -0.115867
v 0.714949 0.175968 -0.088732
v 0.718588 0.177475 -0.088732
v 0.644415 0.177475 -0.115867
v 0.644415 0.177475 -0.088732
v 0.648053 0.175968 -0.088732
v 0.629053 0.214562 -0.115867
v 0.629053 0.214562 -0.088732
v 0.631460 0.220373 -0.088732
v 0.631460 0.220373 -0.115867
v 0.676109 0.264777 -0.088732
v 0.644415 0.251649 -0.088732
v 0.644415 0.251649 -0.115867
v 0.823755 0.267011 -0.088732
v 0.823755 0.267011 -0.115867
v 0.829148 0.264777 -0.115867
v 0.873797 0.220373 -0.088732
v 0.860842 0.251649 -0.115867
v 0.873797 0.220373 -0.115867
v 0.860842 0.177475 -0.115867
v 0.876204 0.214562 -0.088732
v 0.876204 0.214562 -0.115867
v 0.857203 0.175968 -0.088732
v 0.857203 0.175968 -0.115867
v 0.790307 0.175968 -0.115867
v 0.786668 0.177475 -0.115867
v 0.790307 0.175968 -0.088732
v 0.771307 0.214562 -0.088732
v 0.771307 0.214562 -0.115867
v 0.773714 0.220373 -0.088732
v 0.818363 0.264777 -0.088732
v 0.786668 0.251649 -0.088732
v 0.786668 0.251649 -0.115867
v 1.495415 0.051887 0.098942
v 0.847144 0.051887 0.063135
v 1.016017 0.051887 0.098942
v 0.847144 0.051887 0.098942
v 1.116512 0.113980 0.095356
v 1.835915 0.051887 0.098942
v 1.291839 -0.021737 0.098942
v 1.016017 -0.083829 0.098942
v 1.116512 -0.021737 0.098942
v 1.835915 0.051887 -0.098942
v 1.537647 0.113980 -0.095356
v 1.373887 -0.021737 -0.098942
v 1.291839 -0.021737 -0.098942
v 1.016017 -0.083829 -0.098942
v 1.197146 0.113980 -0.095356
v 1.116512 0.113980 -0.095356
v 1.495415 0.051887 -0.098942
v 0.818807 -0.021737 -0.063135
v 0.847144 0.051887 -0.098942
v 1.145412 0.051887 -0.098942
v 0.456447 0.251649 0.120896
v 0.456447 0.177475 0.093761
v 0.385912 0.175968 0.093761
v 0.382273 0.177475 0.120896
v 0.382273 0.251649 0.093761
v 0.382273 0.251649 0.120896
v 0.413968 0.264777 0.120896
v 0.587519 0.251649 0.120896
v 0.587519 0.177475 0.093761
v 0.583880 0.175968 0.120896
v 0.516984 0.175968 0.093761
v 0.513345 0.177475 0.120896
v 0.513345 0.251649 0.093761
v 0.513345 0.251649 0.120896
v 0.545040 0.264777 0.093761
v 0.718588 0.251649 0.093761
v 0.718588 0.251649 0.120896
v 0.731543 0.220373 0.093761
v 0.718588 0.177475 0.093761
v 0.714949 0.175968 0.120896
v 0.648053 0.175968 0.093761
v 0.644415 0.177475 0.120896
v 0.644415 0.251649 0.093761
v 0.644415 0.251649 0.120896
v 0.676109 0.264777 0.120896
v 0.829148 0.264777 0.120896
v 0.823755 0.162114 0.120896
v 0.786668 0.177475 0.093761
v 0.773714 0.220373 0.120896
v 0.818363 0.264777 0.120896
v 0.419360 0.267011 -0.088732
v 0.419360 0.267011 -0.115867
v 0.456447 0.251649 -0.115867
v 0.419360 0.162114 -0.115867
v 0.419360 0.162114 -0.088732
v 0.385912 0.175968 -0.115867
v 0.413968 0.264777 -0.115867
v 0.550432 0.267011 -0.088732
v 0.550432 0.267011 -0.115867
v 0.587519 0.251649 -0.115867
v 0.583880 0.175968 -0.115867
v 0.550432 0.162114 -0.115867
v 0.550432 0.162114 -0.088732
v 0.516984 0.175968 -0.115867
v 0.545040 0.264777 -0.115867
v 0.681501 0.267011 -0.088732
v 0.681501 0.267011 -0.115867
v 0.731543 0.220373 -0.115867
v 0.714949 0.175968 -0.115867
v 0.681501 0.162114 -0.115867
v 0.681501 0.162114 -0.088732
v 0.648053 0.175968 -0.115867
v 0.676109 0.264777 -0.115867
v 0.860842 0.251649 -0.088732
v 0.829148 0.264777 -0.088732
v 0.860842 0.177475 -0.088732
v 0.823755 0.162114 -0.115867
v 0.823755 0.162114 -0.088732
v 0.786668 0.177475 -0.088732
v 0.773714 0.220373 -0.115867
v 0.818363 0.264777 -0.115867
v 1.858921 0.162613 0.085341
v 1.908162 0.162613 0.000000
v 1.858921 0.162613 0.000000
v 1.858921 -0.186012 -0.000000
v 1.116512 -0.186012 0.054329
v 1.116512 -0.186012 -0.000000
v 0.764308 0.188565 0.000000
v 1.016017 0.175589 0.085341
v 1.016017 0.175589 0.000000
v 1.116512 0.162613 0.085341
v 1.016017 -0.184587 -0.000000
v 1.016017 -0.184587 0.054329
v 0.764308 -0.184587 -0.000000
v 0.764308 -0.184587 0.054329
v 1.116512 0.162613 0.000000
v 1.016017 -0.137498 0.098942
v 1.116512 -0.139866 0.098942
v 1.016017 0.175589 -0.085341
v 1.116512 0.162613 -0.085341
v 1.858921 -0.139866 -0.098942
v 1.908162 -0.186012 -0.054329
v 1.858921 -0.186012 -0.054329
v 1.858921 0.096567 0.098942
v 1.908162 0.162613 0.085341
v 1.116512 -0.186012 -0.054329
v 1.908162 -0.186012 -0.000000
v 1.858921 -0.139866 0.098942
v 1.858921 -0.186012 0.054329
v 1.016017 -0.184587 -0.054329
v 1.858921 0.162613 -0.085341
v 0.764308 0.188565 0.085341
v 0.764308 0.110256 0.098942
v 0.764308 -0.136438 -0.000000
v 0.764308 -0.136438 0.098942
v 0.764308 0.110256 0.000000
v 1.016017 -0.137498 -0.098942
v 1.116512 -0.139866 -0.098942
v 0.764308 -0.136438 -0.098942
v 1.908162 0.096567 -0.098942
v 1.858921 0.096567 -0.098942
v 1.908162 0.162613 -0.085341
v 0.764308 -0.184587 -0.054329
v 0.764308 0.110256 -0.098942
v 0.764308 0.188565 -0.085341
v 1.908162 0.096567 0.000000
v 1.908162 0.096567 0.098942
v 1.908162 -0.139866 0.098942
v 1.908162 -0.139866 -0.000000
v 1.908162 -0.186012 0.054329
v 1.908162 -0.139866 -0.098942
v 0.912129 0.128145 -0.120232
v 0.912129 0.128145 0.125262
v 0.912129 0.184646 0.002515
v 0.912129 0.325088 -0.120232
v 1.237225 0.128145 -0.120232
v 1.237225 0.128145 0.125262
v 1.237225 0.184646 0.002515
v 1.237225 0.325088 -0.120232
v 1.237225 0.325088 0.125262
v 1.237225 0.296153 0.002515
v 1.182274 0.325088 0.095865
v 0.912129 0.212897 -0.090836
v 1.182274 0.325088 -0.090836
v 0.912129 0.325088 -0.090836
v 1.182274 0.296153 0.002515
v 1.182274 0.212897 0.095865
v 0.912129 0.325088 0.095865
v 1.182274 0.212897 -0.090836
v 0.912129 0.212897 -0.041847
v 1.182274 0.212897 -0.041847
v 0.912129 0.212897 0.095865
v 1.182274 0.212897 0.046877
v 0.912129 0.212897 0.046877
v 0.912129 0.200976 -0.036909
v 1.237225 0.200976 -0.036909
v 0.912129 0.200976 0.041939
v 1.237225 0.200976 0.041939
v 1.237225 0.240399 0.058268
v 1.182274 0.240399 0.058268
v 1.237225 0.279823 0.041939
v 1.182274 0.279823 0.041939
v 1.237225 0.279823 -0.036909
v 1.182274 0.279823 -0.036909
v 1.182274 0.240399 -0.053239
v 1.237225 0.240399 -0.053239
v 0.246907 0.309182 0.093761
v -0.207608 0.107770 0.120896
v 0.246907 0.309182 0.120896
v 0.941736 0.309182 0.093761
v 0.941736 0.264777 0.120896
v 0.941736 0.264777 0.093761
v 0.941736 0.131564 0.093761
v 0.330200 0.131564 0.120896
v 0.330200 0.131564 0.093761
v 0.941736 0.309182 0.120896
v -0.234817 0.043627 0.093761
v -0.234817 0.043627 0.120896
v -0.124316 -0.069847 0.093761
v 0.309377 0.175968 0.093761
v -0.193171 -0.045182 0.093761
v 0.267730 0.264777 0.120896
v 0.288554 0.220373 0.120896
v -0.193171 -0.045182 0.120896
v 0.309377 0.175968 0.120896
v 0.288554 0.220373 0.093761
v 0.267730 0.264777 0.093761
v -0.224790 -0.005214 0.093761
v 0.941736 0.175968 0.120896
v 0.941736 0.220373 0.093761
v 0.941736 0.175968 0.093761
v 0.941736 0.131564 0.120896
v -0.124316 -0.069847 0.120896
v -0.207608 0.107770 0.093761
v -0.224790 -0.005214 0.120896
v 0.941736 0.220373 0.120896
v -0.207608 0.107770 -0.115867
v 0.246907 0.309182 -0.088732
v 0.246907 0.309182 -0.115867
v 0.941736 0.309182 -0.088732
v 0.941736 0.264777 -0.115867
v 0.941736 0.264777 -0.088732
v 0.330200 0.131564 -0.115867
v 0.941736 0.131564 -0.088732
v 0.330200 0.131564 -0.088732
v 0.941736 0.309182 -0.115867
v -0.234817 0.043627 -0.088732
v -0.234817 0.043627 -0.115867
v -0.124316 -0.069847 -0.088732
v 0.309377 0.175968 -0.088732
v 0.267730 0.264777 -0.115867
v -0.193171 -0.045182 -0.115867
v 0.288554 0.220373 -0.115867
v 0.309377 0.175968 -0.115867
v 0.288554 0.220373 -0.088732
v 0.267730 0.264777 -0.088732
v -0.224790 -0.005214 -0.088732
v -0.224790 -0.005214 -0.115867
v 0.941736 0.220373 -0.115867
v 0.941736 0.175968 -0.115867
v 0.941736 0.220373 -0.088732
v 0.941736 0.175968 -0.088732
v 0.941736 0.131564 -0.115867
v -0.124316 -0.069847 -0.115867
v -0.193171 -0.045182 -0.088732
v -0.207608 0.107770 -0.088732
v 0.912129 0.325088 0.125262
vt 0.554892 0.530372
vt 0.625000 0.527330
vt 0.625000 0.500000
vt 0.125000 0.530372
vt 0.375000 0.500000
vt 0.125000 0.500000
vt 0.875000 0.500000
vt 0.554892 0.530372
vt 0.625000 0.527330
vt 0.625000 0.500000
vt 0.350777 0.530372
vt 0.375000 0.530372
vt 0.375000 0.500000
vt 0.733455 0.528731
vt 0.875000 0.529431
vt 0.875000 0.500000
vt 0.554892 0.530372
vt 0.625000 0.527330
vt 0.625000 0.500000
vt 0.125000 0.530372
vt 0.375000 0.500000
vt 0.125000 0.500000
vt 0.875000 0.500000
vt 0.375000 0.530372
vt 0.625000 0.500000
vt 0.375000 0.500000
vt 0.125000 0.530372
vt 0.125000 0.500000
vt 0.625000 0.530372
vt 0.875000 0.500000
vt 0.375000 0.530372
vt 0.625000 0.500000
vt 0.375000 0.500000
vt 0.282339 0.530372
vt 0.770774 0.530372
vt 0.875000 0.530372
vt 0.875000 0.500000
vt 0.625000 0.500000
vt 0.625000 0.527330
vt 0.554892 0.530372
vt 0.875000 0.500000
vt 0.625000 0.500000
vt 0.375000 0.530372
vt 0.375000 0.500000
vt 0.125000 0.530372
vt 0.125000 0.500000
vt 0.875000 0.500000
vt 0.625000 0.530372
vt 0.625000 0.500000
vt 0.375000 0.530372
vt 0.375000 0.500000
vt 0.625000 0.250000
vt 0.625000 0.222670
vt 0.554892 0.219628
vt 0.625000 0.250000
vt 0.625000 0.222670
vt 0.554892 0.219628
vt 0.375000 0.250000
vt 0.625000 0.219628
vt 0.375000 0.219628
vt 0.625000 0.250000
vt 0.625000 0.219628
vt 0.479395 0.219628
vt 0.625000 0.250000
vt 0.625000 0.220569
vt 0.601409 0.219628
vt 0.282339 0.530372
vt 0.875000 0.500000
vt 0.625000 0.527330
vt 0.625000 0.500000
vt 0.875000 0.500000
vt 0.875000 0.529431
vt 0.733455 0.528731
vt 0.375000 0.500000
vt 0.125000 0.530372
vt 0.125000 0.500000
vt 0.375000 0.500000
vt 0.125000 0.530372
vt 0.125000 0.500000
vt 0.554892 0.530372
vt 0.770774 0.530372
vt 0.717661 0.530372
vt 0.375000 0.500000
vt 0.350777 0.530372
vt 0.266545 0.530372
vt 0.625000 0.500000
vt 0.625000 0.527330
vt 0.554892 0.530372
vt 0.554892 0.219628
vt 0.625000 0.250000
vt 0.375000 0.250000
vt 0.554892 0.219628
vt 0.625000 0.250000
vt 0.375000 0.250000
vt 0.625000 0.219628
vt 0.375000 0.250000
vt 0.375000 0.219628
vt 0.479395 0.219628
vt 0.625000 0.250000
vt 0.375000 0.250000
vt 0.601409 0.219628
vt 0.625000 0.250000
vt 0.375000 0.250000
vt 0.981826 0.928034
vt 1.000000 0.928034
vt 0.981825 0.887225
vt 0.769584 0.928034
vt 0.875000 0.887225
vt 0.769584 0.887225
vt 0.750000 0.887225
vt 0.625000 0.928034
vt 0.750000 0.928034
vt 0.612736 0.887225
vt 0.500000 0.928034
vt 0.612736 0.928033
vt 0.387264 0.928034
vt 0.500000 0.887225
vt 0.250000 0.928034
vt 0.375000 0.887225
vt 0.250000 0.887225
vt 0.230416 0.928034
vt 0.230416 0.887225
vt 0.018174 0.887225
vt 0.000000 0.887225
vt 0.000000 0.928034
vt 0.981826 0.928034
vt 1.000000 0.928034
vt 0.981825 0.887225
vt 0.769584 0.928034
vt 0.875000 0.887225
vt 0.769584 0.887225
vt 0.750000 0.887225
vt 0.625000 0.928034
vt 0.750000 0.928034
vt 0.612736 0.887225
vt 0.500000 0.887225
vt 0.500000 0.928034
vt 0.387264 0.928034
vt 0.250000 0.928034
vt 0.375000 0.887225
vt 0.250000 0.887225
vt 0.230416 0.928034
vt 0.230416 0.887225
vt 0.000000 0.887225
vt 0.000000 0.928034
vt 0.018174 0.928034
vt 0.981826 0.928034
vt 1.000000 0.928034
vt 0.981825 0.887225
vt 0.750000 0.887225
vt 0.750000 0.928034
vt 0.769584 0.928034
vt 0.625000 0.928034
vt 0.612736 0.887226
vt 0.500000 0.887225
vt 0.500000 0.928034
vt 0.387264 0.928034
vt 0.250000 0.928034
vt 0.375000 0.887225
vt 0.250000 0.887225
vt 0.230416 0.928034
vt 0.230416 0.887225
vt 0.018174 0.887225
vt 0.000000 0.887225
vt 0.000000 0.928034
vt 0.981826 0.887225
vt 0.875000 0.887225
vt 0.875000 0.928034
vt 0.769584 0.928034
vt 0.769584 0.887226
vt 0.750000 0.887225
vt 0.625000 0.928034
vt 0.750000 0.928034
vt 0.612736 0.928034
vt 0.625000 0.887225
vt 0.612736 0.887225
vt 0.387264 0.928034
vt 0.500000 0.887225
vt 0.387264 0.887225
vt 0.375000 0.928034
vt 0.250000 0.887225
vt 0.250000 0.928034
vt 0.230416 0.887225
vt 0.125000 0.887225
vt 0.125000 0.928034
vt 0.018174 0.887225
vt 0.000000 0.887225
vt 0.000000 0.928034
vt 0.981826 0.071966
vt 0.875000 0.112775
vt 0.981825 0.112775
vt 0.769584 0.071966
vt 0.750000 0.071966
vt 0.769584 0.112775
vt 0.625000 0.071966
vt 0.750000 0.112775
vt 0.612736 0.112775
vt 0.625000 0.112775
vt 0.612736 0.071967
vt 0.375000 0.071966
vt 0.375000 0.112775
vt 0.387264 0.112775
vt 0.250000 0.071966
vt 0.250000 0.112775
vt 0.230416 0.112775
vt 0.230416 0.071966
vt 0.018174 0.112775
vt 0.125000 0.112775
vt 0.125000 0.071966
vt 0.981826 0.071966
vt 0.875000 0.112775
vt 0.981825 0.112775
vt 0.769584 0.071966
vt 0.750000 0.071966
vt 0.769584 0.112775
vt 0.625000 0.071966
vt 0.750000 0.112775
vt 0.612736 0.112775
vt 0.625000 0.112775
vt 0.375000 0.071966
vt 0.375000 0.112775
vt 0.387264 0.112774
vt 0.250000 0.071966
vt 0.250000 0.112775
vt 0.230416 0.112775
vt 0.230416 0.071966
vt 0.018174 0.112775
vt 0.125000 0.112775
vt 0.125000 0.071966
vt 0.981826 0.071966
vt 0.875000 0.112775
vt 0.981825 0.112775
vt 0.769584 0.112775
vt 0.875000 0.071966
vt 0.625000 0.071966
vt 0.750000 0.112775
vt 0.750000 0.071966
vt 0.612736 0.112774
vt 0.625000 0.112775
vt 0.375000 0.071966
vt 0.375000 0.112775
vt 0.387264 0.112774
vt 0.250000 0.071966
vt 0.250000 0.112775
vt 0.230416 0.112775
vt 0.230416 0.071966
vt 0.018174 0.112775
vt 0.125000 0.112775
vt 0.125000 0.071966
vt 1.000000 0.112775
vt 1.000000 0.071966
vt 0.981825 0.071966
vt 0.769584 0.112774
vt 0.875000 0.071966
vt 0.769584 0.071966
vt 0.625000 0.071966
vt 0.750000 0.112775
vt 0.750000 0.071966
vt 0.612736 0.112775
vt 0.612736 0.071966
vt 0.387264 0.071966
vt 0.375000 0.071966
vt 0.387264 0.112775
vt 0.250000 0.112775
vt 0.250000 0.071966
vt 0.230416 0.112775
vt 0.018174 0.112775
vt 0.125000 0.112774
vt 0.125000 0.071966
vt 0.375000 0.530372
vt 0.875000 0.527330
vt 0.125000 0.500000
vt 0.266545 0.530372
vt 0.125000 0.530372
vt 0.649223 0.527330
vt 0.375000 0.530372
vt 0.875000 0.527330
vt 0.875000 0.530372
vt 0.625000 0.530372
vt 0.125000 0.500000
vt 0.229226 0.530372
vt 0.125000 0.530372
vt 0.717661 0.530372
vt 0.375000 0.530372
vt 0.875000 0.527330
vt 0.875000 0.530372
vt 0.625000 0.530372
vt 0.375000 0.219628
vt 0.375000 0.250000
vt 0.375000 0.219628
vt 0.375000 0.250000
vt 0.625000 0.250000
vt 0.375000 0.219628
vt 0.375000 0.250000
vt 0.375000 0.219628
vt 0.375000 0.250000
vt 0.125000 0.530372
vt 0.125000 0.500000
vt 0.229226 0.530372
vt 0.875000 0.527330
vt 0.649223 0.527330
vt 0.375000 0.530372
vt 0.875000 0.500000
vt 0.875000 0.530372
vt 0.125000 0.530372
vt 0.125000 0.500000
vt 0.375000 0.530372
vt 0.375000 0.219628
vt 0.625000 0.222670
vt 0.375000 0.219628
vt 0.625000 0.222670
vt 0.625000 0.250000
vt 0.375000 0.219628
vt 0.625000 0.219628
vt 0.375000 0.219628
vt 0.625000 0.220569
vt 1.000000 0.887225
vt 0.875000 0.928034
vt 0.625000 0.887225
vt 0.387264 0.887225
vt 0.375000 0.928034
vt 0.125000 0.887225
vt 0.125000 0.928034
vt 0.018174 0.928034
vt 1.000000 0.887225
vt 0.875000 0.928034
vt 0.625000 0.887225
vt 0.612736 0.928033
vt 0.387264 0.887226
vt 0.375000 0.928034
vt 0.125000 0.887225
vt 0.125000 0.928034
vt 0.018174 0.887225
vt 1.000000 0.887225
vt 0.875000 0.887225
vt 0.875000 0.928034
vt 0.769584 0.887225
vt 0.625000 0.887226
vt 0.612736 0.928034
vt 0.387264 0.887226
vt 0.375000 0.928034
vt 0.125000 0.887226
vt 0.125000 0.928034
vt 0.018174 0.928034
vt 0.981825 0.928034
vt 1.000000 0.928034
vt 1.000000 0.887225
vt 0.500000 0.928034
vt 0.375000 0.887226
vt 0.230416 0.928034
vt 0.018174 0.928034
vt 1.000000 0.112775
vt 1.000000 0.071966
vt 0.875000 0.071966
vt 0.500000 0.071966
vt 0.500000 0.112775
vt 0.387264 0.071966
vt 0.018174 0.071966
vt 0.000000 0.071966
vt 0.000000 0.112775
vt 1.000000 0.112775
vt 1.000000 0.071966
vt 0.875000 0.071966
vt 0.612736 0.071967
vt 0.500000 0.071966
vt 0.500000 0.112775
vt 0.387264 0.071966
vt 0.018174 0.071966
vt 0.000000 0.071966
vt 0.000000 0.112775
vt 1.000000 0.112775
vt 1.000000 0.071966
vt 0.769584 0.071966
vt 0.612736 0.071966
vt 0.500000 0.071966
vt 0.500000 0.112775
vt 0.387264 0.071966
vt 0.018174 0.071966
vt 0.000000 0.071966
vt 0.000000 0.112775
vt 0.875000 0.112775
vt 0.981826 0.112775
vt 0.625000 0.112775
vt 0.500000 0.071966
vt 0.500000 0.112775
vt 0.375000 0.112774
vt 0.230416 0.071966
vt 0.018174 0.071966
vt 0.000000 0.071966
vt 0.000000 0.112775
vt 0.625000 0.750000
vt 0.625000 0.625000
vt 0.625000 0.625000
vt 0.375000 0.625000
vt 0.205440 0.750000
vt 0.205440 0.625000
vt 0.875000 0.625000
vt 0.834780 0.750000
vt 0.834780 0.625000
vt 0.794560 0.750000
vt 0.165220 0.625000
vt 0.165220 0.750000
vt 0.532956 0.833022
vt 0.532956 0.823376
vt 0.125000 0.625000
vt 0.125000 0.750000
vt 0.794560 0.625000
vt 0.420201 0.919560
vt 0.395413 0.959780
vt 0.395413 0.919560
vt 0.834780 0.750000
vt 0.794560 0.750000
vt 0.420201 0.879517
vt 0.420201 0.860777
vt 0.444377 0.991292
vt 0.445595 0.959780
vt 0.475973 0.986764
vt 0.395413 0.750000
vt 0.375000 0.750000
vt 0.375000 0.750000
vt 0.500000 0.750000
vt 0.625000 0.750000
vt 0.205440 0.750000
vt 0.375000 0.625000
vt 0.375000 1.000000
vt 0.375000 0.959780
vt 0.395413 0.750000
vt 0.375000 0.919560
vt 0.375000 0.750000
vt 0.165220 0.750000
vt 0.625000 0.750000
vt 0.532956 0.823376
vt 0.532956 0.833022
vt 0.447668 0.919560
vt 0.477510 0.959780
vt 0.517774 0.959780
vt 0.625000 0.919560
vt 0.625000 0.959780
vt 0.447668 0.752741
vt 0.480236 0.755255
vt 0.480236 0.823376
vt 0.625000 1.000000
vt 0.500000 1.000000
vt 0.509679 0.986764
vt 0.500000 0.000000
vt 0.395413 0.125000
vt 0.395413 0.000000
vt 0.625000 0.000000
vt 0.500000 0.125000
vt 0.375000 0.000000
vt 0.375000 0.125000
vt 0.395413 0.959780
vt 0.420201 0.919560
vt 0.395413 0.919560
vt 0.420201 0.860777
vt 0.420201 0.752741
vt 0.444377 0.991292
vt 0.417946 0.991292
vt 0.395413 1.000000
vt 0.500000 0.750000
vt 0.500000 0.750000
vt 0.625000 0.750000
vt 0.375000 1.000000
vt 0.375000 0.959780
vt 0.375000 0.919560
vt 0.477510 0.959780
vt 0.447668 0.919560
vt 0.445595 0.959780
vt 0.517774 0.959780
vt 0.625000 0.919560
vt 0.532956 0.919560
vt 0.480236 0.823376
vt 0.480236 0.755255
vt 0.447668 0.752741
vt 0.625000 0.959780
vt 0.509679 0.986764
vt 0.500000 0.000000
vt 0.395413 0.000000
vt 0.625000 0.000000
vt 0.375000 0.000000
vt 0.500000 0.625000
vt 0.500000 0.750000
vt 0.395413 0.750000
vt 0.395413 0.625000
vt 0.375000 0.750000
vt 0.395413 0.750000
vt 0.375000 0.250000
vt 0.375000 0.000000
vt 0.446722 0.125000
vt 0.625000 0.250000
vt 0.375000 0.500000
vt 0.375000 0.750000
vt 0.446722 0.625000
vt 0.625000 0.500000
vt 0.625000 0.750000
vt 0.588270 0.625000
vt 0.375000 1.000000
vt 0.125000 0.750000
vt 0.125000 0.500000
vt 0.667257 0.720064
vt 0.375000 0.333898
vt 0.562263 0.500000
vt 0.562263 0.333898
vt 0.562263 0.750000
vt 0.513966 0.625000
vt 0.375000 0.750000
vt 0.562263 0.916102
vt 0.375000 0.500000
vt 0.208898 0.565598
vt 0.375000 0.565598
vt 0.208898 0.750000
vt 0.375000 0.684402
vt 0.208898 0.684402
vt 0.912799 0.708654
vt 0.875000 0.544179
vt 0.875000 0.742110
vt 0.750000 0.544179
vt 0.625000 0.544179
vt 0.750000 0.742110
vt 0.625000 0.742110
vt 0.587201 0.708654
vt 0.500000 0.742110
vt 0.500000 0.708654
vt 0.375000 0.742110
vt 0.250000 0.742110
vt 0.375000 0.708654
vt 0.250000 0.708654
vt 0.125000 0.742110
vt 0.125000 0.708654
vt 0.000000 0.708654
vt 0.000000 0.742110
vt 0.875000 0.500000
vt 0.875000 0.750000
vt 0.875000 0.750000
vt 0.625000 0.500000
vt 0.565644 0.456307
vt 0.565644 0.403620
vt 0.562500 0.750000
vt 0.562500 0.500000
vt 0.565644 0.894923
vt 0.562500 0.893141
vt 0.565644 0.846380
vt 0.375000 0.500000
vt 0.125000 0.750000
vt 0.125000 0.500000
vt 0.625000 0.750000
vt 0.625000 0.000000
vt 0.562500 0.250000
vt 0.562500 0.000000
vt 0.125000 0.500000
vt 0.437500 0.250000
vt 0.375000 0.250000
vt 0.437500 0.250000
vt 0.562500 1.000000
vt 0.625000 1.000000
vt 0.562500 1.000000
vt 0.500000 1.000000
vt 0.437500 1.000000
vt 0.437500 1.000000
vt 0.500000 0.250000
vt 0.562500 0.250000
vt 0.437500 0.000000
vt 0.500000 0.250000
vt 0.439621 0.970943
vt 0.491822 0.970949
vt 0.491822 0.829872
vt 0.439621 0.811238
vt 0.491822 0.815514
vt 0.439621 0.919179
vt 0.491822 0.920573
vt 0.491822 0.930633
vt 0.491822 0.775197
vt 0.439621 0.781944
vt 0.437500 0.750000
vt 0.491822 0.870193
vt 0.500000 0.868756
vt 0.491822 0.880253
vt 0.500000 0.500000
vt 0.437500 0.500000
vt 0.491822 0.329427
vt 0.439621 0.330821
vt 0.439621 0.308350
vt 0.491822 0.379807
vt 0.439621 0.382583
vt 0.439621 0.360113
vt 0.491822 0.474803
vt 0.491822 0.279051
vt 0.439621 0.279057
vt 0.439621 0.411875
vt 0.491822 0.434486
vt 0.439621 0.438762
vt 0.417999 0.396024
vt 0.375000 0.250000
vt 0.375000 0.750000
vt 0.417999 0.906342
vt 0.375000 1.000000
vt 0.417999 0.853976
vt 0.375000 0.000000
vt 0.375000 1.000000
vt 0.625000 0.250000
vt 0.625000 0.250000
vt 0.500000 1.000000
vt 0.500000 0.000000
vt 0.500000 0.969088
vt 0.544022 0.959464
vt 0.544022 0.931696
vt 0.500000 0.918921
vt 0.544022 0.910394
vt 0.544022 0.861321
vt 0.544022 0.882623
vt 0.562500 0.791761
vt 0.544022 0.780293
vt 0.544022 0.808062
vt 0.562500 0.844525
vt 0.544022 0.833551
vt 0.500000 0.750000
vt 0.562500 0.308242
vt 0.562500 0.352859
vt 0.544022 0.339606
vt 0.544022 0.388679
vt 0.544022 0.367377
vt 0.562500 0.401474
vt 0.544022 0.441938
vt 0.500000 0.419550
vt 0.544022 0.416449
vt 0.500000 0.473997
vt 0.544022 0.469707
vt 0.562500 0.304242
vt 0.544022 0.290536
vt 0.875000 0.250000
vt 0.875000 0.500000
vt 0.875000 0.250000
vt 0.565644 0.596380
vt 0.565644 0.543693
vt 0.625000 0.500000
vt 0.562500 0.250000
vt 0.562500 0.500000
vt 0.565644 0.056533
vt 0.625000 0.000000
vt 0.565644 0.105077
vt 0.125000 0.250000
vt 0.375000 0.500000
vt 0.125000 0.500000
vt 0.625000 0.250000
vt 0.562500 0.750000
vt 0.625000 1.000000
vt 0.562500 1.000000
vt 0.125000 0.500000
vt 0.437500 0.750000
vt 0.375000 0.750000
vt 0.375000 0.750000
vt 0.562500 0.000000
vt 0.625000 0.000000
vt 0.437500 0.000000
vt 0.500000 0.000000
vt 0.437500 0.000000
vt 0.500000 0.750000
vt 0.562500 0.750000
vt 0.437500 1.000000
vt 0.500000 0.750000
vt 0.500000 1.000000
vt 0.491822 0.029051
vt 0.439621 0.029057
vt 0.491822 0.184486
vt 0.439621 0.188762
vt 0.439621 0.161875
vt 0.439621 0.058350
vt 0.491822 0.069367
vt 0.491822 0.079427
vt 0.491822 0.224803
vt 0.500000 0.250000
vt 0.437500 0.250000
vt 0.439621 0.132583
vt 0.437500 0.133894
vt 0.439621 0.110113
vt 0.500000 0.500000
vt 0.437500 0.500000
vt 0.439621 0.691650
vt 0.439621 0.669179
vt 0.491822 0.670573
vt 0.439621 0.639887
vt 0.439621 0.617417
vt 0.491822 0.620193
vt 0.491822 0.525197
vt 0.439621 0.531944
vt 0.491822 0.720949
vt 0.439621 0.561238
vt 0.491822 0.565514
vt 0.491822 0.579873
vt 0.417999 0.656342
vt 0.417999 0.708706
vt 0.375000 0.250000
vt 0.417999 0.093658
vt 0.417999 0.146024
vt 0.375000 0.000000
vt 0.375000 1.000000
vt 0.375000 0.000000
vt 0.437500 0.750000
vt 0.625000 0.750000
vt 0.625000 0.750000
vt 0.562500 0.000000
vt 0.544022 0.040536
vt 0.500000 0.030912
vt 0.544022 0.068304
vt 0.562500 0.102859
vt 0.544022 0.089606
vt 0.544022 0.117377
vt 0.562500 0.151474
vt 0.544022 0.138679
vt 0.544022 0.219707
vt 0.562500 0.208239
vt 0.544022 0.191938
vt 0.500000 0.185691
vt 0.544022 0.166449
vt 0.562500 0.647141
vt 0.562500 0.691758
vt 0.544022 0.681696
vt 0.544022 0.611321
vt 0.544022 0.632623
vt 0.500000 0.618756
vt 0.544022 0.583551
vt 0.500000 0.564309
vt 0.544022 0.558062
vt 0.500000 0.526003
vt 0.544022 0.709464
vt 0.562500 0.695758
vt 0.875000 0.750000
vt 0.500000 0.755254
vt 0.532956 0.755254
vt 0.532956 0.919560
vt 0.532956 0.912959
vt 0.500000 0.912959
vt 0.532956 0.901143
vt 0.500000 0.901144
vt 0.500000 0.833022
vt 0.500000 0.823376
vt 0.418678 0.959780
vt 0.875000 0.750000
vt 0.420201 0.752741
vt 0.431671 0.860778
vt 0.395413 1.000000
vt 0.417946 0.991292
vt 0.500000 0.986764
vt 0.532956 0.755254
vt 0.500000 0.755254
vt 0.532956 0.912959
vt 0.532956 0.901143
vt 0.500000 0.901144
vt 0.500000 0.912959
vt 0.500000 0.823376
vt 0.500000 0.833022
vt 0.480236 0.919560
vt 0.480236 0.912959
vt 0.447668 0.879517
vt 0.480236 0.901144
vt 0.447668 0.860778
vt 0.480236 0.833022
vt 0.625000 0.125000
vt 0.125000 0.750000
vt 0.418678 0.959780
vt 0.420201 0.879517
vt 0.431671 0.860778
vt 0.500000 1.000000
vt 0.500000 0.986764
vt 0.475973 0.986764
vt 0.480236 0.919560
vt 0.447668 0.879517
vt 0.480236 0.901144
vt 0.480236 0.912959
vt 0.447668 0.860778
vt 0.480236 0.833022
vt 0.625000 1.000000
vt 0.482585 0.220064
vt 0.625000 0.220064
vt 0.625000 0.000000
vt 0.482585 0.029936
vt 0.625000 0.029936
vt 0.482585 0.079824
vt 0.467451 0.084852
vt 0.467451 0.165148
vt 0.482585 0.170176
vt 0.567541 0.665147
vt 0.517496 0.681777
vt 0.517496 0.568223
vt 0.567541 0.584852
vt 0.467451 0.665148
vt 0.467451 0.584853
vt 0.625000 1.000000
vt 0.875000 0.720064
vt 0.875000 0.750000
vt 0.875000 0.500000
vt 0.667258 0.529936
vt 0.875000 0.529936
vt 0.420905 0.699656
vt 0.420905 0.550343
vt 0.486709 0.677790
vt 0.486709 0.572210
vt 0.375000 0.916102
vt 0.208898 0.500000
vt 0.912799 0.544179
vt 1.000000 0.742110
vt 1.000000 0.708654
vt 0.587201 0.544179
vt 0.875000 0.500000
vt 0.565644 0.355077
vt 0.565644 0.306533
vt 0.562500 0.356859
vt 0.562500 0.454239
vt 0.562500 0.405475
vt 0.562500 0.458239
vt 0.565644 0.793693
vt 0.625000 1.000000
vt 0.562500 0.945758
vt 0.565644 0.943467
vt 0.562500 0.941758
vt 0.562500 0.897141
vt 0.562500 0.795761
vt 0.562500 0.848526
vt 0.125000 0.750000
vt 0.437500 0.969742
vt 0.439621 0.838125
vt 0.437500 0.839659
vt 0.437500 0.809867
vt 0.500000 0.814309
vt 0.500000 0.830450
vt 0.437500 0.943295
vt 0.437500 0.917924
vt 0.500000 0.930782
vt 0.439621 0.941650
vt 0.437500 0.783420
vt 0.500000 0.776003
vt 0.439621 0.889887
vt 0.437500 0.891477
vt 0.439621 0.867417
vt 0.437500 0.866106
vt 0.500000 0.880615
vt 0.491822 0.319367
vt 0.500000 0.319218
vt 0.500000 0.331079
vt 0.437500 0.332076
vt 0.437500 0.306705
vt 0.491822 0.369747
vt 0.500000 0.369385
vt 0.500000 0.381244
vt 0.437500 0.383894
vt 0.437500 0.358523
vt 0.437500 0.466580
vt 0.439621 0.468056
vt 0.437500 0.280258
vt 0.500000 0.280912
vt 0.491822 0.420127
vt 0.500000 0.435691
vt 0.437500 0.440133
vt 0.437500 0.410341
vt 0.417999 0.452858
vt 0.417999 0.343658
vt 0.417999 0.291294
vt 0.417999 0.797142
vt 0.417999 0.958706
vt 0.544022 0.318304
vt 0.875000 0.500000
vt 0.565644 0.644923
vt 0.562500 0.643141
vt 0.562500 0.598526
vt 0.562500 0.594525
vt 0.562500 0.545761
vt 0.565644 0.693467
vt 0.562500 0.541761
vt 0.565644 0.206307
vt 0.562500 0.204239
vt 0.562500 0.155475
vt 0.565644 0.153620
vt 0.562500 0.106859
vt 0.562500 0.054242
vt 0.562500 0.058242
vt 0.125000 0.250000
vt 0.500000 0.000000
vt 0.437500 0.030258
vt 0.491822 0.170128
vt 0.500000 0.169550
vt 0.437500 0.190133
vt 0.437500 0.160341
vt 0.439621 0.080821
vt 0.437500 0.082076
vt 0.437500 0.056705
vt 0.500000 0.069218
vt 0.500000 0.081079
vt 0.500000 0.223997
vt 0.437500 0.216580
vt 0.439621 0.218056
vt 0.491822 0.119747
vt 0.500000 0.119385
vt 0.500000 0.131244
vt 0.491822 0.129807
vt 0.437500 0.108523
vt 0.500000 0.668921
vt 0.500000 0.680782
vt 0.491822 0.680633
vt 0.437500 0.693295
vt 0.437500 0.667924
vt 0.500000 0.630615
vt 0.491822 0.630253
vt 0.437500 0.641477
vt 0.437500 0.616106
vt 0.437500 0.533420
vt 0.437500 0.719742
vt 0.439621 0.720943
vt 0.500000 0.719088
vt 0.439621 0.588125
vt 0.437500 0.589659
vt 0.437500 0.559867
vt 0.500000 0.580450
vt 0.417999 0.603976
vt 0.417999 0.547142
vt 0.417999 0.202858
vt 0.417999 0.041294
vt 0.544022 0.660394
vt 0.544022 0.530293
vn -1.0000 0.0000 0.0000
vn 0.0000 1.0000 0.0000
vn 0.0000 -1.0000 0.0000
vn 1.0000 -0.0000 0.0000
vn 1.0000 0.0001 0.0000
vn -0.3827 -0.9239 0.0000
vn -0.3828 -0.9238 0.0000
vn -0.9239 -0.3827 0.0000
vn -0.9239 0.3827 0.0000
vn -0.3826 0.9239 0.0000
vn -0.3827 0.9239 0.0000
vn 0.3826 0.9239 0.0000
vn 0.3827 0.9239 0.0000
vn 0.9239 0.3827 0.0000
vn 0.9239 -0.3826 0.0000
vn 0.9238 -0.3829 0.0000
vn 0.3827 -0.9239 0.0000
vn 0.3828 -0.9238 0.0000
vn 0.9239 -0.3827 0.0000
vn -0.0065 -0.9209 0.3898
vn -0.0071 -1.0000 -0.0000
vn 0.0515 0.9987 0.0000
vn 0.0898 0.9960 0.0000
vn 0.0642 0.9979 0.0000
vn -0.0077 -0.9187 0.3949
vn 0.0000 0.2017 0.9794
vn -0.0013 -0.9168 0.3994
vn -0.0000 -0.0000 1.0000
vn -0.0044 -0.3678 0.9299
vn -0.0033 -0.3764 0.9264
vn 0.0000 -0.3749 -0.9271
vn 0.0000 -0.9206 -0.3905
vn -0.0000 0.1014 0.9948
vn -0.0065 -0.9209 -0.3898
vn 0.0000 -0.3749 0.9271
vn 0.0000 -0.9206 0.3905
vn -0.0077 -0.9187 -0.3949
vn -0.0000 0.2017 -0.9794
vn 0.0132 0.1883 0.9820
vn 0.0098 0.1989 0.9800
vn 0.0144 0.1846 0.9827
vn 0.0071 0.1728 0.9849
vn 0.0028 0.0876 0.9961
vn 0.0067 0.1787 0.9839
vn -0.0044 -0.3678 -0.9299
vn 0.0000 0.0000 -1.0000
vn -0.0033 -0.3764 -0.9264
vn -0.0015 -0.3642 -0.9313
vn 0.0000 0.1014 -0.9948
vn -0.0013 -0.9168 -0.3994
vn 0.0132 0.1883 -0.9820
vn 0.0098 0.1989 -0.9800
vn 0.0081 0.2017 -0.9794
vn 0.0144 0.1846 -0.9827
vn 0.0067 0.1787 -0.9839
vn -0.0000 0.3827 0.9239
vn 0.0000 0.7071 0.7071
vn 0.0000 0.7071 -0.7071
vn -0.0000 0.3827 -0.9239
vn 0.0000 -0.7071 -0.7071
vn 0.0000 -0.7071 0.7071
vn -0.2071 0.9783 0.0000
vn -0.7127 0.7014 0.0000
vn 0.2071 -0.9783 -0.0000
vn -0.9951 0.0992 -0.0000
vn 0.0366 -0.9993 -0.0000
vn -0.5833 -0.8123 -0.0000
vn -0.9065 -0.4222 -0.0000
vn 0.0081 0.2017 0.9794
vn -0.0015 -0.3642 0.9313
vn 0.0024 0.0919 0.9958
vn 0.0028 0.0876 -0.9961
vn 0.0024 0.0919 -0.9958
vn 0.0071 0.1728 -0.9849
usemtl None.001
s 1
f 1/1/1 2/2/1 3/3/1
f 4/4/2 5/5/2 6/6/2
f 2/2/3 7/7/3 3/3/3
f 8/8/1 9/9/1 10/10/1
f 11/11/2 12/12/2 13/13/2
f 14/14/3 15/15/3 16/16/3
f 17/17/1 18/18/1 19/19/1
f 20/20/2 21/21/2 22/22/2
f 18/18/3 23/23/3 19/19/3
f 24/24/1 25/25/1 26/26/1
f 27/27/2 26/26/2 28/28/2
f 29/29/3 30/30/3 25/25/3
f 31/31/1 32/32/1 33/33/1
f 34/34/2 31/31/2 33/33/2
f 35/35/3 36/36/3 37/37/3
f 38/38/1 39/39/1 40/40/1
f 41/41/3 39/39/3 38/38/3
f 42/42/1 43/43/1 44/44/1
f 44/44/2 45/45/2 46/46/2
f 47/47/3 48/48/3 42/42/3
f 49/49/1 50/50/1 51/51/1
f 23/52/4 52/53/4 53/54/4
f 7/55/5 54/56/5 55/57/5
f 56/58/4 36/59/4 57/60/4
f 30/61/4 58/62/4 59/63/4
f 16/64/4 15/65/4 60/66/4
f 51/51/2 50/50/2 61/67/2
f 62/68/3 63/69/3 64/70/3
f 65/71/3 66/72/3 67/73/3
f 68/74/2 69/75/2 70/76/2
f 71/77/2 72/78/2 73/79/2
f 64/70/1 63/69/1 74/80/1
f 75/81/3 76/82/3 49/49/3
f 77/83/2 78/84/2 79/85/2
f 80/86/1 81/87/1 82/88/1
f 83/89/4 41/90/4 70/91/4
f 84/92/4 62/93/4 73/94/4
f 85/95/4 86/96/4 87/97/4
f 88/98/4 47/99/4 46/100/4
f 89/101/4 65/102/4 90/103/4
f 91/104/6 92/105/7 93/106/6
f 94/107/8 95/108/8 96/109/8
f 97/110/9 98/111/9 99/112/9
f 100/113/10 101/114/11 102/115/10
f 103/116/12 101/114/13 104/117/13
f 105/118/14 106/119/14 107/120/14
f 108/121/15 107/120/16 109/122/15
f 110/123/17 111/124/18 92/125/18
f 112/126/6 113/127/7 114/128/6
f 115/129/8 116/130/8 117/131/8
f 118/132/9 119/133/9 120/134/9
f 121/135/10 122/136/11 123/137/11
f 124/138/12 123/137/13 122/136/13
f 125/139/14 126/140/14 127/141/14
f 128/142/19 127/141/19 129/143/19
f 130/144/18 113/145/18 131/146/17
f 132/147/6 133/148/6 134/149/6
f 135/150/8 136/151/8 137/152/8
f 135/150/9 138/153/9 136/151/9
f 139/154/10 140/155/11 141/156/11
f 142/157/13 141/156/13 140/155/13
f 143/158/14 144/159/14 145/160/14
f 146/161/19 145/160/19 147/162/19
f 148/163/17 149/164/18 133/165/18
f 150/166/6 151/167/6 152/168/6
f 153/169/8 151/167/8 154/170/8
f 155/171/9 156/172/9 157/173/9
f 158/174/10 159/175/10 160/176/10
f 161/177/12 162/178/13 163/179/12
f 164/180/14 165/181/14 166/182/14
f 167/183/19 168/184/19 169/185/19
f 170/186/17 171/187/18 172/188/18
f 173/189/6 174/190/6 175/191/6
f 176/192/8 177/193/8 178/194/8
f 179/195/9 180/196/9 177/193/9
f 181/197/10 182/198/10 183/199/10
f 184/200/12 185/201/12 186/202/12
f 185/201/14 187/203/14 188/204/14
f 189/205/15 187/203/16 190/206/15
f 191/207/17 192/208/17 193/209/17
f 194/210/6 195/211/6 196/212/6
f 197/213/8 198/214/8 199/215/8
f 200/216/9 201/217/9 198/214/9
f 202/218/10 203/219/10 200/216/10
f 204/220/12 205/221/12 206/222/12
f 205/221/14 207/223/14 208/224/14
f 209/225/19 207/223/19 210/226/19
f 211/227/17 212/228/17 213/229/17
f 214/230/6 215/231/6 216/232/6
f 217/233/8 215/231/8 218/234/8
f 219/235/9 220/236/9 221/237/9
f 222/238/10 223/239/10 219/235/10
f 224/240/13 225/241/13 226/242/13
f 225/241/14 227/243/14 228/244/14
f 229/245/19 227/243/19 230/246/19
f 231/247/17 232/248/17 233/249/17
f 234/250/6 235/251/6 236/252/6
f 237/253/8 238/254/8 239/255/8
f 240/256/9 241/257/9 242/258/9
f 243/259/10 240/256/10 244/260/10
f 245/261/12 246/262/12 247/263/12
f 248/264/14 246/262/14 249/265/14
f 250/266/19 248/264/19 249/265/19
f 251/267/17 252/268/17 253/269/17
f 3/3/1 5/5/1 1/1/1
f 5/5/1 254/270/1 1/1/1
f 4/4/2 254/270/2 5/5/2
f 2/2/3 54/271/3 7/7/3
f 10/10/1 13/13/1 8/8/1
f 13/13/1 12/12/1 8/8/1
f 13/13/2 255/272/2 256/273/2
f 255/272/2 257/274/2 256/273/2
f 256/273/2 11/11/2 13/13/2
f 16/16/3 10/10/3 14/14/3
f 10/10/3 9/9/3 258/275/3
f 258/275/3 14/14/3 10/10/3
f 19/19/1 21/21/1 17/17/1
f 21/21/1 259/276/1 17/17/1
f 20/20/2 259/276/2 21/21/2
f 18/18/3 52/277/3 23/23/3
f 24/24/1 29/29/1 25/25/1
f 27/27/2 24/24/2 26/26/2
f 29/29/3 58/278/3 30/30/3
f 31/31/1 260/279/1 32/32/1
f 33/33/2 56/280/2 261/281/2
f 56/280/2 57/282/2 261/281/2
f 33/33/2 261/281/2 34/34/2
f 37/37/3 32/32/3 35/35/3
f 32/32/3 260/279/3 262/283/3
f 35/35/3 32/32/3 262/283/3
f 263/284/1 68/74/1 40/40/1
f 68/74/1 38/38/1 40/40/1
f 41/41/3 264/285/3 39/39/3
f 42/42/1 48/48/1 43/43/1
f 44/44/2 43/43/2 45/45/2
f 47/47/3 265/286/3 48/48/3
f 49/49/1 266/287/1 50/50/1
f 53/54/4 20/288/4 22/289/4
f 22/289/4 23/52/4 53/54/4
f 55/57/4 4/290/4 6/291/4
f 6/291/4 7/55/4 55/57/4
f 56/58/4 37/292/4 36/59/4
f 59/63/4 27/293/4 28/294/4
f 28/294/4 30/61/4 59/63/4
f 60/66/4 257/295/4 255/296/4
f 255/296/4 16/64/4 60/66/4
f 87/297/2 86/298/2 267/299/2
f 86/298/2 51/51/2 267/299/2
f 267/299/2 51/51/2 61/67/2
f 62/68/3 268/300/3 63/69/3
f 81/87/3 80/86/3 269/301/3
f 80/86/3 65/71/3 67/73/3
f 269/301/3 80/86/3 67/73/3
f 68/74/2 263/284/2 69/75/2
f 71/77/2 270/302/2 72/78/2
f 270/302/1 71/77/1 74/80/1
f 71/77/1 64/70/1 74/80/1
f 266/287/3 49/49/3 76/82/3
f 49/49/3 271/303/3 75/81/3
f 271/303/3 85/304/3 75/81/3
f 272/305/2 90/306/2 79/85/2
f 90/306/2 77/83/2 79/85/2
f 77/83/2 273/307/2 78/84/2
f 273/307/1 77/83/1 82/88/1
f 77/83/1 80/86/1 82/88/1
f 70/91/4 69/308/4 83/89/4
f 83/89/4 264/309/4 41/90/4
f 73/94/4 72/310/4 84/92/4
f 84/92/4 268/311/5 62/93/4
f 85/95/4 271/312/4 86/96/4
f 46/100/4 45/313/4 88/98/4
f 88/98/4 265/314/4 47/99/4
f 90/103/4 272/315/4 89/101/4
f 89/101/4 66/316/4 65/102/4
f 92/105/7 111/317/7 93/106/6
f 93/106/6 95/108/6 274/318/6
f 274/318/6 91/104/6 93/106/6
f 96/109/8 97/110/8 99/112/8
f 94/107/8 274/318/8 95/108/8
f 96/109/8 99/112/8 94/107/8
f 97/110/9 275/319/9 98/111/9
f 102/115/10 98/111/10 275/319/10
f 100/113/10 104/117/11 101/114/11
f 102/115/10 275/319/10 100/113/10
f 104/117/13 276/320/12 103/116/12
f 276/320/12 106/119/12 103/116/12
f 106/119/12 277/321/12 103/116/12
f 105/118/14 277/321/14 106/119/14
f 109/122/15 278/322/19 279/323/19
f 108/121/15 105/118/16 107/120/16
f 109/122/15 279/323/19 108/121/15
f 92/125/18 280/324/17 110/123/17
f 280/324/17 279/323/17 110/123/17
f 279/323/17 278/322/17 110/123/17
f 113/127/7 130/325/7 114/128/6
f 114/128/6 116/130/6 281/326/6
f 281/326/6 112/126/6 114/128/6
f 117/131/8 118/132/8 120/134/8
f 115/129/8 281/326/8 116/130/8
f 117/131/8 120/134/8 115/129/8
f 118/132/9 282/327/9 119/133/9
f 123/137/11 283/328/10 121/135/10
f 283/328/10 119/133/10 121/135/10
f 119/133/10 282/327/10 121/135/10
f 122/136/13 284/329/12 124/138/12
f 284/329/12 126/140/12 124/138/12
f 126/140/12 285/330/12 124/138/12
f 125/139/14 285/330/14 126/140/14
f 286/331/19 287/332/19 128/142/19
f 128/142/19 125/139/19 127/141/19
f 129/143/19 286/331/19 128/142/19
f 131/146/17 287/332/17 286/331/17
f 286/331/17 288/333/17 131/146/17
f 288/333/17 130/144/18 131/146/17
f 133/148/6 149/334/6 134/149/6
f 134/149/6 289/335/6 290/336/6
f 290/336/6 132/147/6 134/149/6
f 137/152/8 290/336/8 289/335/8
f 289/335/8 291/337/8 137/152/8
f 291/337/8 135/150/8 137/152/8
f 135/150/9 292/338/9 138/153/9
f 141/156/11 293/339/10 139/154/10
f 293/339/10 138/153/10 139/154/10
f 138/153/10 292/338/10 139/154/10
f 140/155/13 294/340/13 142/157/13
f 294/340/13 144/159/13 142/157/13
f 144/159/13 295/341/13 142/157/13
f 143/158/14 295/341/14 144/159/14
f 296/342/19 297/343/19 146/161/19
f 146/161/19 143/158/19 145/160/19
f 147/162/19 296/342/19 146/161/19
f 133/165/18 298/344/17 148/163/17
f 298/344/17 297/343/17 148/163/17
f 297/343/17 296/342/17 148/163/17
f 152/168/6 299/345/6 150/166/6
f 299/345/6 172/346/6 150/166/6
f 172/346/6 171/347/6 150/166/6
f 155/171/8 157/173/8 153/169/8
f 153/169/8 152/168/8 151/167/8
f 154/170/8 155/171/8 153/169/8
f 155/171/9 159/175/9 156/172/9
f 160/176/10 162/178/11 300/348/11
f 158/174/10 156/172/10 159/175/10
f 160/176/10 300/348/11 158/174/10
f 163/179/12 301/349/12 164/180/12
f 161/177/12 300/348/13 162/178/13
f 163/179/12 164/180/12 161/177/12
f 164/180/14 301/349/14 165/181/14
f 169/185/19 302/350/19 167/183/19
f 302/350/19 166/182/19 167/183/19
f 166/182/19 165/181/19 167/183/19
f 172/188/18 303/351/17 170/186/17
f 303/351/17 169/185/17 170/186/17
f 169/185/17 168/184/17 170/186/17
f 175/191/6 304/352/7 305/353/7
f 173/189/6 306/354/6 174/190/6
f 175/191/6 305/353/7 173/189/6
f 177/193/8 180/196/8 178/194/8
f 178/194/8 174/190/8 306/354/8
f 306/354/8 176/192/8 178/194/8
f 179/195/9 182/198/9 180/196/9
f 182/198/10 179/195/10 183/199/10
f 183/199/10 307/355/11 181/197/10
f 307/355/11 308/356/11 181/197/10
f 186/202/12 308/356/13 307/355/13
f 307/355/13 309/357/12 186/202/12
f 309/357/12 184/200/12 186/202/12
f 185/201/14 184/200/14 187/203/14
f 193/209/19 192/208/19 189/205/15
f 189/205/15 188/204/16 187/203/16
f 190/206/15 193/209/19 189/205/15
f 193/209/17 310/358/17 191/207/17
f 310/358/17 305/359/18 191/207/17
f 305/359/18 304/360/18 191/207/17
f 196/212/6 311/361/7 312/362/7
f 194/210/6 313/363/6 195/211/6
f 196/212/6 312/362/7 194/210/6
f 198/214/8 201/217/8 199/215/8
f 199/215/8 195/211/8 197/213/8
f 195/211/8 313/363/8 197/213/8
f 200/216/9 203/219/9 201/217/9
f 200/216/10 314/364/10 202/218/10
f 314/364/10 315/365/11 202/218/10
f 315/365/11 316/366/11 202/218/10
f 206/222/12 316/366/13 315/365/13
f 315/365/13 317/367/12 206/222/12
f 317/367/12 204/220/12 206/222/12
f 205/221/14 204/220/14 207/223/14
f 210/226/19 213/229/19 212/228/19
f 209/225/19 208/224/19 207/223/19
f 210/226/19 212/228/19 209/225/19
f 213/229/17 318/368/17 211/227/17
f 318/368/17 312/369/18 211/227/17
f 312/369/18 311/370/18 211/227/17
f 216/232/6 319/371/6 320/372/6
f 214/230/6 218/234/6 215/231/6
f 216/232/6 320/372/6 214/230/6
f 218/234/8 321/373/8 217/233/8
f 321/373/8 221/237/8 217/233/8
f 221/237/8 220/236/8 217/233/8
f 219/235/9 223/239/9 220/236/9
f 219/235/10 322/374/10 222/238/10
f 322/374/10 323/375/11 222/238/10
f 323/375/11 324/376/11 222/238/10
f 226/242/13 324/376/13 323/375/13
f 323/375/13 325/377/13 226/242/13
f 325/377/13 224/240/13 226/242/13
f 225/241/14 224/240/14 227/243/14
f 230/246/19 233/249/19 232/248/19
f 229/245/19 228/244/19 227/243/19
f 230/246/19 232/248/19 229/245/19
f 233/249/17 326/378/17 231/247/17
f 326/378/17 320/379/18 231/247/17
f 320/379/18 319/380/18 231/247/17
f 236/252/6 238/254/6 327/381/6
f 327/381/6 328/382/6 236/252/6
f 328/382/6 234/250/6 236/252/6
f 239/255/8 242/258/8 241/257/8
f 237/253/8 327/381/8 238/254/8
f 239/255/8 241/257/8 237/253/8
f 240/256/9 329/383/9 241/257/9
f 330/384/11 331/385/11 243/259/10
f 243/259/10 329/383/10 240/256/10
f 244/260/10 330/384/11 243/259/10
f 246/262/12 332/386/12 247/263/12
f 247/263/12 331/385/13 330/384/13
f 330/384/13 245/261/12 247/263/12
f 248/264/14 332/386/14 246/262/14
f 249/265/19 333/387/19 250/266/19
f 333/387/19 253/269/19 250/266/19
f 253/269/19 252/268/19 250/266/19
f 253/269/17 334/388/17 251/267/17
f 334/388/17 235/389/18 251/267/17
f 235/389/18 234/390/18 251/267/17
f 335/391/2 336/392/2 337/393/2
f 338/394/3 339/395/20 340/396/21
f 341/397/22 342/398/23 343/399/23
f 337/393/2 344/400/24 335/391/2
f 345/401/21 339/395/20 346/402/25
f 2/403/26 52/404/26 335/391/26
f 347/405/3 346/402/25 348/406/27
f 349/407/24 342/398/23 344/400/24
f 34/408/28 350/409/29 351/410/30
f 352/411/23 341/397/22 343/399/23
f 337/393/2 353/412/24 349/407/24
f 31/413/28 351/410/30 27/414/28
f 36/415/28 35/416/28 257/417/28
f 354/418/31 355/419/32 356/420/32
f 357/421/33 358/422/26 335/391/26
f 359/423/34 338/394/3 340/396/21
f 356/420/32 360/424/3 338/394/3
f 350/409/29 348/425/27 346/426/25
f 361/427/35 339/428/20 362/429/36
f 363/430/37 340/396/21 345/401/21
f 364/431/38 264/432/38 63/433/38
f 351/410/30 346/426/25 339/428/20
f 262/434/28 256/435/28 35/416/28
f 14/436/39 344/437/40 342/438/41
f 29/439/28 259/440/28 20/441/28
f 365/442/42 366/443/43 15/444/44
f 366/445/1 367/446/1 368/447/1
f 365/448/1 369/449/1 366/445/1
f 348/450/1 367/446/1 347/451/1
f 347/405/3 363/430/37 345/401/21
f 353/412/24 343/399/23 349/407/24
f 370/452/45 61/453/46 371/454/47
f 45/455/46 43/456/46 354/418/31
f 85/457/46 87/458/46 372/459/48
f 364/431/38 373/460/49 374/461/49
f 337/393/2 375/462/2 364/431/2
f 376/463/50 370/452/45 363/464/37
f 359/465/34 354/418/31 356/420/32
f 363/464/37 371/454/47 359/465/34
f 79/466/46 76/467/46 75/468/46
f 67/469/51 353/470/52 269/471/53
f 69/472/46 263/473/46 48/474/46
f 352/475/54 67/469/51 66/476/55
f 367/446/1 377/477/1 372/478/1
f 369/449/1 378/479/1 377/477/1
f 376/480/1 367/446/1 372/478/1
f 379/481/4 358/422/4 380/482/4
f 379/481/4 381/483/4 382/484/4
f 379/481/4 375/462/4 336/392/4
f 382/484/4 383/485/4 360/424/4
f 384/486/4 379/481/4 382/484/4
f 355/419/4 382/484/4 360/424/4
f 361/427/35 380/482/33 357/421/33
f 338/394/3 383/485/36 362/429/36
f 374/461/49 384/486/31 354/418/31
f 362/429/36 381/483/35 361/427/35
f 385/487/1 386/488/1 387/489/1
f 388/490/46 389/491/46 385/487/46
f 390/492/4 389/491/4 391/493/4
f 392/494/4 393/495/4 394/496/4
f 393/495/28 386/497/28 390/492/28
f 389/491/3 386/498/3 385/499/3
f 393/495/2 392/494/2 395/500/2
f 396/501/28 397/502/28 398/503/28
f 395/504/1 397/502/1 399/505/1
f 400/506/46 401/507/46 395/504/46
f 402/508/2 403/509/2 404/510/2
f 405/511/2 406/512/2 407/513/2
f 404/514/56 408/515/57 409/516/57
f 387/517/2 409/516/57 408/515/57
f 410/518/58 391/519/2 387/517/2
f 411/520/58 406/521/59 412/522/46
f 413/523/46 414/524/60 412/522/46
f 394/525/3 415/526/60 399/527/3
f 416/528/61 399/527/3 417/529/61
f 416/528/61 418/530/28 419/531/28
f 420/532/62 421/533/63 422/534/62
f 423/535/46 171/536/46 149/537/46
f 423/535/4 424/538/4 425/539/4
f 113/540/28 112/541/28 133/542/28
f 426/543/3 427/544/64 428/545/64
f 420/532/62 429/546/2 423/535/2
f 421/547/63 430/548/65 431/549/65
f 427/544/64 432/550/66 428/545/64
f 433/551/46 432/552/46 434/553/46
f 435/554/28 421/555/28 431/556/28
f 436/557/28 437/558/28 438/559/28
f 439/560/46 430/548/46 440/561/46
f 437/562/67 441/563/68 434/553/67
f 438/559/28 277/564/28 105/565/28
f 136/566/28 164/567/28 166/568/28
f 285/569/28 125/570/28 99/571/28
f 157/572/28 156/573/28 442/574/28
f 143/575/28 146/576/28 120/577/28
f 443/578/4 442/574/4 444/579/4
f 127/580/46 126/581/46 275/582/46
f 145/583/46 144/584/46 282/585/46
f 155/586/46 443/578/46 444/579/46
f 107/587/46 106/588/46 433/551/46
f 292/589/46 165/590/46 301/591/46
f 140/592/46 426/543/46 428/593/46
f 444/579/4 445/594/4 426/543/4
f 123/595/28 427/596/28 141/597/28
f 437/562/67 432/552/66 446/598/66
f 438/559/28 446/599/28 427/596/28
f 439/560/46 434/553/46 441/563/46
f 440/561/46 447/600/46 420/601/46
f 436/557/28 431/556/28 448/602/28
f 448/603/68 430/548/65 441/563/68
f 436/557/28 108/604/28 279/605/28
f 274/606/28 128/607/28 287/608/28
f 297/609/28 112/541/28 281/610/28
f 424/538/28 299/611/28 152/612/28
f 169/613/28 132/614/28 290/615/28
f 425/539/4 449/616/4 443/578/4
f 93/617/46 288/618/46 286/619/46
f 296/620/46 116/621/46 148/622/46
f 168/623/46 291/624/46 289/625/46
f 425/539/46 154/626/46 151/627/46
f 440/561/46 110/628/46 278/629/46
f 450/630/63 451/631/62 452/632/62
f 319/633/28 234/634/28 453/635/28
f 454/636/4 453/635/4 455/637/4
f 305/638/46 452/639/46 312/640/46
f 456/641/64 457/642/3 458/643/64
f 459/644/2 451/631/62 453/635/2
f 460/645/65 450/646/63 461/647/65
f 462/648/66 456/641/64 458/643/64
f 463/649/28 462/650/28 458/651/28
f 464/652/46 450/653/46 452/639/46
f 465/654/46 466/655/46 467/656/46
f 460/645/28 468/657/28 469/658/28
f 465/659/67 470/660/68 471/661/68
f 187/662/46 184/663/46 467/656/46
f 249/664/46 246/665/46 219/666/46
f 179/667/46 177/668/46 207/669/46
f 242/670/46 472/671/46 473/672/46
f 224/673/46 325/674/46 200/675/46
f 473/672/4 474/676/4 475/677/4
f 182/678/28 205/679/28 208/680/28
f 203/681/28 225/682/28 228/683/28
f 241/684/28 329/685/28 475/677/28
f 188/686/28 468/657/28 463/649/28
f 332/687/28 248/688/28 220/689/28
f 316/690/28 308/691/28 458/651/28
f 476/692/4 475/677/4 457/642/4
f 315/693/46 323/694/46 456/695/46
f 462/650/66 465/659/67 477/696/66
f 477/697/46 467/656/46 456/695/46
f 468/657/28 478/698/28 463/649/28
f 479/699/28 469/658/28 451/700/28
f 466/655/46 461/701/46 464/652/46
f 471/661/68 460/645/65 461/647/65
f 193/702/46 190/703/46 466/655/46
f 306/704/46 318/705/46 213/706/46
f 313/707/46 326/708/46 233/709/46
f 238/710/46 236/711/46 454/636/46
f 253/712/46 333/713/46 218/714/46
f 472/671/4 455/637/4 474/676/4
f 211/715/28 175/716/28 174/717/28
f 232/718/28 195/719/28 229/720/28
f 215/721/28 250/722/28 252/723/28
f 237/724/28 474/676/28 455/637/28
f 192/725/28 191/726/28 469/658/28
f 335/391/2 358/422/2 336/392/2
f 338/394/3 362/429/36 339/395/20
f 341/397/22 365/727/22 342/398/23
f 337/393/2 349/407/24 344/400/24
f 345/401/21 340/396/21 339/395/20
f 17/728/33 357/421/33 18/729/26
f 357/421/33 335/391/26 18/729/26
f 335/391/26 344/437/40 2/403/26
f 344/437/40 258/730/69 9/731/26
f 9/731/26 8/732/33 54/733/26
f 8/732/33 55/734/33 54/733/26
f 344/437/40 9/731/26 54/733/26
f 1/735/33 53/736/33 52/404/26
f 52/404/26 18/729/26 335/391/26
f 2/403/26 1/735/33 52/404/26
f 344/437/40 54/733/26 2/403/26
f 347/405/3 345/401/21 346/402/25
f 349/407/24 343/399/23 342/398/23
f 34/408/28 261/737/28 350/409/29
f 352/411/23 378/738/22 341/397/22
f 337/393/2 364/431/2 353/412/24
f 361/427/35 29/439/28 24/739/28
f 27/414/28 59/740/28 31/413/28
f 361/427/35 24/739/28 27/414/28
f 34/408/28 351/410/30 31/413/28
f 351/410/30 361/427/35 27/414/28
f 368/741/70 350/409/29 57/742/28
f 350/409/29 261/737/28 57/742/28
f 60/743/71 366/443/43 257/417/28
f 366/443/43 368/741/70 36/415/28
f 257/417/28 366/443/43 36/415/28
f 35/416/28 256/435/28 257/417/28
f 368/741/70 57/742/28 36/415/28
f 354/418/31 384/486/31 355/419/32
f 357/421/33 380/482/33 358/422/26
f 359/423/34 356/420/32 338/394/3
f 356/420/32 355/419/32 360/424/3
f 350/409/29 368/741/70 348/425/27
f 361/427/35 351/410/30 339/428/20
f 363/430/37 359/423/34 340/396/21
f 364/431/38 374/461/49 39/744/38
f 374/461/49 40/745/49 39/744/38
f 269/471/53 353/470/52 81/746/38
f 353/470/52 364/431/38 63/433/38
f 81/746/38 353/470/52 268/747/38
f 84/748/49 82/749/49 268/747/38
f 82/749/49 81/746/38 268/747/38
f 268/747/38 353/470/52 63/433/38
f 364/431/38 39/744/38 264/432/38
f 264/432/38 83/750/49 74/751/49
f 264/432/38 74/751/49 63/433/38
f 351/410/30 350/409/29 346/426/25
f 262/434/28 11/752/28 256/435/28
f 14/436/39 258/730/69 344/437/40
f 11/752/28 262/434/28 12/753/28
f 262/434/28 260/754/28 4/755/28
f 12/753/28 262/434/28 4/755/28
f 260/754/28 31/413/28 59/740/28
f 260/754/28 59/740/28 58/756/28
f 55/734/33 8/732/33 4/755/28
f 8/732/33 12/753/28 4/755/28
f 260/754/28 58/756/28 4/755/28
f 29/439/28 361/427/35 357/421/33
f 58/756/28 29/439/28 20/441/28
f 254/757/28 58/756/28 20/441/28
f 254/757/28 4/755/28 58/756/28
f 53/736/33 1/735/33 254/757/28
f 20/441/28 53/736/33 254/757/28
f 29/439/28 357/421/33 259/440/28
f 357/421/33 17/728/33 259/440/28
f 366/443/43 60/743/71 15/444/44
f 15/444/44 14/436/39 342/438/41
f 342/438/41 365/442/42 15/444/44
f 366/445/1 369/449/1 367/446/1
f 365/448/1 341/758/1 369/449/1
f 348/450/1 368/447/1 367/446/1
f 347/405/3 376/759/50 363/430/37
f 353/412/24 352/411/23 343/399/23
f 370/452/45 267/760/46 61/453/46
f 354/418/31 371/454/47 45/455/46
f 371/454/47 61/453/46 50/761/46
f 50/761/46 88/762/46 45/455/46
f 371/454/47 50/761/46 45/455/46
f 43/456/46 48/474/46 354/418/31
f 267/760/46 370/452/45 87/458/46
f 370/452/45 372/459/48 87/458/46
f 372/459/48 377/763/72 85/457/46
f 377/763/72 89/764/73 272/765/46
f 272/765/46 79/466/46 75/468/46
f 377/763/72 272/765/46 85/457/46
f 272/765/46 75/468/46 85/457/46
f 364/431/38 375/462/38 373/460/49
f 337/393/2 336/392/2 375/462/2
f 376/463/50 372/459/48 370/452/45
f 359/465/34 371/454/47 354/418/31
f 363/464/37 370/452/45 371/454/47
f 79/466/46 78/766/46 76/467/46
f 67/469/51 352/475/54 353/470/52
f 266/767/46 76/467/46 72/768/46
f 76/467/46 78/766/46 273/769/46
f 273/769/46 82/749/49 72/768/46
f 82/749/49 84/748/49 72/768/46
f 76/467/46 273/769/46 72/768/46
f 88/762/46 50/761/46 266/767/46
f 265/770/46 88/762/46 266/767/46
f 270/771/46 74/751/49 83/750/49
f 72/768/46 270/771/46 265/770/46
f 265/770/46 266/767/46 72/768/46
f 374/461/49 354/418/31 48/474/46
f 48/474/46 265/770/46 69/472/46
f 270/771/46 83/750/49 69/472/46
f 265/770/46 270/771/46 69/472/46
f 40/745/49 374/461/49 263/473/46
f 374/461/49 48/474/46 263/473/46
f 66/476/55 89/764/73 377/763/72
f 377/763/72 378/772/74 66/476/55
f 378/772/74 352/475/54 66/476/55
f 367/446/1 369/449/1 377/477/1
f 369/449/1 341/758/1 378/479/1
f 376/480/1 347/451/1 367/446/1
f 379/481/4 336/392/4 358/422/4
f 379/481/4 380/482/4 381/483/4
f 379/481/4 373/460/4 375/462/4
f 382/484/4 381/483/4 383/485/4
f 384/486/4 373/460/4 379/481/4
f 355/419/4 384/486/4 382/484/4
f 361/427/35 381/483/35 380/482/33
f 338/394/3 360/424/3 383/485/36
f 374/461/49 373/460/49 384/486/31
f 362/429/36 383/485/36 381/483/35
f 396/773/1 398/774/1 388/490/1
f 386/488/1 480/775/1 405/776/1
f 480/775/1 401/777/1 405/776/1
f 405/776/1 407/778/1 410/779/1
f 396/773/1 388/490/1 385/487/1
f 408/780/1 403/781/1 396/773/1
f 405/776/1 410/779/1 386/488/1
f 410/779/1 387/489/1 386/488/1
f 387/489/1 408/780/1 385/487/1
f 408/780/1 396/773/1 385/487/1
f 388/490/46 392/494/46 389/491/46
f 414/782/4 393/495/4 412/783/4
f 393/495/4 390/492/4 412/783/4
f 389/491/4 392/494/4 419/784/4
f 392/494/4 416/785/4 419/784/4
f 411/786/4 412/783/4 390/492/4
f 389/491/4 419/784/4 409/787/4
f 391/493/4 411/786/4 390/492/4
f 389/491/4 409/787/4 391/493/4
f 394/496/4 416/785/4 392/494/4
f 393/495/4 414/782/4 394/496/4
f 393/495/28 480/788/28 386/497/28
f 389/491/3 390/492/3 386/498/3
f 395/500/2 401/789/2 480/790/2
f 392/494/2 388/791/2 397/792/2
f 388/791/2 398/793/2 397/792/2
f 395/500/2 480/790/2 393/495/2
f 392/494/2 397/792/2 395/500/2
f 396/501/28 402/508/28 397/502/28
f 413/794/1 406/512/1 400/506/1
f 397/502/1 402/508/1 418/795/1
f 402/508/1 404/510/1 418/795/1
f 413/794/1 400/506/1 395/504/1
f 415/796/1 413/794/1 395/504/1
f 397/502/1 418/795/1 417/797/1
f 399/505/1 415/796/1 395/504/1
f 397/502/1 417/797/1 399/505/1
f 400/506/46 405/798/46 401/507/46
f 402/508/2 396/799/2 403/509/2
f 405/511/2 400/506/2 406/512/2
f 404/514/56 403/800/56 408/515/57
f 409/516/57 419/801/28 404/514/56
f 419/801/28 418/802/28 404/514/56
f 387/517/2 391/519/2 409/516/57
f 410/518/58 411/520/58 391/519/2
f 411/520/58 410/518/58 406/521/59
f 410/518/58 407/803/59 406/521/59
f 406/521/59 413/523/46 412/522/46
f 413/523/46 415/526/60 414/524/60
f 394/525/3 414/524/60 415/526/60
f 416/528/61 394/525/3 399/527/3
f 416/528/61 417/529/61 418/530/28
f 420/532/62 447/804/63 421/533/63
f 130/805/46 288/618/46 93/617/46
f 111/806/46 110/628/46 420/601/46
f 110/628/46 440/561/46 420/601/46
f 130/805/46 93/617/46 111/806/46
f 148/622/46 114/807/46 149/537/46
f 114/807/46 130/805/46 149/537/46
f 170/808/46 134/809/46 171/536/46
f 134/809/46 149/537/46 171/536/46
f 149/537/46 130/805/46 423/535/46
f 130/805/46 111/806/46 420/601/46
f 423/535/46 130/805/46 420/601/46
f 423/535/46 425/539/46 150/810/46
f 423/535/46 150/810/46 171/536/46
f 423/535/4 429/546/4 424/538/4
f 172/811/28 299/611/28 429/546/28
f 299/611/28 424/538/28 429/546/28
f 429/546/28 422/812/28 113/540/28
f 172/811/28 429/546/28 133/542/28
f 422/812/28 435/554/28 280/813/28
f 92/814/28 91/815/28 131/816/28
f 422/812/28 280/813/28 92/814/28
f 133/542/28 429/546/28 113/540/28
f 132/614/28 303/817/28 172/811/28
f 112/541/28 298/818/28 133/542/28
f 133/542/28 132/614/28 172/811/28
f 422/812/28 92/814/28 113/540/28
f 92/814/28 131/816/28 113/540/28
f 426/543/3 445/594/3 427/544/64
f 420/532/62 422/534/62 429/546/2
f 421/547/63 447/600/63 430/548/65
f 427/544/64 446/819/66 432/550/66
f 433/551/46 428/593/46 432/552/46
f 435/554/28 422/812/28 421/555/28
f 436/557/28 448/602/28 437/558/28
f 439/560/46 441/563/46 430/548/46
f 437/562/67 448/603/68 441/563/68
f 108/604/28 436/557/28 105/565/28
f 436/557/28 438/559/28 105/565/28
f 438/559/28 103/820/28 277/564/28
f 138/821/28 293/822/28 161/823/28
f 138/821/28 161/823/28 164/567/28
f 302/824/28 137/825/28 136/566/28
f 136/566/28 138/821/28 164/567/28
f 166/568/28 302/824/28 136/566/28
f 102/826/28 124/827/28 285/569/28
f 125/570/28 128/607/28 99/571/28
f 128/607/28 94/828/28 99/571/28
f 98/829/28 102/826/28 285/569/28
f 99/571/28 98/829/28 285/569/28
f 156/573/28 158/830/28 442/574/28
f 442/574/28 449/616/28 157/572/28
f 449/616/28 153/831/28 157/572/28
f 119/832/28 283/833/28 295/834/28
f 283/833/28 142/835/28 295/834/28
f 146/576/28 115/836/28 120/577/28
f 120/577/28 119/832/28 143/575/28
f 119/832/28 295/834/28 143/575/28
f 443/578/4 449/616/4 442/574/4
f 97/837/46 96/838/46 129/839/46
f 97/837/46 129/839/46 127/580/46
f 284/840/46 100/841/46 126/581/46
f 100/841/46 275/582/46 126/581/46
f 275/582/46 97/837/46 127/580/46
f 118/842/46 117/843/46 147/844/46
f 118/842/46 147/844/46 145/583/46
f 294/845/46 121/846/46 282/585/46
f 282/585/46 118/842/46 145/583/46
f 144/584/46 294/845/46 282/585/46
f 155/586/46 154/626/46 443/578/46
f 444/579/46 160/847/46 159/848/46
f 159/848/46 155/586/46 444/579/46
f 106/588/46 276/849/46 433/551/46
f 433/551/46 439/560/46 107/587/46
f 439/560/46 109/850/46 107/587/46
f 135/851/46 291/624/46 167/852/46
f 135/851/46 167/852/46 165/590/46
f 163/853/46 139/854/46 292/589/46
f 292/589/46 135/851/46 165/590/46
f 301/591/46 163/853/46 292/589/46
f 121/846/46 294/845/46 140/592/46
f 140/592/46 139/854/46 163/853/46
f 162/855/46 160/847/46 426/543/46
f 160/847/46 444/579/46 426/543/46
f 140/592/46 163/853/46 162/855/46
f 122/856/46 121/846/46 140/592/46
f 100/841/46 284/840/46 122/856/46
f 433/551/46 276/849/46 428/593/46
f 276/849/46 104/857/46 428/593/46
f 104/857/46 100/841/46 122/856/46
f 122/856/46 140/592/46 428/593/46
f 140/592/46 162/855/46 426/543/46
f 104/857/46 122/856/46 428/593/46
f 444/579/4 442/574/4 445/594/4
f 300/858/28 161/823/28 293/822/28
f 141/597/28 142/835/28 283/833/28
f 300/858/28 293/822/28 141/597/28
f 442/574/28 158/830/28 445/594/28
f 158/830/28 300/858/28 445/594/28
f 103/820/28 438/559/28 427/596/28
f 124/827/28 102/826/28 123/595/28
f 102/826/28 101/859/28 123/595/28
f 101/859/28 103/820/28 427/596/28
f 141/597/28 283/833/28 123/595/28
f 445/594/28 300/858/28 141/597/28
f 101/859/28 427/596/28 123/595/28
f 427/596/28 445/594/28 141/597/28
f 437/562/67 434/553/67 432/552/66
f 438/559/28 437/558/28 446/599/28
f 439/560/46 433/551/46 434/553/46
f 440/561/46 430/548/46 447/600/46
f 436/557/28 435/554/28 431/556/28
f 448/603/68 431/549/65 430/548/65
f 280/813/28 435/554/28 279/605/28
f 435/554/28 436/557/28 279/605/28
f 274/606/28 94/828/28 128/607/28
f 287/608/28 131/816/28 274/606/28
f 131/816/28 91/815/28 274/606/28
f 115/836/28 146/576/28 297/609/28
f 297/609/28 298/818/28 112/541/28
f 281/610/28 115/836/28 297/609/28
f 152/612/28 153/831/28 424/538/28
f 153/831/28 449/616/28 424/538/28
f 290/615/28 137/825/28 302/824/28
f 169/613/28 303/817/28 132/614/28
f 290/615/28 302/824/28 169/613/28
f 425/539/4 424/538/4 449/616/4
f 286/619/46 129/839/46 95/860/46
f 129/839/46 96/838/46 95/860/46
f 95/860/46 93/617/46 286/619/46
f 296/620/46 147/844/46 117/843/46
f 116/621/46 114/807/46 148/622/46
f 296/620/46 117/843/46 116/621/46
f 289/625/46 134/809/46 168/623/46
f 134/809/46 170/808/46 168/623/46
f 168/623/46 167/852/46 291/624/46
f 151/627/46 150/810/46 425/539/46
f 425/539/46 443/578/46 154/626/46
f 109/850/46 439/560/46 278/629/46
f 439/560/46 440/561/46 278/629/46
f 450/630/63 479/861/63 451/631/62
f 311/862/28 196/863/28 319/633/28
f 196/863/28 231/864/28 319/633/28
f 319/633/28 216/865/28 234/634/28
f 216/865/28 251/866/28 234/634/28
f 175/716/28 211/715/28 311/862/28
f 469/658/28 191/726/28 451/700/28
f 191/726/28 304/867/28 451/700/28
f 304/867/28 175/716/28 311/862/28
f 304/867/28 311/862/28 451/700/28
f 311/862/28 319/633/28 453/635/28
f 234/634/28 328/868/28 453/635/28
f 328/868/28 455/637/28 453/635/28
f 311/862/28 453/635/28 451/700/28
f 454/636/4 459/644/4 453/635/4
f 235/869/46 334/870/46 214/871/46
f 320/872/46 326/708/46 194/873/46
f 235/869/46 214/871/46 320/872/46
f 454/636/46 236/711/46 459/644/46
f 236/711/46 235/869/46 459/644/46
f 452/639/46 459/644/46 312/640/46
f 310/874/46 464/652/46 452/639/46
f 318/705/46 173/875/46 305/638/46
f 305/638/46 310/874/46 452/639/46
f 459/644/46 235/869/46 320/872/46
f 320/872/46 194/873/46 312/640/46
f 459/644/46 320/872/46 312/640/46
f 318/705/46 305/638/46 312/640/46
f 456/641/64 476/692/3 457/642/3
f 459/644/2 452/632/62 451/631/62
f 460/645/65 479/699/63 450/646/63
f 462/648/66 477/876/66 456/641/64
f 463/649/28 478/698/28 462/650/28
f 464/652/46 461/701/46 450/653/46
f 465/654/46 471/877/46 466/655/46
f 460/645/28 470/660/28 468/657/28
f 465/659/67 478/698/67 470/660/68
f 467/656/46 466/655/46 187/662/46
f 466/655/46 190/703/46 187/662/46
f 184/663/46 309/878/46 467/656/46
f 221/879/46 321/880/46 333/713/46
f 221/879/46 333/713/46 249/664/46
f 245/881/46 322/882/46 219/666/46
f 219/666/46 221/879/46 249/664/46
f 246/665/46 245/881/46 219/666/46
f 204/883/46 317/884/46 183/885/46
f 204/883/46 183/885/46 179/667/46
f 176/886/46 210/887/46 177/668/46
f 210/887/46 207/669/46 177/668/46
f 207/669/46 204/883/46 179/667/46
f 242/670/46 239/888/46 472/671/46
f 473/672/46 244/889/46 240/890/46
f 240/890/46 242/670/46 473/672/46
f 198/891/46 197/892/46 230/893/46
f 198/891/46 230/893/46 227/894/46
f 325/674/46 314/895/46 200/675/46
f 200/675/46 198/891/46 224/673/46
f 198/891/46 227/894/46 224/673/46
f 473/672/4 472/671/4 474/676/4
f 209/896/28 178/897/28 180/898/28
f 182/678/28 181/899/28 205/679/28
f 181/899/28 206/900/28 205/679/28
f 209/896/28 180/898/28 208/680/28
f 180/898/28 182/678/28 208/680/28
f 229/720/28 199/901/28 201/902/28
f 203/681/28 202/903/28 225/682/28
f 202/903/28 226/904/28 225/682/28
f 229/720/28 201/902/28 228/683/28
f 201/902/28 203/681/28 228/683/28
f 474/676/28 237/724/28 241/684/28
f 329/685/28 243/905/28 475/677/28
f 474/676/28 241/684/28 475/677/28
f 463/649/28 186/906/28 185/907/28
f 188/686/28 189/908/28 468/657/28
f 463/649/28 185/907/28 188/686/28
f 223/909/28 222/910/28 247/911/28
f 223/909/28 247/911/28 332/687/28
f 250/722/28 217/912/28 220/689/28
f 220/689/28 223/909/28 332/687/28
f 248/688/28 250/722/28 220/689/28
f 324/913/28 226/904/28 202/903/28
f 316/690/28 206/900/28 181/899/28
f 324/913/28 202/903/28 316/690/28
f 247/911/28 222/910/28 324/913/28
f 475/677/28 243/905/28 457/642/28
f 243/905/28 331/914/28 457/642/28
f 331/914/28 247/911/28 324/913/28
f 316/690/28 181/899/28 308/691/28
f 331/914/28 324/913/28 457/642/28
f 324/913/28 316/690/28 458/651/28
f 308/691/28 186/906/28 458/651/28
f 186/906/28 463/649/28 458/651/28
f 324/913/28 458/651/28 457/642/28
f 476/692/4 473/672/4 475/677/4
f 322/882/46 245/881/46 330/915/46
f 330/915/46 244/889/46 476/692/46
f 244/889/46 473/672/46 476/692/46
f 456/695/46 467/656/46 309/878/46
f 307/916/46 183/885/46 315/693/46
f 183/885/46 317/884/46 315/693/46
f 456/695/46 309/878/46 307/916/46
f 323/694/46 322/882/46 330/915/46
f 314/895/46 325/674/46 323/694/46
f 315/693/46 314/895/46 323/694/46
f 323/694/46 330/915/46 476/692/46
f 476/692/46 456/695/46 323/694/46
f 456/695/46 307/916/46 315/693/46
f 462/650/66 478/698/67 465/659/67
f 477/697/46 465/654/46 467/656/46
f 468/657/28 470/660/28 478/698/28
f 479/699/28 460/645/28 469/658/28
f 466/655/46 471/877/46 461/701/46
f 471/661/68 470/660/68 460/645/65
f 466/655/46 464/652/46 193/702/46
f 464/652/46 310/874/46 193/702/46
f 210/887/46 176/886/46 306/704/46
f 306/704/46 173/875/46 318/705/46
f 213/706/46 210/887/46 306/704/46
f 233/709/46 230/893/46 197/892/46
f 313/707/46 194/873/46 326/708/46
f 233/709/46 197/892/46 313/707/46
f 472/671/46 239/888/46 454/636/46
f 239/888/46 238/710/46 454/636/46
f 333/713/46 321/880/46 218/714/46
f 218/714/46 214/871/46 253/712/46
f 214/871/46 334/870/46 253/712/46
f 472/671/4 454/636/4 455/637/4
f 178/897/28 209/896/28 174/717/28
f 209/896/28 212/917/28 174/717/28
f 212/917/28 211/715/28 174/717/28
f 232/718/28 231/864/28 196/863/28
f 195/719/28 199/901/28 229/720/28
f 232/718/28 196/863/28 195/719/28
f 251/866/28 216/865/28 252/723/28
f 216/865/28 215/721/28 252/723/28
f 215/721/28 217/912/28 250/722/28
f 455/637/28 328/868/28 327/918/28
f 327/918/28 237/724/28 455/637/28
f 469/658/28 468/657/28 192/725/28
f 468/657/28 189/908/28 192/725/28
o Circle_Circle.001
v 0.000000 0.000000 -0.159334
v -0.137987 0.000000 0.079667
v 0.137987 0.000000 0.079667
l 482 481
l 483 482
l 481 483
