# Blender v2.93.1 OBJ File: 'spasaasa12222.blend'
# www.blender.org
mtllib spasgrip.mtl
o Cube.004_Cube.003
v -0.373495 -0.488035 -0.065723
v -0.408523 -0.435085 0.020232
v -0.373495 -0.488035 0.020232
v -0.800171 0.218397 -0.099629
v -0.577539 -0.013613 -0.081241
v -0.822333 0.012771 -0.078708
v -0.332746 -0.039995 0.020232
v -0.379153 -0.222824 0.106188
v -0.379153 -0.222824 0.020232
v -0.577539 -0.013613 0.121706
v -0.776896 -0.167790 0.106188
v -0.578025 -0.195307 0.106188
v -0.392408 -0.548639 0.020232
v -0.588293 -0.518961 0.106188
v -0.588293 -0.518961 0.020232
v -0.723289 0.298502 -0.080696
v -0.555377 0.192013 -0.102697
v -0.607394 -0.407568 0.106188
v -0.813823 -0.434668 0.106188
v -0.593659 -0.461351 0.106188
v -0.373495 -0.488035 0.106188
v -0.784179 -0.489285 -0.065723
v -0.784179 -0.489285 0.020232
v -0.379153 -0.222824 -0.065723
v -0.776896 -0.167790 -0.065723
v -0.578025 -0.195307 -0.065723
v -0.332746 -0.039995 -0.070123
v -0.392408 -0.548639 0.106188
v -0.784179 -0.489285 0.106188
v -0.806266 -0.380051 0.106188
v -0.408523 -0.435085 0.106188
v -0.594118 0.313803 0.020232
v -0.666854 0.317747 -0.080696
v -0.666854 0.317747 0.020232
v -0.392408 -0.548639 -0.065723
v -0.723289 0.298502 0.020232
v -0.593659 -0.461351 -0.065723
v -0.408523 -0.435085 -0.065723
v -0.577539 -0.013613 0.020232
v -0.332746 -0.039995 0.110588
v -0.800171 0.218397 0.020232
v -0.822333 0.012771 0.020232
v -0.723289 0.298502 0.121161
v -0.822333 0.012771 0.119173
v -0.800171 0.218397 0.140094
v -0.666854 0.317747 0.121161
v -0.594118 0.313803 0.128007
v -0.574747 0.252908 0.125876
v -0.813823 -0.434668 -0.065723
v -0.813823 -0.434668 0.020232
v -0.806266 -0.380051 -0.065723
v -0.555377 0.192013 0.143162
v -0.806266 -0.380051 0.020232
v -0.574747 0.252908 -0.085411
v -0.555377 0.192013 0.020232
v -0.574747 0.252908 0.020232
v -0.588293 -0.518961 -0.065723
v -0.607394 -0.407568 -0.065723
v -0.776896 -0.167790 0.020232
v -0.594118 0.313803 -0.087542
v -0.276435 0.252739 -0.188028
v -0.276435 0.047980 -0.188028
v -0.276435 0.047980 -0.076008
v -0.276435 0.252739 -0.076008
v 0.462828 0.252739 -0.076008
v 0.462828 0.047980 -0.188028
v 0.462828 0.252739 -0.188028
v 0.462828 0.047980 -0.076008
v -0.094095 0.252739 -0.188028
v -0.094095 0.047980 -0.188028
v -0.093980 0.047980 -0.187750
v -0.093980 0.252739 -0.187750
v -0.115427 0.047980 -0.135971
v -0.115427 0.252739 -0.135971
v -0.167206 0.047980 -0.114524
v -0.167206 0.252739 -0.114524
v 0.352467 0.252739 -0.114524
v 0.352467 0.047980 -0.114524
v 0.300688 0.252739 -0.135971
v 0.300688 0.047980 -0.135971
v 0.279240 0.252739 -0.187750
v 0.279240 0.047980 -0.187750
v 0.079498 0.252739 -0.187750
v 0.079498 0.047980 -0.187750
v 0.058051 0.047980 -0.135971
v 0.058051 0.252739 -0.135971
v 0.006272 0.047980 -0.114524
v 0.006272 0.252739 -0.114524
v 0.425578 0.047980 -0.188028
v 0.425578 0.252739 -0.188028
v 0.462828 0.252739 -0.188028
v 0.462828 0.047980 -0.188028
v 0.106639 0.252739 -0.188028
v 0.106639 0.047980 -0.188028
v 0.079383 0.252739 -0.188028
v 0.079383 0.047980 -0.188028
v -0.240317 0.252739 -0.188028
v -0.240317 0.047980 -0.188028
v -0.276435 0.252739 -0.188028
v -0.276435 0.047980 -0.188028
v -0.066839 0.252739 -0.188028
v -0.066839 0.047980 -0.188028
v -0.094095 0.252739 -0.188028
v -0.094095 0.047980 -0.188028
v 0.279355 0.252739 -0.188028
v 0.279355 0.047980 -0.188028
v 0.252919 0.252739 -0.187889
v 0.252861 0.047980 -0.188028
v 0.058051 0.047980 -0.135971
v 0.179750 0.047980 -0.114524
v 0.006272 0.047980 -0.114524
v 0.127971 0.047980 -0.135971
v 0.106523 0.047980 -0.187750
v 0.079498 0.047980 -0.187750
v 0.079383 0.047980 -0.188028
v 0.106639 0.047980 -0.188028
v -0.276435 0.047980 -0.076008
v -0.167206 0.047980 -0.114524
v -0.115427 0.047980 -0.135971
v -0.045507 0.047980 -0.135971
v -0.218985 0.047980 -0.135971
v -0.066955 0.047980 -0.187750
v -0.093980 0.047980 -0.187750
v -0.094095 0.047980 -0.188028
v -0.066839 0.047980 -0.188028
v -0.276435 0.047980 -0.188028
v -0.240432 0.047980 -0.187750
v -0.240317 0.047980 -0.188028
v 0.462828 0.047980 -0.076008
v 0.352467 0.047980 -0.114524
v 0.231529 0.047980 -0.135971
v 0.404246 0.047980 -0.135971
v 0.300688 0.047980 -0.135971
v 0.462828 0.047980 -0.188028
v 0.425693 0.047980 -0.187750
v 0.425578 0.047980 -0.188028
v 0.279240 0.047980 -0.187750
v 0.252976 0.047980 -0.187750
v 0.279355 0.047980 -0.188028
v 0.252861 0.047980 -0.188028
v -0.276435 0.252739 -0.188028
v -0.240432 0.252739 -0.187750
v -0.240317 0.252739 -0.188028
v -0.218985 0.252739 -0.135971
v -0.276435 0.252739 -0.076008
v -0.167206 0.252739 -0.114524
v 0.006272 0.252739 -0.114524
v -0.115427 0.252739 -0.135971
v -0.045507 0.252739 -0.135971
v -0.066955 0.252739 -0.187750
v -0.093980 0.252739 -0.187750
v -0.094095 0.252739 -0.188028
v -0.066839 0.252739 -0.188028
v 0.179750 0.252739 -0.114524
v 0.058051 0.252739 -0.135971
v 0.462828 0.252739 -0.076008
v 0.127971 0.252739 -0.135971
v 0.106523 0.252739 -0.187750
v 0.079498 0.252739 -0.187750
v 0.079383 0.252739 -0.188028
v 0.106639 0.252739 -0.188028
v 0.352467 0.252739 -0.114524
v 0.231529 0.252739 -0.135971
v 0.404246 0.252739 -0.135971
v 0.300688 0.252739 -0.135971
v 0.462828 0.252739 -0.188028
v 0.425693 0.252739 -0.187750
v 0.425578 0.252739 -0.188028
v 0.279240 0.252739 -0.187750
v 0.252919 0.252739 -0.187889
v 0.279355 0.252739 -0.188028
v 0.279240 0.252739 -0.187750
v 0.279240 0.047980 -0.187750
v 0.279355 0.252739 -0.188028
v 0.279355 0.047980 -0.188028
v 0.179750 0.252739 -0.114524
v 0.179750 0.047980 -0.114524
v 0.127971 0.252739 -0.135971
v 0.127971 0.047980 -0.135971
v 0.106523 0.252739 -0.187750
v 0.106523 0.047980 -0.187750
v 0.106639 0.252739 -0.188028
v 0.106639 0.047980 -0.188028
v 0.079383 0.252739 -0.188028
v 0.079383 0.047980 -0.188028
v 0.079498 0.047980 -0.187750
v 0.079498 0.252739 -0.187750
v 0.252976 0.047980 -0.187750
v 0.231529 0.252739 -0.135971
v 0.252919 0.252739 -0.187889
v 0.231529 0.047980 -0.135971
v 0.179750 0.047980 -0.114524
v 0.179750 0.252739 -0.114524
v 0.006272 0.252739 -0.114524
v 0.006272 0.047980 -0.114524
v -0.045507 0.252739 -0.135971
v -0.045507 0.047980 -0.135971
v -0.066955 0.252739 -0.187750
v -0.066955 0.047980 -0.187750
v -0.066839 0.252739 -0.188028
v -0.066839 0.047980 -0.188028
v 0.425693 0.252739 -0.187750
v 0.425693 0.047980 -0.187750
v 0.404246 0.047980 -0.135971
v 0.404246 0.252739 -0.135971
v 0.352467 0.047980 -0.114524
v 0.352467 0.252739 -0.114524
v 0.252919 0.252739 -0.187889
v 0.252861 0.047980 -0.188028
v 0.252976 0.047980 -0.187750
v -0.167206 0.252739 -0.114524
v -0.167206 0.047980 -0.114524
v -0.218985 0.252739 -0.135971
v -0.218985 0.047980 -0.135971
v -0.240432 0.252739 -0.187750
v -0.240432 0.047980 -0.187750
v -0.240317 0.252739 -0.188028
v -0.240317 0.047980 -0.188028
v 0.425578 0.252739 -0.188028
v 0.425578 0.047980 -0.188028
v 0.425693 0.047980 -0.187750
v 0.425693 0.252739 -0.187750
vt 0.948437 0.171152
vt 0.936355 0.178437
vt 0.936355 0.171152
vt 0.785751 0.079201
vt 0.819860 0.108842
vt 0.785256 0.108267
vt 0.936355 0.234276
vt 0.924274 0.208387
vt 0.936355 0.208387
vt 0.889059 0.135757
vt 0.863108 0.111636
vt 0.891297 0.110317
vt 0.831896 0.237073
vt 0.819814 0.209225
vt 0.831896 0.209225
vt 0.795482 0.067008
vt 0.820355 0.079777
vt 0.889889 0.080231
vt 0.861338 0.073808
vt 0.892497 0.072877
vt 0.924274 0.171152
vt 0.843977 0.181377
vt 0.831896 0.181377
vt 0.948437 0.208387
vt 0.793909 0.132963
vt 0.822097 0.134282
vt 0.850286 0.135601
vt 0.854456 0.109417
vt 0.924274 0.162554
vt 0.936355 0.162554
vt 0.866184 0.066540
vt 0.893982 0.064881
vt 0.861700 0.081549
vt 0.924274 0.178437
vt 0.843977 0.198225
vt 0.853781 0.184039
vt 0.853781 0.198225
vt 0.948437 0.162554
vt 0.862128 0.184039
vt 0.862128 0.198225
vt 0.919485 0.108998
vt 0.918077 0.078912
vt 0.923655 0.071946
vt 0.921780 0.063221
vt 0.823297 0.171722
vt 0.848878 0.165687
vt 0.854456 0.172653
vt 0.902252 0.181377
vt 0.889551 0.213935
vt 0.889551 0.181377
vt 0.876851 0.181377
vt 0.819814 0.181377
vt 0.940503 0.162554
vt 0.926596 0.133561
vt 0.940503 0.133561
vt 0.862128 0.212411
vt 0.875288 0.198225
vt 0.875288 0.181377
vt 0.954410 0.133561
vt 0.854951 0.165398
vt 0.854456 0.136332
vt 0.853781 0.212411
vt 0.843977 0.213374
vt 0.928421 0.108419
vt 0.886058 0.173100
vt 0.872336 0.181003
vt 0.864682 0.177590
vt 0.940503 0.063221
vt 0.928421 0.070749
vt 0.928421 0.063221
vt 0.940503 0.070749
vt 0.928421 0.078458
vt 0.889555 0.164822
vt 0.940503 0.078458
vt 0.817384 0.189847
vt 0.802535 0.181377
vt 0.817684 0.181377
vt 0.787686 0.189847
vt 0.802535 0.198317
vt 0.785256 0.198317
vt 0.802535 0.189847
vt 0.819814 0.198317
vt 0.788272 0.227303
vt 0.802535 0.227303
vt 0.816798 0.227303
vt 0.952585 0.078458
vt 0.952585 0.070749
vt 0.952585 0.108419
vt 0.843977 0.209225
vt 0.820690 0.164368
vt 0.796984 0.178059
vt 0.824782 0.179718
vt 0.852580 0.181377
vt 0.948437 0.178437
vt 0.792139 0.170791
vt 0.940503 0.108419
vt 0.803137 0.063596
vt 0.816858 0.071499
vt 0.952585 0.063221
vt 0.923655 0.234276
vt 0.819814 0.237073
vt 0.949056 0.234276
vt 0.843977 0.183076
vt 0.903814 0.213935
vt 0.875288 0.213935
vt 0.923655 0.135182
vt 0.923655 0.162554
vt 0.957350 0.162554
vt 0.882572 0.181377
vt 0.875288 0.215073
vt 0.787386 0.181377
vt 0.843977 0.237073
vt 0.792501 0.163049
vt 0.813372 0.063221
vt 0.625000 0.750000
vt 0.375000 0.750000
vt 0.375000 0.500000
vt 0.625000 0.500000
vt 0.625000 0.250000
vt 0.375000 0.000000
vt 0.625000 0.000000
vt 0.375000 0.250000
vt 0.250671 0.608432
vt 0.250671 0.784176
vt 0.250000 0.784176
vt 0.250000 0.608432
vt 0.125000 0.784176
vt 0.125000 0.608432
vt 0.000000 0.784176
vt 0.000000 0.608432
vt 1.000000 0.608432
vt 1.000000 0.784176
vt 0.875000 0.608432
vt 0.875000 0.784176
vt 0.750000 0.608432
vt 0.750000 0.784176
vt 0.250000 0.608432
vt 0.250000 0.784176
vt 0.125000 0.784176
vt 0.125000 0.608432
vt 0.000000 0.784176
vt 0.000000 0.608432
vt 0.375000 0.987403
vt 0.625000 0.987403
vt 0.625000 1.000000
vt 0.375000 1.000000
vt 0.625000 0.879546
vt 0.375000 0.879546
vt 0.625000 0.870329
vt 0.375000 0.870329
vt 0.625000 0.762214
vt 0.375000 0.762214
vt 0.625000 0.750000
vt 0.375000 0.750000
vt 0.625000 0.820880
vt 0.375000 0.820880
vt 0.625000 0.811663
vt 0.375000 0.811663
vt 0.625000 0.937954
vt 0.375000 0.937954
vt 0.625000 0.928994
vt 0.375000 0.928994
vt 0.261886 0.633823
vt 0.220730 0.585958
vt 0.279396 0.585958
vt 0.238240 0.633823
vt 0.245493 0.749379
vt 0.254632 0.749379
vt 0.254671 0.750000
vt 0.245454 0.750000
vt 0.375000 0.500000
vt 0.338062 0.585958
vt 0.320551 0.633823
vt 0.296906 0.633823
vt 0.355572 0.633823
vt 0.304159 0.749379
vt 0.313298 0.749379
vt 0.313337 0.750000
vt 0.304120 0.750000
vt 0.375000 0.750000
vt 0.362825 0.749379
vt 0.362786 0.750000
vt 0.125000 0.500000
vt 0.162321 0.585958
vt 0.203220 0.633823
vt 0.144811 0.633823
vt 0.179832 0.633823
vt 0.125000 0.750000
vt 0.137558 0.749379
vt 0.137597 0.750000
vt 0.187085 0.749379
vt 0.195967 0.749379
vt 0.187046 0.750000
vt 0.196006 0.750000
vt 0.625000 0.750000
vt 0.637175 0.749380
vt 0.637214 0.750000
vt 0.644428 0.633823
vt 0.625000 0.500000
vt 0.661938 0.585958
vt 0.720604 0.585958
vt 0.679449 0.633823
vt 0.703094 0.633823
vt 0.695841 0.749380
vt 0.686702 0.749379
vt 0.686663 0.750000
vt 0.695880 0.750000
vt 0.779270 0.585958
vt 0.738115 0.633823
vt 0.875000 0.500000
vt 0.761760 0.633823
vt 0.754507 0.749379
vt 0.745368 0.749379
vt 0.745329 0.750000
vt 0.754546 0.750000
vt 0.837679 0.585958
vt 0.796780 0.633823
vt 0.855189 0.633823
vt 0.820168 0.633823
vt 0.875000 0.750000
vt 0.862442 0.749379
vt 0.862403 0.750000
vt 0.812915 0.749379
vt 0.804033 0.749379
vt 0.812954 0.750000
vt 0.750000 0.608432
vt 0.750000 0.784176
vt 0.749329 0.608432
vt 0.749329 0.784176
vt 1.000000 0.608432
vt 1.000000 0.784176
vt 0.875000 0.608432
vt 0.875000 0.784176
vt 0.750000 0.608432
vt 0.750000 0.784176
vt 0.749329 0.608432
vt 0.749329 0.784176
vt 0.250671 0.608432
vt 0.250671 0.784176
vt 0.250000 0.784176
vt 0.250000 0.608432
vt 0.250000 0.784176
vt 0.125000 0.608432
vt 0.250000 0.608432
vt 0.125000 0.784176
vt 0.000000 0.784176
vt 0.000000 0.608432
vt 1.000000 0.608432
vt 1.000000 0.784176
vt 0.875000 0.608432
vt 0.875000 0.784176
vt 0.750000 0.608432
vt 0.750000 0.784176
vt 0.749329 0.608432
vt 0.749329 0.784176
vt 0.250000 0.608432
vt 0.250000 0.784176
vt 0.125000 0.784176
vt 0.125000 0.608432
vt 0.000000 0.784175
vt 0.000000 0.608432
vt 0.250671 0.608432
vt 0.250671 0.784176
vt 0.250000 0.784176
vt 1.000000 0.608432
vt 1.000000 0.784176
vt 0.875000 0.608432
vt 0.875000 0.784176
vt 0.750000 0.608432
vt 0.750000 0.784176
vt 0.749329 0.608432
vt 0.749329 0.784176
vt 0.250671 0.608431
vt 0.250671 0.784175
vt 0.250000 0.784176
vt 0.250000 0.608432
vn 0.9901 0.1405 0.0000
vn 0.9751 0.2216 0.0000
vn -0.0049 0.0261 -0.9996
vn -0.0073 -0.0797 -0.9968
vn -0.0192 -0.0914 -0.9956
vn 0.9693 -0.2460 -0.0000
vn 0.9813 -0.1922 -0.0000
vn 0.9814 -0.1918 -0.0000
vn -0.0073 -0.0797 0.9968
vn -0.0088 -0.0443 0.9990
vn 0.0014 -0.0338 0.9994
vn -0.1498 -0.9887 0.0000
vn 0.0064 0.1833 -0.9830
vn -0.0023 0.0453 -0.9990
vn 0.0000 -0.0000 1.0000
vn -0.5745 -0.8185 0.0000
vn -0.0088 -0.0443 -0.9990
vn 0.0014 -0.0338 -0.9994
vn 0.0095 -0.0293 -0.9995
vn 0.0181 -0.0569 -0.9982
vn 0.9546 -0.2979 0.0000
vn 0.0541 0.9985 0.0000
vn -0.1312 0.9914 0.0000
vn -0.1368 0.9906 0.0000
vn -0.5478 0.8366 0.0000
vn -0.5373 0.8434 0.0000
vn 0.0094 -0.0294 0.9995
vn 0.0000 0.0000 -1.0000
vn 0.1072 0.9942 0.0000
vn -0.9064 0.4224 0.0000
vn -0.9982 -0.0599 -0.0000
vn -0.9976 -0.0695 -0.0000
vn -0.9098 0.4151 0.0000
vn -0.0049 0.0261 0.9996
vn -0.0192 -0.0914 0.9956
vn -0.9983 -0.0587 -0.0000
vn 0.0007 0.1658 0.9862
vn -0.0527 -0.0022 0.9986
vn 0.0064 0.1833 0.9830
vn -0.9839 -0.1789 0.0000
vn -0.9906 0.1371 0.0000
vn -0.0023 0.0453 0.9990
vn 0.9529 0.3031 0.0000
vn 0.9950 0.1001 0.0000
vn 0.9961 0.0880 -0.0000
vn 0.9942 -0.1072 -0.0000
vn -0.9985 -0.0545 0.0000
vn -0.0527 -0.0022 -0.9986
vn 0.0007 0.1658 -0.9862
vn 0.0181 -0.0569 0.9982
vn -1.0000 0.0000 0.0000
vn 1.0000 0.0000 0.0000
vn -0.9240 -0.0000 0.3823
vn -1.0000 -0.0000 -0.0002
vn -0.7071 0.0000 -0.7071
vn 0.7071 0.0000 -0.7071
vn 0.9239 0.0000 -0.3827
vn -0.9239 0.0000 -0.3827
vn -0.0026 0.0003 -1.0000
vn -0.0035 0.0003 -1.0000
vn -0.8321 0.0003 -0.5546
vn 0.0000 -1.0000 -0.0000
vn -0.0000 1.0000 0.0000
vn 0.0000 1.0000 0.0001
vn 0.0000 1.0000 -0.0001
vn 0.0000 1.0000 -0.0004
vn 0.9240 0.0000 0.3823
vn 1.0000 -0.0000 -0.0001
vn 0.9239 -0.0000 0.3827
vn 0.9238 0.0000 0.3828
vn -0.9241 -0.0000 0.3823
vn -0.9242 -0.0003 -0.3818
vn -0.7072 -0.0000 -0.7070
vn -0.9242 -0.0003 -0.3819
vn 1.0000 0.0000 -0.0003
vn 1.0000 0.0000 0.0013
vn -0.0036 0.0004 -1.0000
vn -0.8321 0.0004 -0.5546
vn -0.9240 0.0000 0.3824
vn 1.0000 0.0000 -0.0002
usemtl None.006
s 1
f 1/1/1 2/2/2 3/3/1
f 4/4/3 5/5/4 6/6/5
f 7/7/6 8/8/7 9/9/8
f 10/10/9 11/11/10 12/12/11
f 13/13/12 14/14/12 15/15/12
f 16/16/13 17/17/14 4/4/3
f 18/18/15 19/19/15 20/20/15
f 2/2/2 21/21/1 3/3/1
f 22/22/16 15/15/12 23/23/16
f 24/24/7 7/7/6 9/9/8
f 25/25/17 5/5/4 26/26/18
f 24/27/19 5/5/4 27/28/20
f 3/3/1 28/29/21 13/30/21
f 20/20/15 29/31/15 14/32/15
f 12/12/11 30/33/15 18/18/15
f 9/9/8 31/34/2 2/2/2
f 32/35/22 33/36/23 34/37/24
f 35/38/21 3/3/1 13/30/21
f 34/37/24 16/39/25 36/40/26
f 8/41/27 18/18/15 31/42/15
f 21/43/15 14/32/15 28/44/15
f 37/45/28 38/46/28 1/47/28
f 27/48/29 39/49/29 7/50/29
f 31/42/15 20/20/15 21/43/15
f 39/49/29 40/51/29 7/50/29
f 15/15/12 29/52/16 23/23/16
f 8/41/27 10/10/9 12/12/11
f 41/53/30 6/54/31 42/55/32
f 43/56/25 34/37/24 36/40/26
f 41/57/30 16/39/25 4/58/33
f 44/59/31 41/53/30 42/55/32
f 10/10/9 45/60/34 44/61/35
f 32/35/22 46/62/23 47/63/22
f 25/64/36 42/55/32 6/54/31
f 48/65/37 46/66/38 43/67/39
f 23/68/16 49/69/40 22/70/16
f 50/71/40 51/72/41 49/69/40
f 52/73/42 43/67/39 45/60/34
f 53/74/41 25/64/36 51/72/41
f 41/57/30 43/56/25 36/40/26
f 48/75/43 32/76/43 47/77/43
f 54/78/43 55/79/44 17/80/45
f 54/78/43 32/76/43 56/81/43
f 55/79/44 48/75/43 52/82/45
f 5/83/46 55/79/44 39/84/46
f 10/85/46 55/79/44 52/82/45
f 30/86/41 50/71/40 19/87/40
f 11/88/36 53/74/41 30/86/41
f 57/89/12 13/13/12 15/15/12
f 58/90/28 25/25/17 26/26/18
f 22/91/28 37/45/28 57/92/28
f 57/92/28 1/47/28 35/93/28
f 38/94/2 9/9/8 2/2/2
f 49/95/28 58/90/28 37/45/28
f 11/88/36 42/55/32 59/96/47
f 33/97/48 54/98/49 16/16/13
f 19/87/40 23/68/16 29/99/16
f 58/90/28 24/27/19 38/46/28
f 1/1/1 38/94/2 2/2/2
f 4/4/3 17/17/14 5/5/4
f 7/7/6 40/100/6 8/8/7
f 10/10/9 44/61/35 11/11/10
f 13/13/12 28/101/12 14/14/12
f 16/16/13 54/98/49 17/17/14
f 18/18/15 30/33/15 19/19/15
f 2/2/2 31/34/2 21/21/1
f 22/22/16 57/89/12 15/15/12
f 24/24/7 27/102/6 7/7/6
f 25/25/17 6/6/5 5/5/4
f 24/27/19 26/26/18 5/5/4
f 3/3/1 21/21/1 28/29/21
f 20/20/15 19/19/15 29/31/15
f 12/12/11 11/11/10 30/33/15
f 9/9/8 8/8/7 31/34/2
f 32/35/22 60/103/22 33/36/23
f 35/38/21 1/1/1 3/3/1
f 34/37/24 33/36/23 16/39/25
f 8/41/27 12/12/11 18/18/15
f 21/43/15 20/20/15 14/32/15
f 37/45/28 58/90/28 38/46/28
f 27/48/29 5/104/29 39/49/29
f 31/42/15 18/18/15 20/20/15
f 39/49/29 10/105/29 40/51/29
f 15/15/12 14/14/12 29/52/16
f 8/41/27 40/106/50 10/10/9
f 41/53/30 4/107/33 6/54/31
f 43/56/25 46/62/23 34/37/24
f 41/57/30 36/40/26 16/39/25
f 44/59/31 45/108/33 41/53/30
f 10/10/9 52/73/42 45/60/34
f 32/35/22 34/37/24 46/62/23
f 25/64/36 59/96/47 42/55/32
f 48/65/37 47/109/38 46/66/38
f 23/68/16 50/71/40 49/69/40
f 50/71/40 53/74/41 51/72/41
f 52/73/42 48/65/37 43/67/39
f 53/74/41 59/96/47 25/64/36
f 41/57/30 45/110/33 43/56/25
f 48/75/43 56/81/43 32/76/43
f 54/78/43 56/81/43 55/79/44
f 54/78/43 60/111/43 32/76/43
f 55/79/44 56/81/43 48/75/43
f 5/83/46 17/80/45 55/79/44
f 10/85/46 39/84/46 55/79/44
f 30/86/41 53/74/41 50/71/40
f 11/88/36 59/96/47 53/74/41
f 57/89/12 35/112/12 13/13/12
f 58/90/28 51/113/28 25/25/17
f 22/91/28 49/95/28 37/45/28
f 57/92/28 37/45/28 1/47/28
f 38/94/2 24/24/7 9/9/8
f 49/95/28 51/113/28 58/90/28
f 11/88/36 44/59/31 42/55/32
f 33/97/48 60/114/48 54/98/49
f 19/87/40 50/71/40 23/68/16
f 58/90/28 26/26/18 24/27/19
usemtl Default_OBJ.005
f 61/115/51 62/116/51 63/117/51
f 61/115/51 63/117/51 64/118/51
f 65/119/52 66/120/52 67/121/52
f 66/120/52 65/119/52 68/122/52
f 69/123/53 70/124/53 71/125/54
f 69/123/53 71/125/54 72/126/54
f 72/126/54 71/125/54 73/127/55
f 72/126/54 73/127/55 74/128/55
f 74/128/55 73/127/55 75/129/28
f 75/129/28 76/130/28 74/128/55
f 77/131/28 78/132/28 79/133/56
f 79/133/56 78/132/28 80/134/56
f 80/134/56 81/135/57 79/133/56
f 81/135/57 80/134/56 82/136/57
f 83/137/58 84/138/58 85/139/55
f 83/137/58 85/139/55 86/140/55
f 86/140/55 85/139/55 87/141/28
f 87/141/28 88/142/28 86/140/55
f 89/143/28 90/144/28 91/145/28
f 91/145/28 92/146/28 89/143/28
f 93/147/28 94/148/28 95/149/28
f 95/149/28 94/148/28 96/150/28
f 97/151/28 98/152/28 99/153/28
f 99/153/28 98/152/28 100/154/28
f 101/155/28 102/156/28 103/157/28
f 103/157/28 102/156/28 104/158/28
f 105/159/59 106/160/59 107/161/60
f 107/161/60 106/160/59 108/162/61
f 109/163/62 110/164/62 111/165/62
f 110/164/62 109/163/62 112/166/62
f 113/167/62 112/166/62 109/163/62
f 113/167/62 109/163/62 114/168/62
f 115/169/62 113/167/62 114/168/62
f 115/169/62 116/170/62 113/167/62
f 110/164/62 117/171/62 111/165/62
f 111/165/62 117/171/62 118/172/62
f 111/165/62 118/172/62 119/173/62
f 111/165/62 119/173/62 120/174/62
f 117/171/62 121/175/62 118/172/62
f 119/173/62 122/176/62 120/174/62
f 123/177/62 122/176/62 119/173/62
f 124/178/62 122/176/62 123/177/62
f 122/176/62 124/178/62 125/179/62
f 126/180/62 121/175/62 117/171/62
f 121/175/62 126/180/62 127/181/62
f 126/180/62 128/182/62 127/181/62
f 117/171/62 110/164/62 129/183/62
f 129/183/62 110/164/62 130/184/62
f 131/185/62 130/184/62 110/164/62
f 130/184/62 132/186/62 129/183/62
f 130/184/62 131/185/62 133/187/62
f 134/188/62 129/183/62 132/186/62
f 134/188/62 132/186/62 135/189/62
f 136/190/62 134/188/62 135/189/62
f 131/185/62 137/191/62 133/187/62
f 138/192/62 137/191/62 131/185/62
f 137/191/62 138/192/62 139/193/62
f 138/192/62 140/194/62 139/193/62
f 141/195/63 142/196/64 143/197/64
f 141/195/63 144/198/63 142/196/64
f 141/195/63 145/199/63 144/198/63
f 146/200/63 144/198/63 145/199/63
f 145/199/63 147/201/63 146/200/63
f 148/202/63 146/200/63 147/201/63
f 148/202/63 147/201/63 149/203/63
f 150/204/63 148/202/63 149/203/63
f 148/202/63 150/204/63 151/205/63
f 151/205/63 150/204/63 152/206/63
f 152/206/63 150/204/63 153/207/64
f 145/199/63 154/208/63 147/201/63
f 154/208/63 155/209/63 147/201/63
f 154/208/63 145/199/63 156/210/63
f 155/209/63 154/208/63 157/211/63
f 158/212/64 155/209/63 157/211/63
f 155/209/63 158/212/64 159/213/63
f 158/212/64 160/214/65 159/213/63
f 161/215/64 160/214/65 158/212/64
f 154/208/63 156/210/63 162/216/63
f 162/216/63 163/217/63 154/208/63
f 162/216/63 156/210/63 164/218/63
f 163/217/63 162/216/63 165/219/63
f 166/220/63 164/218/63 156/210/63
f 164/218/63 166/220/63 167/221/63
f 166/220/63 168/222/66 167/221/63
f 165/219/63 169/223/63 163/217/63
f 169/223/63 170/224/63 163/217/63
f 170/224/63 169/223/63 171/225/64
f 172/226/67 173/227/67 174/228/67
f 175/229/67 174/228/67 173/227/67
f 176/230/28 177/231/28 178/232/56
f 178/232/56 177/231/28 179/233/56
f 179/233/56 180/234/68 178/232/56
f 180/234/68 179/233/56 181/235/52
f 180/234/68 181/235/52 182/236/69
f 183/237/70 182/236/69 181/235/52
f 184/238/71 185/239/71 186/240/71
f 184/238/71 186/240/71 187/241/71
f 188/242/72 189/243/73 190/244/74
f 189/243/73 188/242/72 191/245/55
f 189/243/73 191/245/55 192/246/28
f 192/246/28 193/247/28 189/243/73
f 194/248/28 195/249/28 196/250/56
f 196/250/56 195/249/28 197/251/56
f 197/251/56 198/252/75 196/250/56
f 198/252/75 197/251/56 199/253/76
f 198/252/75 199/253/76 200/254/70
f 201/255/70 200/254/70 199/253/76
f 202/256/51 203/257/51 204/258/55
f 202/256/51 204/258/55 205/259/55
f 205/259/55 204/258/55 206/260/28
f 206/260/28 207/261/28 205/259/55
f 208/262/77 209/263/78 210/264/79
f 211/265/28 212/266/28 213/267/56
f 213/267/56 212/266/28 214/268/56
f 214/268/56 215/269/80 213/267/56
f 215/269/80 214/268/56 216/270/80
f 215/269/80 216/270/80 217/271/67
f 218/272/67 217/271/67 216/270/80
f 219/273/53 220/274/53 221/275/51
f 219/273/53 221/275/51 222/276/51
