# Blender v2.93.1 OBJ File: 'spasaasa12222.blend'
# www.blender.org
mtllib spasaasa12222.mtl
o Cube.004_Cube.002
v 1.471756 0.336223 0.017526
v 1.471756 0.404536 0.017526
v 1.471756 0.404536 -0.012496
v 1.471756 0.336223 -0.012496
v 1.532229 0.442229 -0.012496
v 1.555029 0.336223 -0.012496
v 1.532229 0.442229 0.017526
v 1.555029 0.336223 0.017526
v -0.133111 0.142552 -0.008797
v 0.168216 0.142552 -0.008797
v 0.268023 0.181554 -0.008797
v 0.275636 0.181543 -0.008797
v 0.175536 0.289920 -0.008797
v 0.057912 0.289920 -0.008797
v -0.133111 0.289920 -0.008797
v -0.133111 0.142552 0.090353
v 0.175536 0.142552 0.090353
v 0.275636 0.142552 0.059891
v 0.267774 0.142552 0.059864
v 0.245910 0.289920 0.074018
v 0.127998 0.289920 0.073607
v 0.175536 0.191621 0.097763
v 0.175536 0.275623 0.091780
v 0.175536 0.289920 0.090761
v 0.275636 0.184314 -0.002105
v 0.275636 0.161977 0.051841
v -0.133111 0.289920 0.090761
v -0.133111 0.275623 0.091780
v -0.133112 0.191621 0.097763
v -0.568614 0.275623 0.091780
v -0.493678 0.359624 0.085796
v -0.493678 0.359624 -0.085796
v -0.568614 0.275623 -0.091780
v 0.241702 0.275623 -0.091780
v 0.241702 0.359624 -0.085796
v 0.320728 0.359624 -0.085796
v 0.320728 0.275623 -0.091780
v 0.320728 0.359624 0.085796
v 0.320728 0.275623 0.091780
v 0.241702 0.275623 0.091780
v 0.241702 0.359624 0.085796
v 0.241702 0.031111 -0.073522
v 0.320728 0.056990 -0.073522
v 0.320728 0.056990 0.073522
v 0.241702 0.031111 0.073522
v 0.241702 0.191621 0.097763
v -0.573696 0.191621 0.097763
v -0.573696 0.031111 0.073522
v 0.320728 0.191621 -0.097763
v 0.320728 0.191621 0.097763
v 0.241702 0.191621 -0.097763
v -0.573696 0.191621 -0.097763
v -0.573696 0.031111 -0.073522
v 0.128578 0.256247 -0.092592
v 1.570134 0.256247 -0.087560
v 1.570042 0.192578 -0.061177
v 0.128486 0.192578 -0.066209
v 1.569820 0.166206 0.002516
v 0.245910 0.166206 -0.002105
v 0.245909 0.168977 -0.008797
v 0.128285 0.168807 -0.008797
v 0.128041 0.319916 0.061177
v 1.569597 0.319916 0.066209
v 1.569820 0.346289 0.002516
v 0.128263 0.346289 -0.002516
v 1.570079 0.181958 -0.071801
v 1.569820 0.151187 0.002516
v 1.570042 0.319916 -0.061177
v 0.128486 0.319916 -0.066209
v 0.268275 0.108051 -0.078422
v 1.537914 0.108051 -0.074160
v 1.537833 0.054126 -0.051815
v 0.268194 0.054126 -0.056077
v 1.537637 0.031789 0.002131
v 0.267999 0.031789 -0.002131
v 1.537441 0.054126 0.056077
v 0.267803 0.054126 0.051815
v 1.537360 0.108051 0.078422
v 0.267722 0.108051 0.074160
v 1.537441 0.161977 0.056077
v 1.537833 0.161977 -0.051815
v 1.537637 0.184314 0.002131
v 0.268194 0.161977 -0.056077
v 1.569453 0.256247 0.107616
v 1.569560 0.181958 0.076833
v 1.675873 0.181958 0.077204
v 1.675765 0.256247 0.107987
v 1.569505 0.256247 0.092592
v 1.569560 0.330536 0.076833
v 1.570079 0.330536 -0.071801
v 1.570186 0.256247 -0.102584
v 1.569597 0.192578 0.066209
v 1.569820 0.361308 0.002516
v 1.676499 0.256247 -0.102213
v 1.676392 0.330536 -0.071430
v 1.676310 0.307237 -0.048122
v 1.676384 0.256247 -0.069251
v 1.676392 0.181958 -0.071430
v 1.676132 0.151187 0.002887
v 1.676132 0.361308 0.002887
v 1.675873 0.330536 0.077204
v 1.675954 0.307237 0.053896
v 1.675880 0.256247 0.075025
v 1.631316 0.256247 0.074869
v 1.631390 0.307237 0.053741
v 1.676132 0.328358 0.002887
v 1.675954 0.205258 0.053896
v 1.676310 0.205258 -0.048122
v 1.676132 0.184137 0.002887
v 1.631746 0.205258 -0.048278
v 1.631819 0.256247 -0.069406
v 1.631746 0.307237 -0.048278
v 1.631568 0.328358 0.002732
v 1.631390 0.205258 0.053741
v 1.631568 0.184137 0.002732
v 0.245910 0.256247 0.087971
v 0.245910 0.192578 0.061588
v -0.594893 0.272510 -0.124371
v -0.594893 0.272510 0.129400
v -0.566585 0.260784 0.129400
v -0.566585 0.260784 -0.124371
v -0.554860 0.232476 0.129400
v -0.554860 0.232476 -0.124371
v -0.566585 0.204168 0.129400
v -0.566585 0.204168 -0.124371
v -0.594893 0.192442 0.129400
v -0.594893 0.192442 -0.124371
v -0.623201 0.204168 0.129400
v -0.623201 0.204168 -0.124371
v -0.634927 0.232476 0.129400
v -0.634927 0.232476 -0.124371
v -0.623201 0.260784 0.129400
v -0.623201 0.260784 -0.124371
vt 0.625000 0.000000
vt 0.375000 0.250000
vt 0.375000 0.000000
vt 0.625000 0.250000
vt 0.375000 0.500000
vt 0.625000 0.500000
vt 0.375000 0.750000
vt 0.625000 1.000000
vt 0.375000 1.000000
vt 0.125000 0.750000
vt 0.125000 0.500000
vt 0.875000 0.500000
vt 0.625000 0.750000
vt 0.625000 0.404726
vt 0.375000 0.494070
vt 0.625000 0.500000
vt 0.368876 0.616479
vt 0.369070 0.500000
vt 0.375000 0.668201
vt 0.720507 0.639793
vt 0.720274 0.500000
vt 0.625000 0.640491
vt 0.407953 0.602869
vt 0.458243 0.680773
vt 0.875000 0.668894
vt 0.458243 0.069227
vt 0.625000 0.250000
vt 0.600746 0.079378
vt 0.625000 0.081106
vt 0.375000 0.250000
vt 0.375000 0.081799
vt 0.875000 0.500000
vt 0.625000 0.668894
vt 0.445846 0.511352
vt 0.441146 0.500000
vt 0.600746 0.670622
vt 0.375000 0.616524
vt 0.125000 0.668201
vt 0.125000 0.500000
vt 0.441164 0.494070
vt 0.875000 0.750000
vt 1.000000 1.000000
vt 0.875000 1.000000
vt 0.875000 0.500000
vt 0.561074 0.000000
vt 0.561074 0.250000
vt 0.497149 0.250000
vt 0.561074 0.477911
vt 0.561074 0.500000
vt 0.497149 0.500000
vt 0.561074 0.750000
vt 0.497149 0.750000
vt 0.561074 0.772089
vt 0.561074 0.790698
vt 0.497149 0.790582
vt 0.497149 0.772089
vt 0.497149 0.477911
vt 0.625000 0.250000
vt 0.625000 0.477911
vt 0.625000 0.750000
vt 0.625000 0.772089
vt 0.352911 0.500000
vt 0.352911 0.750000
vt 0.125000 0.750000
vt 0.647089 0.500000
vt 0.647089 0.750000
vt 0.375000 0.750000
vt 0.375000 0.477911
vt 0.497149 0.000000
vt 0.375000 0.250000
vt 0.375000 0.500000
vt 0.459807 0.876852
vt 0.497149 0.876852
vt 0.497149 1.000000
vt 0.375000 1.000000
vt 0.375000 0.772089
vt 0.459807 0.790582
vt 0.875000 0.500000
vt 0.875000 0.750000
vt 0.571954 0.879337
vt 0.625000 1.000000
vt 0.561074 0.877509
vt 0.561074 1.000000
vt 0.571954 0.791069
vt 0.625000 0.500000
vt 0.625000 0.000000
vt 0.375000 0.000000
vt 0.125000 0.500000
vt 1.000000 0.500000
vt 0.750000 1.000000
vt 0.750000 0.540805
vt 0.763132 0.540797
vt 0.375000 1.000000
vt 0.250000 0.500000
vt 0.375000 0.500000
vt 0.750000 1.000000
vt 0.250000 1.000000
vt 0.125000 0.500000
vt 0.125000 1.000000
vt 0.000000 0.500000
vt 0.510000 0.250000
vt 0.580294 0.419706
vt 0.660249 0.266735
vt 1.000000 0.500000
vt 0.875000 1.000000
vt 0.875000 0.500000
vt 0.750000 1.000000
vt 0.750000 0.500000
vt 0.625000 1.000000
vt 0.625000 0.500000
vt 0.500000 1.000000
vt 0.500000 0.500000
vt 0.375000 1.000000
vt 0.375000 0.503085
vt 0.420027 0.503096
vt 0.419706 0.080294
vt 0.490000 0.250000
vt 0.010000 0.250000
vt 0.125000 1.000000
vt 0.000000 0.500000
vt 0.125000 0.500000
vt 0.919706 0.080294
vt 0.641425 0.054973
vt 0.641425 0.270970
vt 0.625000 1.000000
vt 0.500000 1.000000
vt 0.500000 1.000000
vt 0.500000 1.000000
vt 0.375000 1.000000
vt 0.000000 1.000000
vt 0.125000 1.000000
vt 0.000000 1.000000
vt 0.875000 1.000000
vt 0.625000 1.000000
vt 0.250000 1.000000
vt 0.125000 1.000000
vt 0.000000 1.000000
vt 0.000000 1.000000
vt 0.750000 1.000000
vt 0.250000 1.000000
vt 0.375000 1.000000
vt 0.625000 1.000000
vt 1.000000 1.000000
vt 0.875000 1.000000
vt 0.500000 1.000000
vt 0.375000 1.000000
vt 0.375000 1.000000
vt 0.250000 1.000000
vt 0.875000 1.000000
vt 0.750000 1.000000
vt 0.125000 1.000000
vt 0.625000 1.000000
vt 1.000000 1.000000
vt 0.419706 0.080294
vt 0.490000 0.250000
vt 0.010000 0.250000
vt 0.750000 1.000000
vt 0.625000 1.000000
vt 0.875000 1.000000
vt 0.125000 1.000000
vt 0.000000 1.000000
vt 0.250000 1.000000
vt 0.500000 1.000000
vt 0.433892 0.540897
vt 0.500000 0.540914
vt 0.625000 0.540882
vt 0.234495 0.502998
vt 0.250000 1.000000
vt 0.250000 0.503008
vt 1.000000 1.000000
vt 0.875000 0.500000
vt 1.000000 0.500000
vt 0.875000 1.000000
vt 0.750000 0.500000
vt 0.750000 1.000000
vt 0.625000 0.500000
vt 0.625000 1.000000
vt 0.500000 0.500000
vt 0.500000 1.000000
vt 0.375000 0.500000
vt 0.375000 1.000000
vt 0.250000 0.500000
vt 0.250000 0.010000
vt 0.419706 0.080294
vt 0.490000 0.250000
vt 0.250000 1.000000
vt 0.125000 0.500000
vt 0.125000 1.000000
vt 0.000000 0.500000
vt 0.919706 0.080294
vt 0.580294 0.080294
vt 0.580294 0.419706
vt 0.762326 0.500000
vt 0.750000 0.490000
vt 0.919706 0.419706
vt 0.983068 0.266735
vt 0.660249 0.047176
vt 0.580294 0.080294
vt 1.000000 1.000000
vt 0.420027 0.500000
vt 0.419706 0.419706
vt 0.080294 0.419706
vt 0.250000 0.490000
vt 0.080294 0.080294
vt 0.250000 0.010000
vt 0.000000 1.000000
vt 0.580294 0.419706
vt 0.750000 0.490000
vt 0.919706 0.419706
vt 0.990000 0.250000
vt 0.750000 0.010000
vt 0.518686 0.270969
vt 1.000000 1.000000
vt 0.419706 0.419706
vt 0.080294 0.419706
vt 0.250000 0.490000
vt 0.080294 0.080294
vt 0.250000 0.010000
vt 1.000000 1.000000
vt 0.433892 0.500000
vt 0.234555 0.500000
vt 0.419706 0.419706
vt 0.250000 0.490000
vt 0.080294 0.419706
vt 0.010000 0.250000
vt 0.080294 0.080294
vt 0.000000 1.000000
vt 0.750000 0.490000
vt 0.919706 0.419706
vt 0.990000 0.250000
vt 0.750000 0.010000
vt 0.510000 0.250000
vn -1.0000 0.0000 0.0000
vn 0.0000 0.0000 -1.0000
vn 0.9776 0.2103 0.0000
vn 0.0000 -0.0000 1.0000
vn 0.0000 -1.0000 0.0000
vn -0.5290 0.8486 0.0000
vn 0.0000 1.0000 0.0000
vn -0.7811 -0.2902 -0.5528
vn -0.7811 -0.2903 -0.5528
vn 1.0000 -0.0000 -0.0000
vn -0.7811 -0.2903 -0.5529
vn 0.0035 0.0000 -1.0000
vn 0.0025 -0.7072 -0.7070
vn -0.9284 0.3717 0.0000
vn -0.9995 0.0310 0.0000
vn 0.0000 0.0711 -0.9975
vn 0.0134 -0.0458 -0.9989
vn -0.0000 0.0711 0.9975
vn 0.0000 -0.0394 0.9992
vn 0.0067 -0.0426 0.9991
vn 0.0000 0.0710 -0.9975
vn 0.0066 -0.0426 -0.9991
vn 0.1576 -0.9875 -0.0000
vn 0.0265 -0.1620 0.9864
vn 0.0133 -0.0458 0.9989
vn 0.0000 -0.0416 -0.9991
vn 0.0118 -0.1550 -0.9878
vn 0.0265 -0.1620 -0.9864
vn -0.0000 -0.1493 0.9888
vn -0.0000 -0.0416 0.9991
vn 0.0118 -0.1550 0.9878
vn -0.4156 0.9095 0.0000
vn 0.3112 -0.9503 -0.0000
vn 0.0000 0.0710 0.9975
vn 0.0000 -0.1493 -0.9888
vn 0.0000 -1.0000 -0.0009
vn 0.0013 -0.9239 -0.3826
vn -0.0025 0.7072 0.7070
vn -1.0000 0.0000 -0.0035
vn 0.0025 0.7072 -0.7070
vn -0.9345 0.1987 -0.2953
vn 0.0034 -0.0000 -1.0000
vn 0.0024 -0.7072 -0.7070
vn 0.0000 -1.0000 -0.0001
vn -0.0000 -1.0000 0.0001
vn -0.0024 -0.7072 0.7070
vn -0.0034 -0.0000 1.0000
vn -0.0024 0.7072 0.7070
vn -0.0024 0.7076 0.7066
vn -0.0031 0.3828 0.9238
vn 1.0000 0.0000 0.0036
vn 0.0024 0.7072 -0.7070
vn -0.9644 -0.2285 -0.1333
vn -0.0025 -0.7072 0.7070
vn -0.0035 -0.0000 1.0000
vn 1.0000 -0.0000 0.0035
vn -0.0032 0.3828 0.9238
vn -0.0025 -0.7076 0.7066
vn 0.0013 0.9239 -0.3826
vn 0.0000 1.0000 -0.0001
vn 0.0000 1.0000 -0.0008
vn 0.7071 0.7071 0.0000
vn 0.7071 -0.7071 -0.0000
vn -0.7071 -0.7071 -0.0000
vn -0.7071 0.7071 0.0000
vn 0.0013 -0.9239 -0.3825
vn -0.9644 -0.2286 -0.1333
usemtl None.003
s off
f 2/1/1 4/2/1 1/3/1
f 3/4/2 6/5/2 4/2/2
f 5/6/3 8/7/3 6/5/3
f 8/7/4 2/8/4 1/9/4
f 6/5/5 1/10/5 4/11/5
f 3/12/6 7/13/6 5/6/6
f 14/14/4 10/15/4 13/16/4
f 19/17/7 10/18/7 17/19/7
f 13/16/5 21/20/5 14/21/5
f 20/22/8 26/23/9 22/24/8
f 21/20/5 27/25/5 14/21/5
f 29/26/10 15/27/10 28/28/10
f 15/27/10 27/29/10 28/28/10
f 9/30/10 15/27/10 29/26/10
f 29/26/10 16/31/10 9/30/10
f 27/25/5 15/32/5 14/21/5
f 24/33/5 27/25/5 21/20/5
f 21/20/5 20/22/5 24/33/5
f 25/34/9 26/23/9 20/22/8
f 13/16/9 12/35/9 25/34/9
f 20/22/9 13/16/8 25/34/9
f 23/36/9 24/33/8 20/22/9
f 22/24/9 23/36/9 20/22/8
f 17/19/8 22/24/9 26/23/11
f 26/23/9 18/37/9 17/19/9
f 13/16/5 20/22/5 21/20/5
f 17/19/7 18/37/7 19/17/7
f 16/38/7 17/19/7 10/18/7
f 10/18/7 9/39/7 16/38/7
f 10/15/4 11/40/4 13/16/4
f 11/40/4 12/35/4 13/16/4
f 9/30/4 10/15/4 14/14/4
f 15/27/4 9/30/4 14/14/4
f 3/12/6 2/41/6 7/13/6
f 6/5/5 8/7/5 1/10/5
f 8/7/4 7/13/4 2/8/4
f 5/6/3 7/13/3 8/7/3
f 3/4/2 5/6/2 6/5/2
f 2/1/1 3/4/1 4/2/1
s 1
f 55/42/12 56/43/13 57/44/13
f 30/45/14 33/46/14 52/47/15
f 34/48/16 37/49/16 49/50/17
f 37/49/10 39/51/10 50/52/10
f 40/53/18 23/54/18 22/55/19
f 39/51/18 40/53/18 46/56/20
f 33/46/21 34/48/16 51/57/22
f 32/58/16 35/59/16 34/48/16
f 38/60/18 41/61/18 40/53/18
f 42/62/23 45/63/23 48/64/5
f 35/65/7 41/66/7 38/60/7
f 44/67/24 50/52/25 46/56/20
f 52/47/26 51/57/22 42/68/27
f 47/69/15 52/47/15 53/70/1
f 51/57/22 49/50/17 43/71/28
f 43/71/10 49/50/10 50/52/10
f 16/72/29 29/73/19 47/74/30
f 48/75/29 45/76/31 16/72/29
f 47/74/30 48/75/29 16/72/29
f 46/56/20 22/55/19 17/77/29
f 45/76/31 46/56/20 17/77/29
f 32/78/32 31/79/32 41/66/7
f 43/71/33 44/67/33 45/63/23
f 27/80/18 31/81/18 28/82/18
f 31/81/18 30/83/34 28/82/18
f 41/61/18 31/81/18 27/80/18
f 40/53/18 41/61/18 24/84/18
f 23/54/18 40/53/18 24/84/18
f 36/85/10 38/60/10 39/51/10
f 35/59/16 36/85/16 37/49/16
f 30/45/14 31/86/32 32/58/32
f 30/45/14 32/58/32 33/46/14
f 35/59/16 37/49/16 34/48/16
f 36/85/10 39/51/10 37/49/10
f 41/61/18 27/80/18 24/84/18
f 43/71/33 45/63/23 42/62/23
f 32/78/32 41/66/7 35/65/7
f 45/76/31 17/77/29 16/72/29
f 43/71/10 50/52/10 44/67/10
f 51/57/22 43/71/28 42/68/27
f 47/69/15 53/70/1 48/87/1
f 52/47/26 42/68/27 53/70/35
f 44/67/24 46/56/20 45/76/31
f 35/65/7 38/60/7 36/85/7
f 42/62/23 48/64/5 53/88/5
f 38/60/18 40/53/18 39/51/18
f 32/58/16 34/48/16 33/46/21
f 33/46/21 51/57/22 52/47/26
f 39/51/18 46/56/20 50/52/25
f 40/53/18 22/55/19 46/56/20
f 37/49/10 50/52/10 49/50/10
f 34/48/16 49/50/17 51/57/22
f 30/45/14 52/47/15 47/69/15
f 55/42/12 57/44/13 54/89/12
f 58/90/5 59/91/36 60/92/37
f 63/93/38 65/94/7 62/95/38
f 56/43/39 67/96/39 58/90/39
f 64/97/7 69/98/40 65/94/7
f 68/99/40 54/100/12 69/98/40
f 65/101/41 69/102/41 14/103/41
f 70/104/42 72/105/43 73/106/43
f 73/106/43 74/107/44 75/108/45
f 75/108/45 76/109/46 77/110/46
f 77/110/46 78/111/47 79/112/47
f 80/113/48 26/114/49 18/115/50
f 76/116/51 74/117/51 82/118/51
f 81/119/52 70/120/42 83/121/52
f 77/122/53 19/123/53 10/124/53
f 85/125/54 87/126/55 84/127/55
f 88/128/39 89/129/39 63/93/39
f 55/130/39 90/131/39 91/132/39
f 55/42/39 66/133/39 56/43/39
f 92/134/39 67/96/39 85/125/39
f 63/93/39 93/135/39 64/97/39
f 88/128/39 85/125/39 84/127/39
f 68/99/39 93/135/39 90/131/39
f 95/136/56 97/137/56 94/138/56
f 66/133/13 99/139/5 67/96/5
f 90/131/40 100/140/7 95/136/40
f 89/129/38 87/126/55 101/141/38
f 67/96/5 86/142/54 85/125/54
f 66/133/13 94/143/12 98/144/13
f 90/131/40 94/138/12 91/132/12
f 93/135/7 101/141/38 100/140/7
f 103/145/12 105/146/13 102/147/13
f 100/140/56 102/147/56 106/148/56
f 86/142/56 103/145/56 87/126/56
f 99/139/56 108/149/56 109/150/56
f 100/140/56 96/151/56 95/136/56
f 101/141/56 103/145/56 102/147/56
f 99/139/56 107/152/56 86/142/56
f 98/144/56 97/153/56 108/149/56
f 114/154/56 115/155/56 113/156/56
f 107/152/40 115/157/7 114/158/40
f 97/153/55 110/159/38 108/149/38
f 97/137/55 112/160/54 111/161/55
f 102/147/13 113/162/5 106/148/5
f 103/145/12 114/158/40 104/163/12
f 108/149/38 115/157/7 109/150/7
f 96/151/54 113/162/5 112/160/54
f 63/93/38 62/95/38 20/164/57
f 116/165/55 92/134/54 88/128/55
f 29/73/19 30/83/34 47/74/30
f 117/166/58 58/90/5 92/134/54
f 81/119/52 83/121/52 12/167/59
f 26/114/49 82/168/60 25/169/61
f 119/170/7 121/171/62 118/172/7
f 120/173/62 123/174/10 121/171/62
f 122/175/10 125/176/63 123/174/10
f 124/177/63 127/178/5 125/176/63
f 126/179/5 129/180/64 127/178/5
f 128/181/64 131/182/1 129/180/64
f 126/183/4 124/184/4 122/185/4
f 130/186/1 133/187/65 131/182/1
f 132/188/65 118/189/7 133/187/65
f 125/190/2 129/191/2 133/192/2
f 61/193/66 57/44/13 60/92/37
f 57/44/13 56/43/13 60/92/37
f 56/43/13 58/90/5 60/92/37
f 63/93/38 64/97/7 65/94/7
f 56/43/39 66/133/39 67/96/39
f 64/97/7 68/99/40 69/98/40
f 68/99/40 55/130/12 54/100/12
f 69/102/41 54/194/41 14/103/41
f 54/194/41 57/195/41 14/103/41
f 57/195/41 61/196/41 14/103/41
f 14/103/41 21/197/41 62/198/41
f 62/198/41 65/101/41 14/103/41
f 70/104/42 71/199/42 72/105/43
f 73/106/43 72/105/43 74/107/44
f 75/108/45 74/107/44 76/109/46
f 77/110/46 76/109/46 78/111/47
f 19/200/57 79/112/47 18/115/50
f 79/112/47 78/111/47 18/115/50
f 78/111/47 80/113/48 18/115/50
f 74/117/51 72/201/51 81/202/51
f 72/201/51 71/203/51 81/202/51
f 81/202/51 82/118/51 74/117/51
f 82/118/51 80/204/51 76/116/51
f 80/204/51 78/205/51 76/116/51
f 81/119/52 71/206/42 70/120/42
f 83/207/67 70/208/53 10/124/53
f 70/208/53 73/209/53 10/124/53
f 73/209/53 75/210/53 10/124/53
f 75/210/53 77/122/53 10/124/53
f 77/122/53 79/211/53 19/123/53
f 10/124/53 11/212/53 83/207/67
f 85/125/54 86/142/54 87/126/55
f 88/128/39 84/127/39 89/129/39
f 55/130/39 68/99/39 90/131/39
f 55/42/39 91/213/39 66/133/39
f 92/134/39 58/90/39 67/96/39
f 63/93/39 89/129/39 93/135/39
f 88/128/39 92/134/39 85/125/39
f 68/99/39 64/97/39 93/135/39
f 95/136/56 96/151/56 97/137/56
f 66/133/13 98/144/13 99/139/5
f 90/131/40 93/135/7 100/140/7
f 89/129/38 84/127/55 87/126/55
f 67/96/5 99/139/5 86/142/54
f 66/133/13 91/213/12 94/143/12
f 90/131/40 95/136/40 94/138/12
f 93/135/7 89/129/38 101/141/38
f 103/145/12 104/163/12 105/146/13
f 100/140/56 101/141/56 102/147/56
f 86/142/56 107/152/56 103/145/56
f 99/139/56 98/144/56 108/149/56
f 100/140/56 106/148/56 96/151/56
f 101/141/56 87/126/56 103/145/56
f 99/139/56 109/150/56 107/152/56
f 98/144/56 94/143/56 97/153/56
f 115/155/56 110/214/56 112/215/56
f 110/214/56 111/216/56 112/215/56
f 112/215/56 113/156/56 115/155/56
f 113/156/56 105/217/56 114/154/56
f 105/217/56 104/218/56 114/154/56
f 107/152/40 109/150/7 115/157/7
f 97/153/55 111/219/55 110/159/38
f 97/137/55 96/151/54 112/160/54
f 102/147/13 105/146/13 113/162/5
f 103/145/12 107/152/40 114/158/40
f 108/149/38 110/159/38 115/157/7
f 96/151/54 106/148/5 113/162/5
f 62/95/38 21/220/57 20/164/57
f 20/164/57 116/165/55 88/128/55
f 88/128/55 63/93/38 20/164/57
f 116/165/55 117/166/58 92/134/54
f 29/73/19 28/82/18 30/83/34
f 117/166/58 59/91/36 58/90/5
f 83/121/52 11/221/59 12/167/59
f 12/167/59 25/169/61 82/168/60
f 82/168/60 81/119/52 12/167/59
f 26/114/49 80/113/48 82/168/60
f 119/170/7 120/173/62 121/171/62
f 120/173/62 122/175/10 123/174/10
f 122/175/10 124/177/63 125/176/63
f 124/177/63 126/179/5 127/178/5
f 126/179/5 128/181/64 129/180/64
f 128/181/64 130/186/1 131/182/1
f 122/185/4 120/222/4 119/223/4
f 119/223/4 132/224/4 122/185/4
f 132/224/4 130/225/4 122/185/4
f 130/225/4 128/226/4 122/185/4
f 128/226/4 126/183/4 122/185/4
f 130/186/1 132/188/65 133/187/65
f 132/188/65 119/227/7 118/189/7
f 133/192/2 118/228/2 121/229/2
f 121/229/2 123/230/2 133/192/2
f 123/230/2 125/190/2 133/192/2
f 125/190/2 127/231/2 129/191/2
f 129/191/2 131/232/2 133/192/2
o Circle_Circle.002
v 0.000000 0.000000 -0.120000
v -0.103923 0.000000 0.060000
v 0.103923 0.000000 0.060000
l 135 134
l 136 135
l 134 136
